<?xml version="1.0" encoding="UTF-8"?>
<svg version="1.1" xmlns="http://www.w3.org/2000/svg" width="512" height="512">
<path d="M0 0 C36.96 0 73.92 0 112 0 C112 18.48 112 36.96 112 56 C107.38 56.33 102.76 56.66 98 57 C99.216875 58.464375 100.43375 59.92875 101.6875 61.4375 C107.45216342 68.48017842 112.94608268 75.72273798 118.45263672 82.96777344 C120.62445253 85.82012352 122.8115672 88.66037501 125 91.5 C128.84384601 96.4920078 132.67443778 101.49396907 136.5 106.5 C140.38895383 111.58864711 144.28155873 116.67437757 148.1875 121.75 C148.97898437 122.77867188 149.77046875 123.80734375 150.5859375 124.8671875 C152.27673985 127.06140026 153.96935944 129.25411921 155.6640625 131.4453125 C156.1072583 132.01926758 156.5504541 132.59322266 157.00708008 133.18457031 C158.2290776 134.76697369 159.45238173 136.3483678 160.67578125 137.9296875 C161.44277344 138.94289062 162.20976562 139.95609375 163 141 C163.4287014 141.50955073 163.8574028 142.01910147 164.29909515 142.54409313 C167.81185618 146.94296276 168.71815248 150.53073258 168.61523438 156.16333008 C168.62078339 156.94808212 168.6263324 157.73283417 168.63204956 158.54136658 C168.64379399 161.11805632 168.61961874 163.69296623 168.59375 166.26953125 C168.59203689 168.07402975 168.59210662 169.87853073 168.59387207 171.68302917 C168.59222158 175.45990916 168.57357894 179.23619366 168.54199219 183.01293945 C168.50240121 187.83116117 168.49793892 192.6486008 168.50545502 197.46695423 C168.50853986 201.19299866 168.49634921 204.91887049 168.47932434 208.64487267 C168.47233857 210.42010094 168.46916438 212.19534878 168.47001648 213.97059059 C168.46179144 225.25002377 168.3046245 235.46087114 162.0625 245.3125 C161.54558594 246.13105469 161.02867187 246.94960937 160.49609375 247.79296875 C158.78989068 250.30995239 156.99192864 252.7016208 155 255 C155.44730469 255.38929688 155.89460937 255.77859375 156.35546875 256.1796875 C162.76024585 262.10649616 167.59787207 269.72063476 168.2734375 278.58984375 C168.63439721 289.53642193 167.44321643 298.77527158 160.3125 307.625 C158.88397889 309.09212979 157.44795414 310.55204586 156 312 C156.53109375 312.52207031 157.0621875 313.04414063 157.609375 313.58203125 C165.17453166 321.4647036 168.14481113 328.55574285 168.5 339.5 C168.08009819 352.05888131 163.86140081 359.27114151 155 368 C155.56267578 368.70962891 155.56267578 368.70962891 156.13671875 369.43359375 C166.53349572 382.86821991 168.32071564 394.44163082 168.3359375 411.046875 C168.34237836 412.70680858 168.34910764 414.36674106 168.35610962 416.02667236 C168.36803792 419.49632393 168.3717951 422.96587627 168.37060547 426.43554688 C168.37040264 430.84766209 168.39768718 435.25913062 168.43214989 439.67109299 C168.45455868 443.09782747 168.45843875 446.52440982 168.45738602 449.95121002 C168.45972168 451.57606481 168.4684282 453.20092512 168.48405075 454.82570648 C168.61404066 469.74161789 166.55104417 482.63174931 156 494 C146.81976638 502.07150975 137.83269413 504.45193175 125.82421875 504.30078125 C123.67512713 504.30842367 121.52603839 504.31691362 119.37695312 504.32617188 C116.03305351 504.32396662 112.6897372 504.31251847 109.34594727 504.28491211 C91.74919887 503.98865725 91.74919887 503.98865725 76 511 C70.65476945 512.78174352 64.87717258 512.26558656 59.27880859 512.29516602 C57.77382959 512.30661379 56.26888884 512.32694978 54.76416016 512.35668945 C34.62486555 512.75432168 34.62486555 512.75432168 27.16589355 506.44975281 C24.58485868 504.72212286 23.22469807 504.63245001 20.14648438 504.64697266 C19.1844812 504.64331696 18.22247803 504.63966125 17.23132324 504.63589478 C16.19592407 504.64519012 15.1605249 504.65448547 14.09375 504.6640625 C11.88280962 504.65153939 9.67187212 504.6385018 7.4609375 504.625 C3.98980346 504.62108776 0.51895756 504.62491956 -2.95214844 504.63964844 C-19.72766811 504.68282249 -33.37081795 504.47853575 -46 492 C-48.36817907 489.15500636 -50.30883004 486.2918266 -52 483 C-52.32727585 482.40649246 -52.6545517 481.81298492 -52.991745 481.20149231 C-57.12873422 472.59010259 -56.58078524 463.77041754 -56.53125 454.4375 C-56.53394988 452.63728629 -56.53783641 450.837074 -56.54284668 449.03686523 C-56.54871843 445.27801525 -56.54025425 441.51954747 -56.52148438 437.76074219 C-56.49869613 432.96605498 -56.51183177 428.17226367 -56.53577423 423.37760925 C-56.5502954 419.66444263 -56.54559742 415.95148502 -56.53526306 412.23831177 C-56.53261319 410.47144461 -56.5358036 408.70455788 -56.54518127 406.93771362 C-56.59345936 395.2877606 -55.8955194 385.95900075 -48.9375 376.125 C-48.45152344 375.42632812 -47.96554688 374.72765625 -47.46484375 374.0078125 C-45.99395373 371.99171258 -44.50450382 369.99112375 -43 368 C-43.67095703 367.43345703 -43.67095703 367.43345703 -44.35546875 366.85546875 C-51.07149186 360.74088055 -55.50526263 352.48867087 -56.203125 343.3359375 C-56.41804394 329.76022433 -51.98491736 321.59902721 -44 311 C-44.68835938 310.29037109 -44.68835938 310.29037109 -45.390625 309.56640625 C-53.5247108 300.80004908 -56.37828468 292.30155161 -56.28515625 280.4609375 C-55.40653955 269.79717863 -49.75633824 261.88239462 -43 254 C-43.44730469 253.53851563 -43.89460937 253.07703125 -44.35546875 252.6015625 C-52.35820651 243.9674787 -56.06815511 235.67851386 -56.30395508 223.98120117 C-56.32337662 223.17565796 -56.34279816 222.37011475 -56.36280823 221.54016113 C-56.53179392 214.09466019 -56.62841055 206.64776566 -56.70387745 199.20078564 C-56.75512988 194.20838883 -56.82930543 189.21878065 -56.96020508 184.2277832 C-57.08666739 179.38582825 -57.15238817 174.5463803 -57.17746544 169.70287514 C-57.19692387 167.87001765 -57.23699713 166.03724399 -57.29932594 164.20534325 C-57.67028985 152.76354494 -56.43408408 145.56659796 -48.63582325 136.87336254 C-47.60055807 135.77330084 -46.55633816 134.68158451 -45.50252151 133.59928131 C-43.16591251 131.11219872 -41.16830656 128.41890008 -39.125 125.6875 C-38.67624512 125.10210449 -38.22749023 124.51670898 -37.76513672 123.91357422 C-37.40693848 123.4445166 -37.04874023 122.97545898 -36.6796875 122.4921875 C-33.55787618 118.41563601 -30.4040862 114.36410097 -27.25 110.3125 C-26.36078857 109.17010864 -26.36078857 109.17010864 -25.45361328 108.00463867 C-24.24065319 106.44654195 -23.02759914 104.88851837 -21.81445312 103.33056641 C-18.29725628 98.81291826 -14.78293759 94.2930307 -11.26855469 89.77319336 C-8.25406035 85.89662819 -5.23780854 82.02144946 -2.21875 78.1484375 C-1.59613281 77.34921875 -0.97351563 76.55 -0.33203125 75.7265625 C0.84707218 74.21308645 2.02671646 72.70003153 3.20703125 71.1875 C6.85928049 66.49797711 10.44560991 61.76416745 14 57 C7.07 56.505 7.07 56.505 0 56 C0 37.52 0 19.04 0 0 Z " fill="#2EB5EA" transform="translate(200,0)"/>
<path d="M0 0 C36.96 0 73.92 0 112 0 C112 18.48 112 36.96 112 56 C107.38 56.33 102.76 56.66 98 57 C99.216875 58.464375 100.43375 59.92875 101.6875 61.4375 C107.45216342 68.48017842 112.94608268 75.72273798 118.45263672 82.96777344 C120.62445253 85.82012352 122.8115672 88.66037501 125 91.5 C128.84384601 96.4920078 132.67443778 101.49396907 136.5 106.5 C140.38895383 111.58864711 144.28155873 116.67437757 148.1875 121.75 C148.97898437 122.77867188 149.77046875 123.80734375 150.5859375 124.8671875 C152.27673985 127.06140026 153.96935944 129.25411921 155.6640625 131.4453125 C156.1072583 132.01926758 156.5504541 132.59322266 157.00708008 133.18457031 C158.2290776 134.76697369 159.45238173 136.3483678 160.67578125 137.9296875 C161.44277344 138.94289062 162.20976562 139.95609375 163 141 C163.4287014 141.50955073 163.8574028 142.01910147 164.29909515 142.54409313 C167.81185618 146.94296276 168.71815248 150.53073258 168.61523438 156.16333008 C168.62078339 156.94808212 168.6263324 157.73283417 168.63204956 158.54136658 C168.64379399 161.11805632 168.61961874 163.69296623 168.59375 166.26953125 C168.59203689 168.07402975 168.59210662 169.87853073 168.59387207 171.68302917 C168.59222158 175.45990916 168.57357894 179.23619366 168.54199219 183.01293945 C168.50240121 187.83116117 168.49793892 192.6486008 168.50545502 197.46695423 C168.50853986 201.19299866 168.49634921 204.91887049 168.47932434 208.64487267 C168.47233857 210.42010094 168.46916438 212.19534878 168.47001648 213.97059059 C168.46179144 225.25002377 168.3046245 235.46087114 162.0625 245.3125 C161.54558594 246.13105469 161.02867187 246.94960937 160.49609375 247.79296875 C158.78989068 250.30995239 156.99192864 252.7016208 155 255 C155.44730469 255.38929688 155.89460937 255.77859375 156.35546875 256.1796875 C162.76024585 262.10649616 167.59787207 269.72063476 168.2734375 278.58984375 C168.63439721 289.53642193 167.44321643 298.77527158 160.3125 307.625 C158.88397889 309.09212979 157.44795414 310.55204586 156 312 C156.53109375 312.52207031 157.0621875 313.04414063 157.609375 313.58203125 C165.17453166 321.4647036 168.14481113 328.55574285 168.5 339.5 C168.08009819 352.05888131 163.86140081 359.27114151 155 368 C155.56267578 368.70962891 155.56267578 368.70962891 156.13671875 369.43359375 C166.53349572 382.86821991 168.32071564 394.44163082 168.3359375 411.046875 C168.34237836 412.70680858 168.34910764 414.36674106 168.35610962 416.02667236 C168.36803792 419.49632393 168.3717951 422.96587627 168.37060547 426.43554688 C168.37040264 430.84766209 168.39768718 435.25913062 168.43214989 439.67109299 C168.45455868 443.09782747 168.45843875 446.52440982 168.45738602 449.95121002 C168.45972168 451.57606481 168.4684282 453.20092512 168.48405075 454.82570648 C168.61404066 469.74161789 166.55104417 482.63174931 156 494 C146.81976638 502.07150975 137.83269413 504.45193175 125.82421875 504.30078125 C123.67512713 504.30842367 121.52603839 504.31691362 119.37695312 504.32617188 C116.03305351 504.32396662 112.6897372 504.31251847 109.34594727 504.28491211 C91.74919887 503.98865725 91.74919887 503.98865725 76 511 C70.65476945 512.78174352 64.87717258 512.26558656 59.27880859 512.29516602 C57.77382959 512.30661379 56.26888884 512.32694978 54.76416016 512.35668945 C34.62486555 512.75432168 34.62486555 512.75432168 27.16589355 506.44975281 C24.58485868 504.72212286 23.22469807 504.63245001 20.14648438 504.64697266 C19.1844812 504.64331696 18.22247803 504.63966125 17.23132324 504.63589478 C16.19592407 504.64519012 15.1605249 504.65448547 14.09375 504.6640625 C11.88280962 504.65153939 9.67187212 504.6385018 7.4609375 504.625 C3.98980346 504.62108776 0.51895756 504.62491956 -2.95214844 504.63964844 C-19.72766811 504.68282249 -33.37081795 504.47853575 -46 492 C-48.36817907 489.15500636 -50.30883004 486.2918266 -52 483 C-52.32727585 482.40649246 -52.6545517 481.81298492 -52.991745 481.20149231 C-57.12873422 472.59010259 -56.58078524 463.77041754 -56.53125 454.4375 C-56.53394988 452.63728629 -56.53783641 450.837074 -56.54284668 449.03686523 C-56.54871843 445.27801525 -56.54025425 441.51954747 -56.52148438 437.76074219 C-56.49869613 432.96605498 -56.51183177 428.17226367 -56.53577423 423.37760925 C-56.5502954 419.66444263 -56.54559742 415.95148502 -56.53526306 412.23831177 C-56.53261319 410.47144461 -56.5358036 408.70455788 -56.54518127 406.93771362 C-56.59345936 395.2877606 -55.8955194 385.95900075 -48.9375 376.125 C-48.45152344 375.42632812 -47.96554688 374.72765625 -47.46484375 374.0078125 C-45.99395373 371.99171258 -44.50450382 369.99112375 -43 368 C-43.67095703 367.43345703 -43.67095703 367.43345703 -44.35546875 366.85546875 C-51.07149186 360.74088055 -55.50526263 352.48867087 -56.203125 343.3359375 C-56.41804394 329.76022433 -51.98491736 321.59902721 -44 311 C-44.68835938 310.29037109 -44.68835938 310.29037109 -45.390625 309.56640625 C-53.5247108 300.80004908 -56.37828468 292.30155161 -56.28515625 280.4609375 C-55.40653955 269.79717863 -49.75633824 261.88239462 -43 254 C-43.44730469 253.53851563 -43.89460937 253.07703125 -44.35546875 252.6015625 C-52.35820651 243.9674787 -56.06815511 235.67851386 -56.30395508 223.98120117 C-56.32337662 223.17565796 -56.34279816 222.37011475 -56.36280823 221.54016113 C-56.53179392 214.09466019 -56.62841055 206.64776566 -56.70387745 199.20078564 C-56.75512988 194.20838883 -56.82930543 189.21878065 -56.96020508 184.2277832 C-57.08666739 179.38582825 -57.15238817 174.5463803 -57.17746544 169.70287514 C-57.19692387 167.87001765 -57.23699713 166.03724399 -57.29932594 164.20534325 C-57.67028985 152.76354494 -56.43408408 145.56659796 -48.63582325 136.87336254 C-47.60055807 135.77330084 -46.55633816 134.68158451 -45.50252151 133.59928131 C-43.16591251 131.11219872 -41.16830656 128.41890008 -39.125 125.6875 C-38.67624512 125.10210449 -38.22749023 124.51670898 -37.76513672 123.91357422 C-37.40693848 123.4445166 -37.04874023 122.97545898 -36.6796875 122.4921875 C-33.55787618 118.41563601 -30.4040862 114.36410097 -27.25 110.3125 C-26.36078857 109.17010864 -26.36078857 109.17010864 -25.45361328 108.00463867 C-24.24065319 106.44654195 -23.02759914 104.88851837 -21.81445312 103.33056641 C-18.29725628 98.81291826 -14.78293759 94.2930307 -11.26855469 89.77319336 C-8.25406035 85.89662819 -5.23780854 82.02144946 -2.21875 78.1484375 C-1.59613281 77.34921875 -0.97351563 76.55 -0.33203125 75.7265625 C0.84707218 74.21308645 2.02671646 72.70003153 3.20703125 71.1875 C6.85928049 66.49797711 10.44560991 61.76416745 14 57 C7.07 56.505 7.07 56.505 0 56 C0 37.52 0 19.04 0 0 Z M-41 159 C-46.67079681 201.18835755 -46.67079681 201.18835755 -32.71484375 242.49609375 C-26.63971584 247.82393941 -19.7954987 249.14994341 -11.94848633 249.11352539 C-11.12874832 249.11367142 -10.30901031 249.11381744 -9.46443176 249.1139679 C-6.75360472 249.11327096 -4.0428463 249.10548878 -1.33203125 249.09765625 C0.54698143 249.09579129 2.4259946 249.09436776 4.30500793 249.09336853 C9.25175315 249.08954948 14.19846902 249.07972438 19.14520264 249.06866455 C24.19250085 249.0584373 29.23980379 249.05386809 34.28710938 249.04882812 C44.19141914 249.03810159 54.09570713 249.02103248 64 249 C64 253.62 64 258.24 64 263 C62.92782227 262.99333817 61.85564453 262.98667633 60.75097656 262.97981262 C50.62879361 262.91890167 40.50664802 262.87397945 30.38432312 262.84456348 C25.18077941 262.82893186 19.9773841 262.8077393 14.77392578 262.77368164 C9.7488866 262.74099895 4.72398984 262.72312816 -0.30114746 262.71536827 C-2.21482585 262.70984075 -4.12849677 262.69904689 -6.04211426 262.68280983 C-8.7300682 262.66091708 -11.41743948 262.65803801 -14.10546875 262.65942383 C-15.28259682 262.64324509 -15.28259682 262.64324509 -16.48350525 262.6267395 C-22.70431421 262.66126653 -28.15207601 263.86157623 -33.2421875 267.68359375 C-33.78101563 268.26238281 -34.31984375 268.84117187 -34.875 269.4375 C-35.42929688 270.01371094 -35.98359375 270.58992188 -36.5546875 271.18359375 C-41.27076783 277.11055957 -40.67137568 283.7083502 -40 291 C-37.49477004 296.61171511 -32.4123635 301.24727907 -26.92292786 304.06686401 C-23.05345025 305.30218318 -19.37145975 305.26293894 -15.35424805 305.22705078 C-14.4952037 305.22734283 -13.63615936 305.22763489 -12.75108337 305.22793579 C-9.92119122 305.2265462 -7.09156473 305.21100245 -4.26171875 305.1953125 C-2.29588464 305.19158105 -0.33004867 305.1887347 1.63578796 305.18673706 C6.80283772 305.179111 11.96977456 305.15947127 17.13677979 305.1373291 C22.41213453 305.11684859 27.68750756 305.10773062 32.96289062 305.09765625 C43.30864329 305.07622446 53.65431224 305.04210085 64 305 C64 309.62 64 314.24 64 319 C62.93004288 318.99111755 61.86008575 318.98223511 60.75770569 318.9730835 C50.6505777 318.8918267 40.5435164 318.83195267 30.43613529 318.79275131 C25.24040626 318.77191959 20.04494195 318.74368276 14.84936523 318.69824219 C9.83079379 318.6546268 4.81247621 318.63082971 -0.20627022 318.62049103 C-2.11634883 318.61312777 -4.02641431 318.5987492 -5.9363842 318.57707977 C-8.62187069 318.54783684 -11.30632205 318.54405265 -13.99194336 318.54589844 C-15.16367851 318.52432678 -15.16367851 318.52432678 -16.35908508 318.50231934 C-23.17799983 318.55268836 -29.15717402 320.56395997 -34.375 325.03515625 C-34.91125 325.70417969 -35.4475 326.37320313 -36 327.0625 C-36.556875 327.73410156 -37.11375 328.40570313 -37.6875 329.09765625 C-41.26745586 334.28646133 -40.61205917 340.98616284 -40 347 C-37.99759718 352.88556717 -34.13912795 356.06411917 -28.8671875 359.08984375 C-24.44875401 361.24359899 -20.38085284 361.13477421 -15.58129883 361.11352539 C-14.72254654 361.11367142 -13.86379425 361.11381744 -12.97901917 361.1139679 C-10.1383309 361.11327079 -7.29770807 361.10548783 -4.45703125 361.09765625 C-2.48833756 361.09579135 -0.51964341 361.09436779 1.4490509 361.09336853 C6.63253051 361.08954901 11.81598214 361.07972352 16.99945068 361.06866455 C22.2880414 361.0584383 27.57663663 361.0538683 32.86523438 361.04882812 C43.24350188 361.03810077 53.62174862 361.0210311 64 361 C64 365.95 64 370.9 64 376 C62.92782227 375.99111755 61.85564453 375.98223511 60.75097656 375.9730835 C50.62882072 375.89186911 40.5067313 375.83197292 30.38432312 375.79275131 C25.18071881 375.77190891 19.97737829 375.74365235 14.77392578 375.69824219 C9.74887512 375.65466517 4.72407763 375.63083773 -0.30114746 375.62049103 C-2.21484358 375.61312093 -4.12852641 375.59872885 -6.04211426 375.57707977 C-8.73019968 375.54788801 -11.4172494 375.54405055 -14.10546875 375.54589844 C-15.28259682 375.52432678 -15.28259682 375.52432678 -16.48350525 375.50231934 C-23.25470903 375.55242847 -28.39321374 377.68699441 -33.4609375 382.18359375 C-34.09257812 382.92738281 -34.72421875 383.67117188 -35.375 384.4375 C-36.02210938 385.17871094 -36.66921875 385.91992188 -37.3359375 386.68359375 C-40.75826042 391.44753152 -41.25849826 395.48142262 -41.30639648 401.29370117 C-41.31472 402.00988617 -41.32304352 402.72607117 -41.33161926 403.46395874 C-41.3556451 405.8236847 -41.36448373 408.18313357 -41.37109375 410.54296875 C-41.38006828 412.1933856 -41.38919027 413.84380166 -41.39845276 415.49421692 C-41.41492698 418.9532773 -41.42263955 422.4122411 -41.42553711 425.87133789 C-41.43090824 430.28174883 -41.46854162 434.69123836 -41.51428127 439.10138988 C-41.54418165 442.51171593 -41.55126352 445.921824 -41.55226326 449.33226967 C-41.55644267 450.95683305 -41.56878447 452.58139846 -41.58978081 454.20583153 C-41.71161131 464.44989195 -41.33753345 473.20147566 -34.03929138 481.13005066 C-26.26973647 488.71355982 -18.26997339 489.37351997 -7.921875 489.26367188 C-6.44791096 489.23861449 -4.97395263 489.21321976 -3.5 489.1875 C-1.99480503 489.1724286 -0.48959549 489.15874453 1.015625 489.14648438 C4.67738941 489.11366687 8.33860021 489.06201989 12 489 C11.79431396 488.10486694 11.79431396 488.10486694 11.58447266 487.19165039 C11.31449463 486.00043579 11.31449463 486.00043579 11.0390625 484.78515625 C10.86068848 484.00277588 10.68231445 483.22039551 10.49853516 482.41430664 C9.78477056 478.9576866 9.3826586 475.5077038 9 472 C13.95 472 18.9 472 24 472 C24 474.31 24 476.62 24 479 C26.66889433 486.68690764 31.96956327 491.71481327 38.88671875 495.63671875 C44.46404424 497.92735323 50.51001207 497.47272548 56.4375 497.4375 C57.62666016 497.45748047 58.81582031 497.47746094 60.04101562 497.49804688 C67.00412778 497.49418063 72.20287712 496.99086143 78 493 C78.92167969 492.37996094 79.84335937 491.75992187 80.79296875 491.12109375 C83.37658036 488.63808294 84.74336269 486.27781236 86.3125 483.0625 C86.82425781 482.04285156 87.33601562 481.02320313 87.86328125 479.97265625 C89.2976408 476.75206349 89.2976408 476.75206349 89 472 C93.95 472 98.9 472 104 472 C102.68 477.61 101.36 483.22 100 489 C104.69664148 489.09229208 109.39008515 489.17178017 114.08691406 489.21972656 C115.68142408 489.23973053 117.27586178 489.26694301 118.87011719 489.30175781 C128.78736094 489.512763 135.95501031 489.49362066 144.20703125 483.359375 C144.73683594 482.82828125 145.26664063 482.2971875 145.8125 481.75 C146.35519531 481.22921875 146.89789063 480.7084375 147.45703125 480.171875 C151.40366373 474.61661511 152.3759901 468.92566477 152.38818359 462.2421875 C152.39344055 461.51259827 152.39869751 460.78300903 152.40411377 460.03131104 C152.41720042 457.64564916 152.40861662 455.26066737 152.3984375 452.875 C152.4004615 451.20165887 152.40337566 449.5283186 152.40713501 447.85498047 C152.41154301 444.3583125 152.40517671 440.86187538 152.39111328 437.36523438 C152.37402222 432.89999003 152.38387162 428.43528679 152.40183067 423.97006226 C152.4127099 420.51778135 152.40920326 417.06562716 152.4014473 413.61334229 C152.39945671 411.96763036 152.40186412 410.32190665 152.40888596 408.6762085 C152.41656912 406.36976981 152.40480187 404.06418794 152.38818359 401.7578125 C152.38460342 399.79545654 152.38460342 399.79545654 152.38095093 397.79345703 C151.78998573 391.90870673 150.12600481 386.38969154 145.75 382.1875 C144.93789063 381.37345703 144.93789063 381.37345703 144.109375 380.54296875 C137.30467187 375.56545443 131.24611947 375.61438631 123.0625 375.8125 C121.99708984 375.82603516 120.93167969 375.83957031 119.83398438 375.85351562 C117.22243609 375.88864856 114.61115043 375.94244811 112 376 C112 371.05 112 366.1 112 361 C113.5675 361.03480469 115.135 361.06960938 116.75 361.10546875 C118.83332255 361.13362176 120.91665678 361.16092029 123 361.1875 C124.02996094 361.21263672 125.05992187 361.23777344 126.12109375 361.26367188 C135.04875375 361.34896799 141.82419728 359.89663815 148.5234375 353.65625 C152.7615007 348.90244366 153.57279759 343.62894435 153.33984375 337.48828125 C152.51096679 331.4193775 149.92716968 327.43514223 145.1875 323.625 C138.38314772 318.60240595 131.16719609 318.73096576 123.0625 318.875 C122.09248047 318.88402344 121.12246094 318.89304687 120.12304688 318.90234375 C117.74859002 318.92573741 115.37426162 318.96160224 113 319 C113 314.38 113 309.76 113 305 C114.47210938 305.04640625 115.94421875 305.0928125 117.4609375 305.140625 C119.43227119 305.17817421 121.40362707 305.21457096 123.375 305.25 C124.82326172 305.30027344 124.82326172 305.30027344 126.30078125 305.3515625 C133.81855269 305.45247218 141.14389627 304.45180355 146.94433594 299.25952148 C151.92825574 293.82273138 153.48701531 288.89214304 153.3125 281.5625 C152.62334593 275.9114366 150.1734054 272.20007371 146.25 268.1875 C138.71450053 263.1155292 132.35255386 262.58595827 123.5 262.8125 C122.48679687 262.82603516 121.47359375 262.83957031 120.4296875 262.85351562 C117.95289167 262.88856462 115.47637309 262.94236028 113 263 C113 258.38 113 253.76 113 249 C114.19496094 249.03480469 115.38992188 249.06960937 116.62109375 249.10546875 C128.35029007 249.350803 137.31016231 249.41032017 146.2734375 240.96484375 C163.54799014 221.30624652 153 168.62678217 153 159 C88.98 159 24.96 159 -41 159 Z " fill="#000101" transform="translate(200,0)"/>
<path d="M0 0 C59.4 0 118.8 0 180 0 C180 71 180 71 175 80 C169.2744165 85.7255835 164.83941208 88.07906815 156.6015625 88.1953125 C154.60928083 88.18211858 152.61704513 88.15841495 150.625 88.125 C149.60277344 88.11597656 148.58054687 88.10695313 147.52734375 88.09765625 C145.01798478 88.0742043 142.50911664 88.04138355 140 88 C140 90.64 140 93.28 140 96 C135.05 96 130.1 96 125 96 C125 98.31 125 100.62 125 103 C119.39 103 113.78 103 108 103 C108 100.36 108 97.72 108 95 C103.05 95 98.1 95 93 95 C93 92.69 93 90.38 93 88 C91.98824203 88.01776489 90.97648407 88.03552979 89.93406677 88.05383301 C80.3857298 88.21620983 70.83767391 88.33602583 61.28826809 88.41449738 C56.37901072 88.45619828 51.47087035 88.51273084 46.56225586 88.60351562 C41.82241456 88.69062741 37.08364544 88.73831248 32.34306526 88.75901794 C30.53726384 88.77376706 28.73151926 88.80257088 26.92617607 88.84584045 C13.01723562 89.16585627 13.01723562 89.16585627 8.43460083 86.51733398 C-10.86541744 66.2489531 0 12.53278533 0 0 Z " fill="#89DDFE" transform="translate(172,160)"/>
<path d="M0 0 C64.02 0 128.04 0 194 0 C194 22.11 194 44.22 194 67 C193.67 67 193.34 67 193 67 C193 45.22 193 23.44 193 1 C133.6 1 74.2 1 13 1 C8.12343174 40.94731268 8.12343174 40.94731268 22.2998848 86.73416328 C25.34454934 89.00109682 28.57778887 88.96353422 32.20849609 88.88647461 C33.00916504 88.89725037 33.80983398 88.90802612 34.63476562 88.91912842 C37.26527336 88.94640512 39.89292319 88.92469061 42.5234375 88.90234375 C44.35334038 88.91173182 46.18322987 88.92419145 48.01309204 88.93959045 C52.81705777 88.97179433 57.62006815 88.96238211 62.42407227 88.94421387 C67.33099798 88.93304977 72.23767986 88.96136533 77.14453125 88.98632812 C86.76319131 89.0294582 96.38130446 89.028612 106 89 C106 91.31 106 93.62 106 96 C110.95 96 115.9 96 121 96 C121 98.64 121 101.28 121 104 C126.61 104 132.22 104 138 104 C138 101.69 138 99.38 138 97 C142.95 97 147.9 97 153 97 C153 94.36 153 91.72 153 89 C159.27 89 165.54 89 172 89 C172 89.33 172 89.66 172 90 C166.06 90 160.12 90 154 90 C154 94.62 154 99.24 154 104 C155.47210938 103.95359375 156.94421875 103.9071875 158.4609375 103.859375 C160.43227119 103.82182579 162.40362707 103.78542904 164.375 103.75 C165.34050781 103.71648437 166.30601562 103.68296875 167.30078125 103.6484375 C174.81855269 103.54752782 182.14389627 104.54819645 187.94433594 109.74047852 C192.92825574 115.17726862 194.48701531 120.10785696 194.3125 127.4375 C193.62334593 133.0885634 191.1734054 136.79992629 187.25 140.8125 C179.71450053 145.8844708 173.35255386 146.41404173 164.5 146.1875 C163.48679687 146.17396484 162.47359375 146.16042969 161.4296875 146.14648438 C158.95289167 146.11143538 156.47637309 146.05763972 154 146 C154 150.62 154 155.24 154 160 C160.93 160 167.86 160 175 160 C175 160.33 175 160.66 175 161 C167.74 161 160.48 161 153 161 C153 158.36 153 155.72 153 153 C148.05 153 143.1 153 138 153 C138 150.36 138 147.72 138 145 C132.39 145 126.78 145 121 145 C121 147.64 121 150.28 121 153 C116.05 153 111.1 153 106 153 C106 155.64 106 158.28 106 161 C104.94843719 160.99254257 103.89687439 160.98508514 102.81344604 160.97740173 C92.89639357 160.91294333 82.98023398 160.89581089 73.06300163 160.92484188 C67.96443009 160.93825064 62.8670001 160.93506938 57.76855469 160.89379883 C52.84668597 160.85457088 47.9266168 160.85915095 43.00473404 160.89392281 C41.12848107 160.89951557 39.25211256 160.88940434 37.37603378 160.86323357 C27.38345914 160.33306814 27.38345914 160.33306814 18.51812744 163.93630981 C13.7612654 170.7862438 12.9490588 178.8695367 14 187 C16.64558856 194.00263508 16.64558856 194.00263508 21 200 C23.61600453 200.12507482 26.20691934 200.18605405 28.82446289 200.20532227 C30.05363182 200.22017166 30.05363182 200.22017166 31.30763245 200.23532104 C34.02927717 200.26703055 36.75093939 200.29173062 39.47265625 200.31640625 C41.35453253 200.33696763 43.23640411 200.35796388 45.11827087 200.37937927 C50.08143311 200.43468426 55.0446376 200.48405623 60.00787354 200.53222656 C65.06843851 200.58238022 70.1289418 200.63809824 75.18945312 200.69335938 C85.12624945 200.80104395 95.06309923 200.90246589 105 201 C105 201.33 105 201.66 105 202 C93.6644613 202.09282454 82.32901356 202.16382831 70.99317169 202.20724869 C65.72903484 202.22809205 60.4651587 202.2563504 55.20117188 202.30175781 C50.11776682 202.34533135 45.034612 202.36916156 39.95103455 202.37950897 C38.0150102 202.38687969 36.07899901 202.40127298 34.14308167 202.42292023 C31.42386659 202.45210728 28.70567552 202.45594964 25.98632812 202.45410156 C25.19222534 202.46848267 24.39812256 202.48286377 23.57995605 202.49768066 C16.54537681 202.44620537 11.48233635 200.15135817 6.1875 195.5625 C1.22394906 189.74805461 0.4516377 185.72228575 0.65625 178.16015625 C1.39157851 171.4001476 5.01711972 167.59182773 10.0234375 163.26171875 C15.32907743 159.87491698 20.59495334 159.71781287 26.66748047 159.77294922 C27.51691727 159.77265717 28.36635406 159.77236511 29.24153137 159.77206421 C32.03352269 159.77345131 34.82524312 159.78898322 37.6171875 159.8046875 C39.5591721 159.80841983 41.50115859 159.81126577 43.44314575 159.81326294 C48.54277793 159.82088202 53.64229534 159.8405157 58.74188232 159.8626709 C63.95030159 159.8831665 69.15873949 159.89227259 74.3671875 159.90234375 C84.57817529 159.92376322 94.78907809 159.95787834 105 160 C105 155.38 105 150.76 105 146 C103.91529419 146.00888245 102.83058838 146.01776489 101.7130127 146.0269165 C91.47312694 146.10812705 81.23330684 146.16802526 70.99317169 146.20724869 C65.72903484 146.22809205 60.4651587 146.2563504 55.20117188 146.30175781 C50.11776682 146.34533135 45.034612 146.36916156 39.95103455 146.37950897 C38.0150102 146.38687969 36.07899901 146.40127298 34.14308167 146.42292023 C31.42386659 146.45210728 28.70567552 146.45594964 25.98632812 146.45410156 C25.19222534 146.46848267 24.39812256 146.48286377 23.57995605 146.49768066 C16.90137554 146.44881038 11.68775855 144.44341687 6.72265625 139.9296875 C5.90087891 138.91261719 5.90087891 138.91261719 5.0625 137.875 C4.21365234 136.85019531 4.21365234 136.85019531 3.34765625 135.8046875 C-0.4733869 130.68781233 0.51183964 124.10897825 1 118 C3.55466441 112.27755172 8.7453643 107.34488729 14.58181763 104.93313599 C18.72038605 103.80334047 22.40210842 103.73422119 26.66748047 103.77294922 C27.51691727 103.77265717 28.36635406 103.77236511 29.24153137 103.77206421 C32.03352269 103.77345131 34.82524312 103.78898322 37.6171875 103.8046875 C39.5591721 103.80841983 41.50115859 103.81126577 43.44314575 103.81326294 C48.54277793 103.82088202 53.64229534 103.8405157 58.74188232 103.8626709 C63.95030159 103.8831665 69.15873949 103.89227259 74.3671875 103.90234375 C84.57817529 103.92376322 94.78907809 103.95787834 105 104 C105 99.38 105 94.76 105 90 C103.96762711 90.00888245 102.93525421 90.01776489 101.87159729 90.0269165 C92.11765913 90.10818693 82.36379015 90.1680538 72.60958958 90.20724869 C67.5954579 90.22807701 62.5816007 90.25630745 57.56762695 90.30175781 C52.72411864 90.34538559 47.88087349 90.36917284 43.03718376 90.37950897 C41.19408975 90.38687004 39.35100928 90.40124428 37.50802803 90.42292023 C25.3565873 90.56008604 15.91585476 90.29696849 6.50390625 81.71484375 C-10.87295523 61.90070819 0 8.48140138 0 0 Z " fill="#2FB2E5" transform="translate(159,159)"/>
<path d="M0 0 C0.86608887 -0.04131546 1.73217773 -0.08263092 2.62451172 -0.12519836 C5.40878076 -0.22817198 8.18658268 -0.26604195 10.97265625 -0.28125 C12.38117355 -0.29579727 12.38117355 -0.29579727 13.81814575 -0.31063843 C31.51057929 -0.3146387 31.51057929 -0.3146387 37.50390625 4.79296875 C40.65192151 8.46101013 42.8637835 12.52213105 44.89208984 16.89355469 C46.57772325 20.32242538 48.86330073 23.100304 51.28515625 26.03125 C52.8687527 28.09354799 54.45208945 30.15604541 56.03515625 32.21875 C57.70124878 34.38585847 59.36820824 36.55229953 61.03515625 38.71875 C61.8685053 39.80207124 62.70183866 40.88540456 63.53515625 41.96875 C63.94765625 42.505 64.36015625 43.04125 64.78515625 43.59375 C66.03515625 45.21875 67.28515625 46.84375 68.53515625 48.46875 C69.1535437 49.2726416 69.1535437 49.2726416 69.78442383 50.09277344 C70.62023001 51.17933779 71.4560046 52.26592645 72.29174805 53.35253906 C74.33699261 56.01163548 76.38285616 58.6702494 78.4296875 61.328125 C80.05374132 63.4375584 81.67611078 65.54820318 83.296875 67.66015625 C85.37273791 70.3633703 87.46234559 73.05561802 89.5546875 75.74609375 C90.75660751 77.29940404 91.95843134 78.85278876 93.16015625 80.40625 C93.74128174 81.1497168 94.32240723 81.89318359 94.92114258 82.65917969 C95.45634521 83.35301758 95.99154785 84.04685547 96.54296875 84.76171875 C97.26444092 85.6902063 97.26444092 85.6902063 98.00048828 86.63745117 C99.03515625 88.21875 99.03515625 88.21875 99.03515625 90.21875 C40.95515625 90.21875 -17.12484375 90.21875 -76.96484375 90.21875 C-74.5958737 86.27046658 -72.21639242 82.83229564 -69.40234375 79.21875 C-68.50513681 78.0625555 -67.60800345 76.90630389 -66.7109375 75.75 C-66.25444824 75.16347656 -65.79795898 74.57695312 -65.32763672 73.97265625 C-63.19615768 71.22945571 -61.08094199 68.47382036 -58.96484375 65.71875 C-58.13159705 64.63535003 -57.29826349 63.55201686 -56.46484375 62.46875 C-56.05234375 61.9325 -55.63984375 61.39625 -55.21484375 60.84375 C-43.33984375 45.40625 -43.33984375 45.40625 -31.46484375 29.96875 C-31.05194092 29.43193604 -30.63903809 28.89512207 -30.21362305 28.34204102 C-29.38451619 27.26428314 -28.55525315 26.1866454 -27.72583008 25.10913086 C-25.5765018 22.31648347 -23.43034465 19.52147912 -21.2890625 16.72265625 C-20.84755859 16.14644531 -20.40605469 15.57023437 -19.95117188 14.9765625 C-18.72964148 13.38214387 -17.5093113 11.78680593 -16.2890625 10.19140625 C-15.52207031 9.21042969 -14.75507813 8.22945312 -13.96484375 7.21875 C-12.93278809 5.67948853 -12.93278809 5.67948853 -11.87988281 4.10913086 C-8.55020217 0.15877811 -4.93312562 0.1568795 0 0 Z " fill="#B9EFFE" transform="translate(244.96484375,53.78125)"/>
<path d="M0 0 C5.61 0 11.22 0 17 0 C17 2.64 17 5.28 17 8 C21.95 8 26.9 8 32 8 C32 10.64 32 13.28 32 16 C33.15616821 15.95286865 33.15616821 15.95286865 34.33569336 15.90478516 C37.86932351 15.77912376 41.40248229 15.70172907 44.9375 15.625 C46.14986328 15.57472656 47.36222656 15.52445312 48.61132812 15.47265625 C56.70493812 15.34105284 61.99242043 16.36965444 68 22 C72.33550858 27.03338635 73.36784348 31.88540266 73.2734375 38.37109375 C72.57556511 45.08063833 69.0383862 49.47035773 64.07421875 53.7734375 C57.45782324 57.68595763 50.51413652 57.24526229 43.0625 57.125 C41.99708984 57.11597656 40.93167969 57.10695313 39.83398438 57.09765625 C37.22241966 57.07423414 34.61133063 57.04143452 32 57 C32 59.31 32 61.62 32 64 C27.05 64 22.1 64 17 64 C17 66.31 17 68.62 17 71 C11.39 71 5.78 71 0 71 C0 68.69 0 66.38 0 64 C-4.95 64 -9.9 64 -15 64 C-15.495 60.535 -15.495 60.535 -16 57 C-17.03903473 57.00745743 -18.07806946 57.01491486 -19.14859009 57.02259827 C-28.94791623 57.08705915 -38.74633875 57.10418805 -48.54584694 57.07515812 C-53.58388941 57.06174983 -58.62077661 57.06492856 -63.65869141 57.10620117 C-68.52221253 57.14543174 -73.3839126 57.14084719 -78.24744797 57.10607719 C-80.10137248 57.10048481 -81.95541394 57.11059393 -83.80916214 57.13676643 C-98.30241443 57.32634119 -98.30241443 57.32634119 -102.43328857 54.09884644 C-104.05608699 51.74964587 -105.06427285 49.69015191 -106 47 C-106.36380768 46.13556778 -106.72761536 45.27113556 -107.10244751 44.38050842 C-109.5223901 37.96228354 -108.60045159 30.20466548 -106.14453125 23.9140625 C-104.36562989 20.93910801 -102.67845974 18.21806361 -100 16 C-96.93852074 15.42298221 -94.67926334 15.23416386 -91.62963867 15.31884766 C-90.38496323 15.31753342 -90.38496323 15.31753342 -89.11514282 15.31619263 C-86.38178226 15.32036148 -83.65089863 15.36697725 -80.91796875 15.4140625 C-79.01940756 15.42525721 -77.120829 15.4337961 -75.22224426 15.43978882 C-70.23230894 15.46266557 -65.24342643 15.52157886 -60.25390625 15.5880127 C-55.15965009 15.64946013 -50.0652233 15.67680909 -44.97070312 15.70703125 C-34.98000692 15.7713232 -24.99009111 15.87368878 -15 16 C-15 13.36 -15 10.72 -15 8 C-10.05 8 -5.1 8 0 8 C0 5.36 0 2.72 0 0 Z " fill="#89DDFE" transform="translate(280,304)"/>
<path d="M0 0 C1.3366571 -0.00861053 1.3366571 -0.00861053 2.70031738 -0.01739502 C4.57969716 -0.02146828 6.45916249 -0.01046359 8.33837891 0.01464844 C11.2105922 0.04678373 14.07717987 0.01494164 16.94921875 -0.0234375 C18.77865822 -0.01947247 20.60809419 -0.01178474 22.4375 0 C23.72049988 -0.01821808 23.72049988 -0.01821808 25.02941895 -0.0368042 C30.82729472 0.09952588 30.82729472 0.09952588 33.40454102 2.11560059 C36.71875 5.93323739 36.71875 5.93323739 36.71875 8.796875 C35.53958008 8.74861572 34.36041016 8.70035645 33.14550781 8.65063477 C28.7171122 8.48986294 24.29188765 8.43068204 19.86083984 8.40014648 C17.95368823 8.37326025 16.04670075 8.31980856 14.14111328 8.23803711 C3.44802772 7.54449326 3.44802772 7.54449326 -6.27191162 11.20007324 C-9.86819335 14.69204174 -12.56919198 18.70596652 -15.16015625 22.97616577 C-16.59018659 25.29860263 -18.23600743 27.40080478 -19.9453125 29.5234375 C-20.93397916 30.82163325 -21.92101463 32.12107323 -22.90625 33.421875 C-23.98816647 34.84253534 -25.07019918 36.26310716 -26.15234375 37.68359375 C-26.67425293 38.3698584 -27.19616211 39.05612305 -27.73388672 39.76318359 C-30.13949823 42.92486613 -32.55188856 46.08128663 -34.96875 49.234375 C-35.75636719 50.26433594 -36.54398438 51.29429688 -37.35546875 52.35546875 C-39.28125 54.796875 -39.28125 54.796875 -41.28125 56.796875 C-42.60125 56.796875 -43.92125 56.796875 -45.28125 56.796875 C-45.08015625 58.00730469 -45.08015625 58.00730469 -44.875 59.2421875 C-45.4821973 64.5551639 -48.4702566 67.61057333 -51.78125 71.671875 C-52.71130859 72.8475 -52.71130859 72.8475 -53.66015625 74.046875 C-55.18791991 75.97420762 -56.72821362 77.88989375 -58.28125 79.796875 C-57.50856718 79.78950066 -56.73588436 79.78212631 -55.93978691 79.7745285 C-37.1361062 79.59783073 -18.33259123 79.46545894 0.47174263 79.38237762 C9.56544947 79.34113163 18.65860205 79.28490313 27.75195312 79.19335938 C35.67805344 79.11360452 43.60375237 79.06200546 51.5302428 79.04416704 C55.72726244 79.03373963 59.92313385 79.00924941 64.11978531 78.95103455 C68.07144569 78.89666311 72.02148704 78.87999495 75.97348595 78.89201355 C77.42235686 78.88981558 78.8712828 78.8739385 80.31982994 78.8432312 C91.24322734 78.62306023 91.24322734 78.62306023 94.94588852 81.56861877 C98.71875 86.41438787 98.71875 86.41438787 98.71875 89.796875 C40.63875 89.796875 -17.44125 89.796875 -77.28125 89.796875 C-74.91227995 85.84859158 -72.53279867 82.41042064 -69.71875 78.796875 C-68.82154306 77.6406805 -67.9244097 76.48442889 -67.02734375 75.328125 C-66.57085449 74.74160156 -66.11436523 74.15507812 -65.64404297 73.55078125 C-63.51256393 70.80758071 -61.39734824 68.05194536 -59.28125 65.296875 C-58.4480033 64.21347503 -57.61466974 63.13014186 -56.78125 62.046875 C-56.36875 61.510625 -55.95625 60.974375 -55.53125 60.421875 C-43.65625 44.984375 -43.65625 44.984375 -31.78125 29.546875 C-31.36834717 29.01006104 -30.95544434 28.47324707 -30.5300293 27.92016602 C-29.70092244 26.84240814 -28.8716594 25.7647704 -28.04223633 24.68725586 C-25.89290805 21.89460847 -23.7467509 19.09960412 -21.60546875 16.30078125 C-21.16396484 15.72457031 -20.72246094 15.14835937 -20.26757812 14.5546875 C-19.04604773 12.96026887 -17.82571755 11.36493093 -16.60546875 9.76953125 C-15.83847656 8.78855469 -15.07148438 7.80757812 -14.28125 6.796875 C-13.25898315 5.24456177 -13.25898315 5.24456177 -12.21606445 3.66088867 C-8.80385243 -0.38915436 -5.01018089 -0.07114254 0 0 Z " fill="#89DCFC" transform="translate(245.28125,54.203125)"/>
<path d="M0 0 C26.73 0 53.46 0 81 0 C81 8.25 81 16.5 81 25 C54.27 25 27.54 25 0 25 C0 16.75 0 8.5 0 0 Z " fill="#FE6142" transform="translate(215,15)"/>
<path d="M0 0 C-0.72316406 1.08667969 -0.72316406 1.08667969 -1.4609375 2.1953125 C-2.09257812 3.16210938 -2.72421875 4.12890625 -3.375 5.125 C-4.31472656 6.55199219 -4.31472656 6.55199219 -5.2734375 8.0078125 C-8.42319277 13.46643815 -9.29880247 18.35757952 -9.29052734 24.59082031 C-9.29724457 25.32665848 -9.30396179 26.06249664 -9.31088257 26.82063293 C-9.3297928 29.23986675 -9.33378349 31.65882199 -9.3359375 34.078125 C-9.34237133 35.77195344 -9.34910012 37.46578078 -9.35610962 39.15960693 C-9.36806572 42.70685398 -9.37179227 46.25400377 -9.37060547 49.80126953 C-9.37040262 54.32473935 -9.39767688 58.84757853 -9.43214989 63.3708992 C-9.45449902 66.86957608 -9.45844053 70.36810326 -9.45738602 73.86684418 C-9.459731 75.53325315 -9.46849173 77.19966696 -9.48405075 78.86600494 C-9.5809522 90.31788582 -8.56482611 99.52229048 -1.75 109.125 C-1.22921875 109.87007813 -0.7084375 110.61515625 -0.171875 111.3828125 C0.21484375 111.91648437 0.6015625 112.45015625 1 113 C-7.56624933 111.55325567 -12.85097408 108.62134354 -18.60546875 102.07421875 C-22.28085073 96.60747413 -23.3766697 91.99904822 -23.40405273 85.44750977 C-23.41091599 84.72782013 -23.41777924 84.00813049 -23.42485046 83.26663208 C-23.44302255 80.90801783 -23.43929497 78.55007489 -23.43359375 76.19140625 C-23.43816019 74.53905524 -23.44346713 72.88670613 -23.44947815 71.23435974 C-23.45839041 67.77880109 -23.45600774 64.32347379 -23.44604492 60.86791992 C-23.43455775 56.45521906 -23.454772 52.04331876 -23.48396206 47.630723 C-23.50237083 44.22046395 -23.50202234 40.8103951 -23.49632454 37.4000988 C-23.49617189 35.77391372 -23.50216895 34.14771528 -23.51461601 32.52157784 C-23.57856604 22.79802147 -23.62261662 15.20974681 -16.81640625 7.5390625 C-15.70072266 6.59160156 -15.70072266 6.59160156 -14.5625 5.625 C-13.82128906 4.97789062 -13.08007812 4.33078125 -12.31640625 3.6640625 C-8.26309407 0.75223959 -4.98507099 -0.2848612 0 0 Z " fill="#0095C3" transform="translate(182,376)"/>
<path d="M0 0 C64.02 0 128.04 0 194 0 C194 22.11 194 44.22 194 67 C193.67 67 193.34 67 193 67 C193 45.22 193 23.44 193 1 C133.6 1 74.2 1 13 1 C8.4246523 40.91074665 8.4246523 40.91074665 21.25 85.625 C22.03117187 86.60339844 22.03117187 86.60339844 22.828125 87.6015625 C23.21484375 88.06304687 23.6015625 88.52453125 24 89 C16.70385018 88.96622153 12.23078915 87.09373791 7 82 C-11.45493851 61.10938432 0 18.90885268 0 0 Z " fill="#35ABDA" transform="translate(159,159)"/>
<path d="M0 0 C2.97 0 5.94 0 9 0 C9 5.28 9 10.56 9 16 C32.76 16 56.52 16 81 16 C81 18.97 81 21.94 81 25 C54.27 25 27.54 25 0 25 C0 16.75 0 8.5 0 0 Z " fill="#D60026" transform="translate(215,15)"/>
<path d="M0 0 C0.8494368 -0.00029205 1.6988736 -0.00058411 2.5740509 -0.00088501 C5.36604222 0.00050209 8.15776265 0.016034 10.94970703 0.03173828 C12.89169163 0.03547062 14.83367812 0.03831655 16.77566528 0.04031372 C21.87529746 0.04793281 26.97481487 0.06756648 32.07440186 0.08972168 C37.28282112 0.11021728 42.49125902 0.11932338 47.69970703 0.12939453 C57.91069482 0.150814 68.12159762 0.18492912 78.33251953 0.22705078 C78.33251953 0.55705078 78.33251953 0.88705078 78.33251953 1.22705078 C77.28904358 1.2284758 76.24556763 1.22990082 75.17047119 1.23136902 C65.3411189 1.24803181 55.51218099 1.29078327 45.68304825 1.35914135 C40.62962142 1.39344591 35.57649801 1.41852671 30.52294922 1.42260742 C25.64677235 1.42688295 20.77128036 1.45528349 15.89531708 1.50048256 C14.03421771 1.51348149 12.17303648 1.51775678 10.31189728 1.51320457 C7.70636362 1.50831545 5.10284472 1.53431365 2.49755859 1.56762695 C1.34093719 1.55468849 1.34093719 1.55468849 0.16094971 1.54148865 C-3.64054612 1.62307827 -5.3014763 1.87003227 -8.06842041 4.56904602 C-12.61290692 12.12302544 -13.90332686 18.1463283 -12.12841797 26.87939453 C-10.73362435 31.97575582 -9.12136199 36.13454996 -5.66748047 40.22705078 C-2.68269653 40.84474206 -0.48977339 41.04734644 2.49755859 41 C3.72738464 41.0159446 3.72738464 41.0159446 4.98205566 41.0322113 C7.68804146 41.06028334 10.3920795 41.04619858 13.09814453 41.03173828 C14.9757457 41.04298706 16.8533328 41.05686711 18.730896 41.07327271 C23.6695652 41.10935349 28.6076159 41.10967884 33.54638672 41.1026001 C38.58718982 41.10168808 43.62776001 41.13453295 48.66845703 41.16455078 C58.55654263 41.21845314 68.44430328 41.23459 78.33251953 41.22705078 C78.33251953 41.55705078 78.33251953 41.88705078 78.33251953 42.22705078 C66.99698084 42.31987532 55.66153309 42.39087909 44.32569122 42.43429947 C39.06155437 42.45514283 33.79767823 42.48340118 28.53369141 42.52880859 C23.45028635 42.57238213 18.36713153 42.59621234 13.28355408 42.60655975 C11.34752974 42.61393047 9.41151854 42.62832376 7.4756012 42.64997101 C4.75638613 42.67915806 2.03819505 42.68300042 -0.68115234 42.68115234 C-1.47525513 42.69553345 -2.26935791 42.70991455 -3.08752441 42.72473145 C-9.76610493 42.67586116 -14.97972192 40.67046765 -19.94482422 36.15673828 C-20.49267578 35.47869141 -21.04052734 34.80064453 -21.60498047 34.10205078 C-22.17087891 33.41884766 -22.73677734 32.73564453 -23.31982422 32.03173828 C-27.14086737 26.91486311 -26.15564083 20.33602904 -25.66748047 14.22705078 C-23.11281606 8.5046025 -17.92211617 3.57193807 -12.08566284 1.16018677 C-7.94709442 0.03039125 -4.26537205 -0.03872803 0 0 Z " fill="#0785AE" transform="translate(185.66748046875,262.77294921875)"/>
<path d="M0 0 C5.28 0 10.56 0 16 0 C16 4.95 16 9.9 16 15 C10.72 15 5.44 15 0 15 C0 10.05 0 5.1 0 0 Z " fill="#FAFDFE" transform="translate(280,360)"/>
<path d="M0 0 C5.28 0 10.56 0 16 0 C16 4.95 16 9.9 16 15 C10.72 15 5.44 15 0 15 C0 10.05 0 5.1 0 0 Z " fill="#FAFDFE" transform="translate(280,304)"/>
<path d="M0 0 C5.28 0 10.56 0 16 0 C16 4.95 16 9.9 16 15 C10.72 15 5.44 15 0 15 C0 10.05 0 5.1 0 0 Z " fill="#FBFDFE" transform="translate(280,248)"/>
<path d="M0 0 C5.28 0 10.56 0 16 0 C16 4.95 16 9.9 16 15 C10.72 15 5.44 15 0 15 C0 10.05 0 5.1 0 0 Z " fill="#FDFEFF" transform="translate(200,112)"/>
<path d="M0 0 C5.28 0 10.56 0 16 0 C16 4.95 16 9.9 16 15 C10.72 15 5.44 15 0 15 C0 10.05 0 5.1 0 0 Z " fill="#FCFEFF" transform="translate(216,96)"/>
</svg>
