<?xml version="1.0" encoding="UTF-8"?>
<svg version="1.1" xmlns="http://www.w3.org/2000/svg" width="500" height="500">
<path d="M0 0 C0.64495445 -0.00350607 1.2899089 -0.00701215 1.95440742 -0.01062447 C4.11842947 -0.01993818 6.28218239 -0.01501532 8.44621563 -0.01015663 C10.01225573 -0.01389291 11.57829397 -0.01849434 13.14432925 -0.02388728 C17.450207 -0.03613547 21.75600715 -0.03585467 26.06189835 -0.03349853 C30.70482753 -0.03309082 35.34773167 -0.04412509 39.99064922 -0.05361366 C49.08797491 -0.07023459 58.18527467 -0.0757237 67.28261427 -0.07683842 C74.67659565 -0.07778837 82.07056848 -0.08189603 89.46454716 -0.08823967 C110.42274625 -0.10585504 131.38092485 -0.11507807 152.33913139 -0.11357872 C153.46926091 -0.11349881 154.59939042 -0.1134189 155.76376629 -0.11333656 C157.46102772 -0.11321392 157.46102772 -0.11321392 159.19257727 -0.1130888 C177.53242571 -0.11227581 195.87219205 -0.13141602 214.21201674 -0.1596133 C233.03822612 -0.18833025 251.86439543 -0.20215425 270.69062728 -0.20042574 C281.26213401 -0.19976143 291.83355467 -0.20527174 302.40504169 -0.22678185 C311.40559341 -0.24497799 320.40602003 -0.24935386 329.40658215 -0.235763 C333.99897486 -0.22922544 338.59112745 -0.22914452 343.18349743 -0.2464695 C347.38864146 -0.26217051 351.59335442 -0.25936715 355.79848775 -0.24190123 C357.3186609 -0.23882477 358.83886599 -0.24248808 360.35900149 -0.25362138 C369.35489622 -0.31513584 376.23898817 -0.06115488 383.46078777 5.89789391 C383.89777996 6.42898766 384.33477215 6.96008141 384.78500652 7.50726891 C385.45983074 8.28844078 385.45983074 8.28844078 386.14828777 9.08539391 C390.20593302 15.74041089 390.90928505 21.73648352 390.85345745 29.34599876 C390.85813742 30.33470374 390.86281739 31.32340872 390.86763918 32.34207445 C390.87956359 35.64068569 390.87014171 38.93887951 390.86069012 42.23749352 C390.86475697 44.60827946 390.87009948 46.97906351 390.87662029 49.34984398 C390.89028684 55.7795689 390.88499766 62.20914926 390.87548304 68.63887668 C390.87014389 72.65721863 390.8711577 76.67554216 390.87395382 80.6938858 C390.87441352 81.3618408 390.87487322 82.02979579 390.87534685 82.71799185 C390.87630607 84.075122 390.87727871 85.43225215 390.87826462 86.78938229 C390.88681126 99.50368304 390.87699615 112.21791881 390.86086352 124.9322089 C390.84746407 135.8295759 390.84978674 146.726847 390.8636198 157.62421227 C390.87969379 170.29277755 390.88598412 182.96128592 390.87678301 195.62985998 C390.87582741 196.98218539 390.8748843 198.33451081 390.87395382 199.68683624 C390.87349099 200.35212462 390.87302817 201.01741299 390.87255131 201.70286162 C390.86996664 206.37952723 390.8744686 211.05614569 390.88139248 215.73280716 C390.89007008 222.03410402 390.88402544 228.33522013 390.86670971 234.6364975 C390.86274898 236.9467406 390.8638718 239.25699895 390.8704977 241.56723595 C390.87871951 244.72554655 390.86838339 247.88328128 390.85345745 251.0415554 C390.86014962 251.95149236 390.86684178 252.86142932 390.87373674 253.79894012 C390.80355007 261.47830308 389.4809892 268.8830578 384.03500652 274.63226891 C383.45879559 275.25875328 382.88258465 275.88523766 382.28891277 276.53070641 C378.08743053 280.5243734 374.99715248 281.82192108 369.22250652 282.94476891 C367.95922527 283.19613609 366.69594402 283.44750328 365.39438152 283.70648766 C363.9480534 283.97912437 363.9480534 283.97912437 362.47250652 284.25726891 C362.15797527 285.38004234 361.84344402 286.50281578 361.51938152 287.65961266 C355.46281514 308.98015421 355.46281514 308.98015421 351.59750652 311.46039391 C347.09322967 313.14949772 342.90330742 312.87935625 338.59750652 311.00726891 C335.70041309 308.62142726 334.63746178 306.57905325 334.17172527 302.84711266 C334.16785809 301.97183922 334.1639909 301.09656578 334.16000652 300.19476891 C334.14324871 299.33754234 334.1264909 298.48031578 334.10922527 297.59711266 C334.64012697 292.71624217 336.18068974 287.99393046 337.47250652 283.25726891 C235.83250652 283.25726891 134.19250652 283.25726891 29.47250652 283.25726891 C30.95750652 288.20726891 30.95750652 288.20726891 32.47250652 293.25726891 C33.15728877 298.6121427 33.61436215 304.206437 30.66000652 308.94476891 C27.8355703 311.93060148 26.16089327 312.2062773 22.09750652 312.50726891 C18.0827376 312.23038829 16.63144261 311.67645413 13.47250652 309.25726891 C11.77719402 306.28851891 11.77719402 306.28851891 10.34750652 302.75726891 C10.0959782 302.14158043 9.84444988 301.52589195 9.58529949 300.89154625 C7.42414227 295.46414234 5.79499515 289.94164984 4.47250652 284.25726891 C3.51151043 284.09291344 3.51151043 284.09291344 2.53110027 283.92523766 C-4.21953415 282.68778902 -9.7577523 281.10376303 -15.52749348 277.25726891 C-15.52749348 276.59726891 -15.52749348 275.93726891 -15.52749348 275.25726891 C-16.18749348 275.25726891 -16.84749348 275.25726891 -17.52749348 275.25726891 C-18.3458679 273.84398762 -19.15695567 272.42648545 -19.96499348 271.00726891 C-20.41745441 270.21836266 -20.86991535 269.42945641 -21.33608723 268.61664391 C-23.13033633 265.06344239 -23.65203304 261.95616822 -23.66171455 257.99798965 C-23.6661724 257.14972732 -23.67063024 256.30146499 -23.67522317 255.42749774 C-23.67503881 254.50046987 -23.67485445 253.573442 -23.6746645 252.61832237 C-23.68017953 251.13532448 -23.68017953 251.13532448 -23.68580598 249.62236702 C-23.69684426 246.29997883 -23.70068692 242.97762191 -23.70449543 239.65521812 C-23.71075998 237.27679406 -23.71740677 234.89837097 -23.72440815 232.51994896 C-23.74363516 225.37579277 -23.75423646 218.23163601 -23.76313594 211.08746117 C-23.7675222 207.72061235 -23.77288815 204.35376509 -23.77812481 200.9869175 C-23.79513543 189.79030433 -23.8096286 178.59369213 -23.81687355 167.39706802 C-23.81878335 164.49272091 -23.8207037 161.5883738 -23.82265949 158.68402672 C-23.8233851 157.6012753 -23.8233851 157.6012753 -23.82412537 156.49665011 C-23.83242196 144.80889791 -23.85775332 133.12124817 -23.89024017 121.43354069 C-23.92334349 109.42585195 -23.94132528 97.41821522 -23.94451779 85.41048062 C-23.94667991 78.67189498 -23.95538459 71.93345876 -23.98097897 65.19491768 C-24.00426347 58.85344047 -24.00849114 52.51223185 -23.99821758 46.17072296 C-23.99772221 43.84637814 -24.00404305 41.52202008 -24.01777363 39.19771576 C-24.03550532 36.01752919 -24.02837937 32.83830521 -24.01524067 29.65811729 C-24.02620992 28.74447375 -24.03717916 27.83083021 -24.04848081 26.8895005 C-23.97519102 19.51081683 -22.26434739 12.65249126 -17.56264973 6.81976891 C-16.91167316 6.30414391 -16.2606966 5.78851891 -15.58999348 5.25726891 C-14.94159504 4.72101891 -14.2931966 4.18476891 -13.62514973 3.63226891 C-9.12403621 0.68181833 -5.34852026 0.00656316 0 0 Z " fill="#95562A" transform="translate(66.52749347686768,101.74273109436035)"/>
<path d="M0 0 C0.33 0.66 0.66 1.32 1 2 C-1 5 -1 5 -3.125 5.6875 C-3.74375 5.790625 -4.3625 5.89375 -5 6 C-4.79375 6.61875 -4.5875 7.2375 -4.375 7.875 C-4.25125 8.57625 -4.1275 9.2775 -4 10 C-6.77579761 12.77579761 -9.30306937 12.86061387 -13.125 13.625 C-14.40632813 13.88539063 -15.68765625 14.14578125 -17.0078125 14.4140625 C-17.99523437 14.60742188 -18.98265625 14.80078125 -20 15 C-20.31453125 16.12277344 -20.6290625 17.24554688 -20.953125 18.40234375 C-27.00969139 39.72288531 -27.00969139 39.72288531 -30.875 42.203125 C-35.37927685 43.89222882 -39.5691991 43.62208735 -43.875 41.75 C-46.77209343 39.36415835 -47.83504474 37.32178435 -48.30078125 33.58984375 C-48.30464844 32.71457031 -48.30851562 31.83929688 -48.3125 30.9375 C-48.32925781 30.08027344 -48.34601563 29.22304688 -48.36328125 28.33984375 C-47.83237955 23.45897327 -46.29181679 18.73666155 -45 14 C-146.64 14 -248.28 14 -353 14 C-352.01 17.3 -351.02 20.6 -350 24 C-349.31521775 29.3548738 -348.85814437 34.94916809 -351.8125 39.6875 C-354.63693622 42.67333258 -356.31161326 42.94900839 -360.375 43.25 C-364.38976892 42.97311938 -365.84106392 42.41918523 -369 40 C-370.6953125 37.03125 -370.6953125 37.03125 -372.125 33.5 C-372.50229248 32.57646729 -372.50229248 32.57646729 -372.88720703 31.63427734 C-375.04836425 26.20687344 -376.67751138 20.68438093 -378 15 C-378.64066406 14.89042969 -379.28132813 14.78085937 -379.94140625 14.66796875 C-386.69204067 13.43052012 -392.23025882 11.84649412 -398 8 C-397.67 7.34 -397.34 6.68 -397 6 C-396.05125 6.350625 -395.1025 6.70125 -394.125 7.0625 C-391.12939828 8.35026777 -391.12939828 8.35026777 -389 7 C-389 7.66 -389 8.32 -389 9 C-388.01 9 -387.02 9 -386 9 C-385.67 10.32 -385.34 11.64 -385 13 C-384.40832031 12.91621094 -383.81664062 12.83242188 -383.20703125 12.74609375 C-378.82501108 12.18136358 -375.33859129 11.97915499 -371 13 C-370.01 12.67 -369.02 12.34 -368 12 C-363.28497783 12.3429107 -360.62876174 13.01923143 -357 16 C-356.01 16 -355.02 16 -354 16 C-354.495 14.515 -354.495 14.515 -355 13 C-262.93 12.67 -170.86 12.34 -76 12 C-75.67 10.68 -75.34 9.36 -75 8 C-73.8869902 7.99453156 -73.8869902 7.99453156 -72.75149536 7.98895264 C-65.7200231 7.95090798 -58.68901187 7.89387086 -51.6578846 7.81609726 C-48.04404143 7.77677718 -44.43043626 7.74451388 -40.81640625 7.72900391 C-37.32124623 7.71373396 -33.82674123 7.67910984 -30.33187485 7.63169098 C-28.36581176 7.60987976 -26.39956329 7.60753519 -24.43338013 7.60565186 C-14.96795688 7.45272802 -7.52123167 5.94477131 0 0 Z " fill="#703F1F" transform="translate(449,371)"/>
<path d="M0 0 C0.71297186 0.35352136 1.42594372 0.70704272 2.16052079 1.07127684 C10.07300682 4.71745602 16.56185432 5.71806204 25.21185303 5.63923645 C26.48800736 5.64759213 27.76416169 5.6559478 29.07898736 5.66455668 C32.58657845 5.68686645 36.09350421 5.67857171 39.60111427 5.6648711 C43.3964962 5.65555081 47.19174674 5.67519187 50.98709106 5.69119263 C57.55127659 5.71496021 64.11527444 5.72065968 70.67949677 5.71384621 C80.17004291 5.70402179 89.66038185 5.72182096 99.15089443 5.74621352 C114.55112175 5.78505177 129.95128955 5.80176301 145.3515625 5.80444336 C160.30536957 5.80709365 175.25910715 5.8202369 190.21289062 5.84741211 C191.13570657 5.84908549 192.05852252 5.85075887 193.00930259 5.85248295 C197.63911739 5.86094285 202.26893178 5.86960819 206.89874601 5.87837565 C245.26581954 5.95076577 283.632863 5.98719701 322 6 C322 6.99 322 7.98 322 9 C331.9 9.33 341.8 9.66 352 10 C352 10.33 352 10.66 352 11 C199.045 11.495 199.045 11.495 43 12 C43 12.66 43 13.32 43 14 C41.125 14.625 41.125 14.625 39 15 C37 13 37 13 36 11 C30.82532052 10.8240431 30.82532052 10.8240431 25.75 11.5625 C23.51165661 12.12208585 22.24095104 11.56023776 20 11 C17.3269414 10.90747105 14.67592507 10.95540125 12 11 C11.67 9.68 11.34 8.36 11 7 C9.948125 6.87625 8.89625 6.7525 7.8125 6.625 C4.52111209 6.08542821 1.96538652 5.48269326 -1 4 C-1.33 3.34 -1.66 2.68 -2 2 C-1.34 2 -0.68 2 0 2 C0 1.34 0 0.68 0 0 Z " fill="#703B18" transform="translate(52,373)"/>
<path d="M0 0 C1.11375 0.350625 2.2275 0.70125 3.375 1.0625 C6.80264476 2.37239331 6.80264476 2.37239331 9 1 C9 1.66 9 2.32 9 3 C9.99 3 10.98 3 12 3 C12.33 4.32 12.66 5.64 13 7 C13.59167969 6.91621094 14.18335937 6.83242188 14.79296875 6.74609375 C19.17498892 6.18136358 22.66140871 5.97915499 27 7 C27.99 6.67 28.98 6.34 30 6 C34.71502217 6.3429107 37.37123826 7.01923143 41 10 C41.99 10 42.98 10 44 10 C43.505 8.515 43.505 8.515 43 7 C145.63 7 248.26 7 354 7 C353.67 7.99 353.34 8.98 353 10 C353 9.34 353 8.68 353 8 C251.36 8 149.72 8 45 8 C45.99 11.3 46.98 14.6 48 18 C48.68478225 23.3548738 49.14185563 28.94916809 46.1875 33.6875 C43.36306378 36.67333258 41.68838674 36.94900839 37.625 37.25 C33.61023108 36.97311938 32.15893608 36.41918523 29 34 C27.3046875 31.03125 27.3046875 31.03125 25.875 27.5 C25.62347168 26.88431152 25.37194336 26.26862305 25.11279297 25.63427734 C22.95163575 20.20687344 21.32248862 14.68438093 20 9 C19.35933594 8.89042969 18.71867187 8.78085937 18.05859375 8.66796875 C11.30795933 7.43052012 5.76974118 5.84649412 0 2 C0 1.34 0 0.68 0 0 Z " fill="#9B775A" transform="translate(51,377)"/>
<path d="M0 0 C0.64201355 0.35273483 1.2840271 0.70546967 1.94549561 1.06889343 C11.69485873 5.81913928 20.67574295 5.73403748 31.328125 5.70703125 C33.1718711 5.72017045 35.01560288 5.73548142 36.85931396 5.75285339 C41.67282817 5.79245661 46.48596372 5.80287781 51.29962158 5.80688477 C56.2272065 5.81626307 61.15457323 5.85370565 66.08203125 5.88867188 C75.72134419 5.95299598 85.36049116 5.98644225 95 6 C94.01 7.32 93.02 8.64 92 10 C177.8 10 263.6 10 352 10 C352 10.33 352 10.66 352 11 C199.045 11.495 199.045 11.495 43 12 C43 12.66 43 13.32 43 14 C41.125 14.625 41.125 14.625 39 15 C37 13 37 13 36 11 C30.82532052 10.8240431 30.82532052 10.8240431 25.75 11.5625 C23.51165661 12.12208585 22.24095104 11.56023776 20 11 C17.3269414 10.90747105 14.67592507 10.95540125 12 11 C11.67 9.68 11.34 8.36 11 7 C9.948125 6.87625 8.89625 6.7525 7.8125 6.625 C4.52111209 6.08542821 1.96538652 5.48269326 -1 4 C-1.33 3.34 -1.66 2.68 -2 2 C-1.34 2 -0.68 2 0 2 C0 1.34 0 0.68 0 0 Z " fill="#663616" transform="translate(52,373)"/>
<path d="M0 0 C1.11375 0.350625 2.2275 0.70125 3.375 1.0625 C6.80264476 2.37239331 6.80264476 2.37239331 9 1 C9 1.66 9 2.32 9 3 C9.99 3 10.98 3 12 3 C12.33 4.32 12.66 5.64 13 7 C15.64 7 18.28 7 21 7 C20.67 7.66 20.34 8.32 20 9 C12.59383479 7.73335203 6.32721319 6.21814212 0 2 C0 1.34 0 0.68 0 0 Z " fill="#9A7962" transform="translate(51,377)"/>
<path d="M0 0 C1 3 1 3 -0.4375 6.1875 C-1.2109375 7.5796875 -1.2109375 7.5796875 -2 9 C-2.66 8.67 -3.32 8.34 -4 8 C-4 7.34 -4 6.68 -4 6 C-4.99 6 -5.98 6 -7 6 C-7 5.34 -7 4.68 -7 4 C-6.34 4 -5.68 4 -5 4 C-4.67 3.01 -4.34 2.02 -4 1 C-1.9375 0.3125 -1.9375 0.3125 0 0 Z " fill="#8B6147" transform="translate(423,400)"/>
<path d="M0 0 C0.33 0.99 0.66 1.98 1 3 C1.66 3 2.32 3 3 3 C2.33035714 11.03571429 2.33035714 11.03571429 -1 15 C-1.02715383 13.25008666 -1.04646551 11.50005055 -1.0625 9.75 C-1.07410156 8.77546875 -1.08570313 7.8009375 -1.09765625 6.796875 C-1.01195577 4.34241322 -0.70706066 2.33831086 0 0 Z " fill="#A78E7C" transform="translate(402,392)"/>
<path d="M0 0 C0.99 0 1.98 0 3 0 C1.4169423 4.2742558 -1.50568404 6.26531794 -5 9 C-5.33 7.68 -5.66 6.36 -6 5 C-5.38125 4.731875 -4.7625 4.46375 -4.125 4.1875 C-1.7004767 3.04443152 -1.7004767 3.04443152 0 0 Z " fill="#8F6D52" transform="translate(450,372)"/>
<path d="M0 0 C2.6875 -0.3125 2.6875 -0.3125 5 0 C5 0.99 5 1.98 5 3 C5.66 3.33 6.32 3.66 7 4 C3.52674819 5.1577506 0.63932552 5.06866652 -3 5 C-1.8125 2.5 -1.8125 2.5 0 0 Z " fill="#A78870" transform="translate(88,409)"/>
<path d="M0 0 C0.66 0.33 1.32 0.66 2 1 C1.34 3.97 0.68 6.94 0 10 C-0.33 9.34 -0.66 8.68 -1 8 C-1.66 7.67 -2.32 7.34 -3 7 C-2.67 5.35 -2.34 3.7 -2 2 C-1.34 2 -0.68 2 0 2 C0 1.34 0 0.68 0 0 Z " fill="#83614A" transform="translate(425,389)"/>
<path d="M0 0 C5.78461538 4.43076923 5.78461538 4.43076923 6.875 7.3125 C6.936875 8.1478125 6.936875 8.1478125 7 9 C6.01 8.67 5.02 8.34 4 8 C4 7.01 4 6.02 4 5 C2.68 5.33 1.36 5.66 0 6 C0 4.02 0 2.04 0 0 Z " fill="#BB957B" transform="translate(447,106)"/>
<path d="M0 0 C0 1.32 0 2.64 0 4 C-0.66 4 -1.32 4 -2 4 C-2.33 4.99 -2.66 5.98 -3 7 C-3.99 7 -4.98 7 -6 7 C-6 4 -6 4 -4.125 1.8125 C-2 0 -2 0 0 0 Z " fill="#B69175" transform="translate(54,106)"/>
<path d="M0 0 C0.61875 0.350625 1.2375 0.70125 1.875 1.0625 C2.57625 1.371875 3.2775 1.68125 4 2 C4.66 1.67 5.32 1.34 6 1 C6.66 1.66 7.32 2.32 8 3 C10.57061311 3.64767793 10.57061311 3.64767793 13 4 C13 4.33 13 4.66 13 5 C4.2404908 5.44539877 4.2404908 5.44539877 0 2 C0 1.34 0 0.68 0 0 Z " fill="#CFBAA8" transform="translate(403,409)"/>
<path d="M0 0 C0.99 0.33 1.98 0.66 3 1 C3 1.66 3 2.32 3 3 C3.99 3 4.98 3 6 3 C5.67 4.32 5.34 5.64 5 7 C4.34 7 3.68 7 3 7 C0 2.61538462 0 2.61538462 0 0 Z " fill="#A98874" transform="translate(46,370)"/>
<path d="M0 0 C1.98 0.495 1.98 0.495 4 1 C4 2.32 4 3.64 4 5 C2.68 4.67 1.36 4.34 0 4 C0 2.68 0 1.36 0 0 Z " fill="#906B51" transform="translate(81,408)"/>
<path d="M0 0 C1.98 0 3.96 0 6 0 C6.33 0.99 6.66 1.98 7 3 C5.125 3.625 5.125 3.625 3 4 C1 2 1 2 0 0 Z " fill="#5C3318" transform="translate(88,384)"/>
<path d="M0 0 C5.66153846 1.47692308 5.66153846 1.47692308 7.375 4.125 C7.684375 5.053125 7.684375 5.053125 8 6 C5.0280615 4.87548273 2.66559313 3.77706209 0 2 C0 1.34 0 0.68 0 0 Z " fill="#9D816B" transform="translate(51,377)"/>
<path d="M0 0 C0.99 0 1.98 0 3 0 C3.33 0.99 3.66 1.98 4 3 C2.35 3.66 0.7 4.32 -1 5 C-0.67 3.35 -0.34 1.7 0 0 Z " fill="#9F714F" transform="translate(55,104)"/>
</svg>
