<?xml version="1.0" encoding="UTF-8"?>
<svg version="1.1" xmlns="http://www.w3.org/2000/svg" width="512" height="512">
<path d="M0 0 C2.41944211 0.72731695 3.39928024 1.555139 4.91015625 3.57421875 C5.80288641 6.70788381 5.70093808 9.42170595 4.91015625 12.57421875 C2.7311686 15.51879666 -0.14379601 17.43518851 -3.08984375 19.57421875 C-4.69453362 20.83748524 -6.29892282 22.1011544 -7.89794922 23.37158203 C-9.69570085 24.79607379 -11.50299037 26.20766971 -13.3125 27.6171875 C-17.09694702 30.5715484 -20.84596655 33.56870787 -24.58984375 36.57421875 C-29.9740316 40.89309715 -35.38653438 45.17343241 -40.8203125 49.4296875 C-45.09824624 52.78474115 -49.34882346 56.17265815 -53.58984375 59.57421875 C-58.97424112 63.8928385 -64.38653132 68.17343001 -69.8203125 72.4296875 C-74.7269695 76.27782973 -79.5982269 80.16904012 -84.45800781 84.07617188 C-87.63221606 86.62417577 -90.82091041 89.14940422 -94.04296875 91.63671875 C-94.68041016 92.13042969 -95.31785156 92.62414062 -95.97460938 93.1328125 C-97.18342151 94.06695214 -98.39547657 94.99691627 -99.61132812 95.921875 C-103.70075119 99.08694327 -106.44477704 101.63901862 -108.08984375 106.57421875 C-108.69307101 112.5059535 -107.9873938 115.82351567 -104.6015625 120.7421875 C-102.35974553 123.45901479 -99.91301063 125.47325735 -97.08984375 127.57421875 C-96.3628125 126.82978516 -96.3628125 126.82978516 -95.62109375 126.0703125 C-94.95078125 125.39097656 -94.28046875 124.71164063 -93.58984375 124.01171875 C-92.94015625 123.35042969 -92.29046875 122.68914062 -91.62109375 122.0078125 C-88.89039048 119.38246043 -86.05446807 116.91143731 -83.1953125 114.42797852 C-79.83685823 111.47102776 -76.59108404 108.397994 -73.33984375 105.32421875 C-67.59902274 99.91932875 -61.8247127 94.55702353 -56.00390625 89.23828125 C-48.13413748 82.04366691 -40.31651589 74.79344005 -32.52734375 67.51171875 C-27.06236239 62.40313409 -21.56785223 57.32921178 -16.046875 52.28125 C-12.90650985 49.40931005 -9.77883175 46.52374895 -6.65234375 43.63671875 C-6.11786621 43.14421631 -5.58338867 42.65171387 -5.03271484 42.14428711 C-2.19436008 39.52705305 0.63269839 36.89879921 3.4453125 34.25390625 C4.02547119 33.71113037 4.60562988 33.16835449 5.20336914 32.60913086 C6.30882842 31.57451206 7.411098 30.53647024 8.50952148 29.49438477 C15.95925746 22.54058256 15.95925746 22.54058256 21.53515625 22.63671875 C24.91015625 23.57421875 24.91015625 23.57421875 26.84765625 25.19921875 C28.37369626 28.610367 28.3471202 30.85422481 27.91015625 34.57421875 C26.25056553 37.1141592 24.1488245 39.04310915 21.91015625 41.07421875 C21.35714844 41.60402344 20.80414063 42.13382813 20.234375 42.6796875 C16.56469384 46.16377559 12.74448564 49.47213801 8.92773438 52.79296875 C5.60199524 55.7291489 2.38361029 58.77671308 -0.83984375 61.82421875 C-6.58066476 67.22910875 -12.3549748 72.59141397 -18.17578125 77.91015625 C-26.04555002 85.10477059 -33.86317161 92.35499745 -41.65234375 99.63671875 C-47.11463837 104.74279189 -52.60610274 109.81458435 -58.125 114.859375 C-61.31162796 117.7734414 -64.48197884 120.70498345 -67.65234375 123.63671875 C-73.43508133 128.98225251 -79.25334113 134.28744684 -85.08984375 139.57421875 C-79.53949172 146.35798234 -73.32542348 152.42944843 -67.08984375 158.57421875 C-63.35226962 155.52313783 -59.9281755 152.51402791 -56.796875 148.83984375 C-53.24824639 144.73194863 -49.56865617 140.76831492 -45.83984375 136.82421875 C-40.43495375 131.08339774 -35.07264853 125.3090877 -29.75390625 119.48828125 C-22.55929191 111.61851248 -15.30906505 103.80089089 -8.02734375 96.01171875 C-2.91875909 90.54673739 2.15516322 85.05222723 7.203125 79.53125 C11.06937768 75.30363891 14.95930576 71.0978998 18.84765625 66.890625 C20.95524187 64.60989687 23.05893179 62.32565216 25.16015625 60.0390625 C25.69390869 59.45890381 26.22766113 58.87874512 26.77758789 58.28100586 C27.79064355 57.17973512 28.80290957 56.07773723 29.81420898 54.97485352 C31.17149779 53.50054485 32.54063012 52.03716684 33.91015625 50.57421875 C34.77769531 49.63835938 35.64523437 48.7025 36.5390625 47.73828125 C38.91015625 45.57421875 38.91015625 45.57421875 42.41015625 44.94921875 C45.91015625 45.57421875 45.91015625 45.57421875 48.91015625 47.63671875 C50.91015625 50.57421875 50.91015625 50.57421875 51.16015625 53.88671875 C49.44157155 58.95654361 46.59370904 61.77041252 42.91015625 65.57421875 C41.51320139 67.08091206 40.12561338 68.5959553 38.73754883 70.11083984 C37.1921999 71.79490905 35.64014064 73.47253845 34.0859375 75.1484375 C31.02217432 78.45227518 27.96543635 81.7625375 24.91015625 85.07421875 C23.90757232 86.16017493 22.90496813 87.24611242 21.90234375 88.33203125 C19.92724833 90.47161087 17.95337502 92.61230793 15.98046875 94.75390625 C10.62303212 100.56721916 5.24663751 106.36195196 -0.15234375 112.13671875 C-5.26095249 117.60167731 -10.334851 123.09621058 -15.3828125 128.6171875 C-19.76192587 133.40559369 -24.17017698 138.1671895 -28.57373047 142.93310547 C-31.07998479 145.64599461 -33.5848485 148.36016707 -36.08984375 151.07421875 C-37.07421198 152.14063125 -38.058587 153.20703748 -39.04296875 154.2734375 C-39.53603516 154.80759277 -40.02910156 155.34174805 -40.53710938 155.89208984 C-45.0546875 160.78613281 -49.57226562 165.68017578 -54.08984375 170.57421875 C-50.03525165 175.86152567 -46.00675652 180.73404725 -39.078125 181.91796875 C-34.27657593 182.13746814 -31.14564866 180.99536465 -27.08984375 178.57421875 C-25.18968051 176.64594659 -23.5191867 174.79855264 -21.83984375 172.69921875 C-21.36659668 172.12405518 -20.89334961 171.5488916 -20.40576172 170.95629883 C-16.8443641 166.5974759 -13.40409262 162.14578554 -10.00097656 157.66259766 C-6.62302213 153.22258473 -3.12280617 148.89154198 0.41015625 144.57421875 C4.31935922 139.79460288 8.16648119 134.98475357 11.91015625 130.07421875 C16.19135881 124.45861539 20.62358435 118.9814656 25.09375 113.515625 C28.43622121 109.41814853 31.70421126 105.27941933 34.91015625 101.07421875 C39.25369342 95.37731192 43.74572037 89.81456736 48.27832031 84.26733398 C51.82879849 79.91869042 55.32247803 75.53388811 58.73828125 71.078125 C59.91015625 69.57421875 59.91015625 69.57421875 60.91015625 68.57421875 C62.87109375 68.37109375 62.87109375 68.37109375 65.28515625 68.32421875 C66.07664062 68.2984375 66.868125 68.27265625 67.68359375 68.24609375 C70.47714455 68.65777492 71.16209862 69.39739227 72.91015625 71.57421875 C73.93404337 75.47833224 73.69923619 79.13916657 71.74707031 82.68945312 C70.10411831 84.83928433 68.36503343 86.83120663 66.53515625 88.82421875 C65.23524606 90.31620011 63.9370792 91.80970209 62.640625 93.3046875 C62.00044434 94.03091309 61.36026367 94.75713867 60.70068359 95.50537109 C58.28562379 98.2958288 56.06856519 101.18896688 53.84765625 104.13671875 C50.12779786 109.02934037 46.30161407 113.81711586 42.41015625 118.57421875 C38.50104428 123.35391156 34.65383403 128.16368036 30.91015625 133.07421875 C26.62895369 138.68982211 22.19672815 144.1669719 17.7265625 149.6328125 C14.38409129 153.73028897 11.11610124 157.86901817 7.91015625 162.07421875 C3.63180025 167.6860883 -0.79713834 173.15987177 -5.26464844 178.62182617 C-8.69382802 182.82525496 -12.05040677 187.07322401 -15.33984375 191.38671875 C-16.92272272 193.44956747 -18.50603756 195.51208184 -20.08984375 197.57421875 C-20.8375 198.55390625 -21.58515625 199.53359375 -22.35546875 200.54296875 C-32.00698188 212.82671273 -43.70194254 221.09663851 -59.21484375 224.19921875 C-68.58928224 225.10642247 -76.65248027 224.37369216 -85.828125 222.25390625 C-93.00574468 220.75821065 -99.63803143 220.79461228 -106.08984375 224.57421875 C-112.27652784 229.33475164 -117.47086597 234.98139685 -122.6015625 240.83203125 C-125.53591262 244.06580485 -128.60838588 247.13199942 -131.71484375 250.19921875 C-135.1023153 253.54774832 -138.44874508 256.87195779 -141.52734375 260.51171875 C-144.83557033 264.41691854 -148.45498116 267.97702801 -152.08984375 271.57421875 C-156.27561673 275.71665514 -160.31287262 279.87688372 -164.11328125 284.37890625 C-167.5869211 288.23698055 -171.32154024 291.84463727 -175.02929688 295.4765625 C-177.79463081 298.20190829 -180.44214135 300.92847008 -182.89453125 303.94140625 C-185.08984375 306.57421875 -185.08984375 306.57421875 -187.08984375 307.57421875 C-188.65337355 307.43987524 -190.21577017 307.29215869 -191.77734375 307.13671875 C-195.09800422 307.07913504 -196.5680299 307.16063296 -199.19921875 309.24609375 C-200.94501043 311.29031136 -202.51865588 313.39456024 -204.08984375 315.57421875 C-204.94255859 316.34378906 -204.94255859 316.34378906 -205.8125 317.12890625 C-206.23402344 317.60585938 -206.65554687 318.0828125 -207.08984375 318.57421875 C-206.92484375 319.66734375 -206.75984375 320.76046875 -206.58984375 321.88671875 C-205.97755206 326.40236996 -206.76343654 327.7144977 -209.08984375 331.57421875 C-210.96752587 333.63308072 -212.82201884 335.54389453 -214.83984375 337.44921875 C-215.93158096 338.50846862 -217.02143576 339.56966217 -218.109375 340.6328125 C-218.62967285 341.14054199 -219.1499707 341.64827148 -219.68603516 342.17138672 C-221.39351478 343.87767853 -222.97192066 345.66636793 -224.52734375 347.51171875 C-227.68994378 351.23379593 -231.11955353 354.64287679 -234.58984375 358.07421875 C-238.0182948 361.46427729 -241.41245117 364.82615883 -244.52734375 368.51171875 C-247.83557033 372.41691854 -251.45498116 375.97702801 -255.08984375 379.57421875 C-260.50479243 384.91887069 -260.50479243 384.91887069 -265.58984375 390.57421875 C-269.44106591 395.13280824 -273.73647506 399.24524046 -277.97436523 403.43920898 C-281.54682608 406.98879693 -284.93588776 410.60579754 -288.1875 414.453125 C-291.41554534 418.05236241 -294.89758085 421.40090086 -298.33447266 424.79931641 C-301.17656775 427.62178265 -303.93974497 430.45005607 -306.52734375 433.51171875 C-310.40050809 438.08379997 -314.70763685 442.21684914 -318.96313477 446.42797852 C-322.65181543 450.09293458 -326.18206719 453.81705382 -329.51953125 457.80859375 C-331.25706217 459.76223548 -333.1518314 461.44542811 -335.08984375 463.19921875 C-340.36042655 468.38840259 -343.05372837 474.9493145 -346.08984375 481.57421875 C-352.88026317 496.05704313 -360.48017793 505.08525598 -375.86328125 510.84765625 C-386.42538896 514.29423876 -400.54705473 514.39972381 -410.71484375 509.82421875 C-411.49859375 509.41171875 -412.28234375 508.99921875 -413.08984375 508.57421875 C-413.93546875 508.16171875 -414.78109375 507.74921875 -415.65234375 507.32421875 C-427.03451921 501.21670997 -434.03813699 491.39505313 -438.1953125 479.37890625 C-441.18264833 466.67294513 -440.15193781 452.39904582 -433.62890625 441.02734375 C-432.19632806 438.80212078 -430.68202832 436.6869252 -429.08984375 434.57421875 C-428.51234375 433.70796875 -427.93484375 432.84171875 -427.33984375 431.94921875 C-421.58444921 425.87408007 -414.79412754 422.3200177 -407.15234375 419.19921875 C-394.89120574 414.09966762 -386.47103178 405.11225588 -377.30078125 395.7890625 C-374.39717143 392.85278078 -371.36414458 390.14153107 -368.2109375 387.4765625 C-364.61246914 384.2492069 -361.26460845 380.76796902 -357.86694336 377.33178711 C-354.4492856 373.8903371 -350.94706166 370.64813224 -347.24609375 367.51171875 C-344.24369692 364.8139129 -341.42723558 361.94378056 -338.58984375 359.07421875 C-334.60207544 355.04123765 -330.5748947 351.18019413 -326.24609375 347.51171875 C-323.24369671 344.81391272 -320.42723793 341.94377837 -317.58984375 339.07421875 C-314.19978257 335.64577047 -310.83790393 332.25161155 -307.15234375 329.13671875 C-303.24714419 325.82849238 -299.68703207 322.20908382 -296.08984375 318.57421875 C-291.92337681 314.36411246 -287.73698973 310.30180665 -283.2109375 306.4765625 C-279.61246914 303.2492069 -276.26460845 299.76796902 -272.86694336 296.33178711 C-269.4492856 292.8903371 -265.94706166 289.64813224 -262.24609375 286.51171875 C-259.24369692 283.8139129 -256.42723558 280.94378056 -253.58984375 278.07421875 C-249.60207544 274.04123765 -245.5748947 270.18019413 -241.24609375 266.51171875 C-238.24369671 263.81391272 -235.42723793 260.94377837 -232.58984375 258.07421875 C-229.19978257 254.64577047 -225.83790393 251.25161155 -222.15234375 248.13671875 C-218.24714419 244.82849238 -214.68703207 241.20908382 -211.08984375 237.57421875 C-206.92337681 233.36411246 -202.73698973 229.30180665 -198.2109375 225.4765625 C-194.61246914 222.2492069 -191.26460845 218.76796902 -187.86694336 215.33178711 C-184.4492856 211.8903371 -180.94706166 208.64813224 -177.24609375 205.51171875 C-173.64447553 202.27548209 -170.28589303 198.79409783 -166.88696289 195.34741211 C-163.86903194 192.30209762 -160.81465492 189.39560233 -157.52734375 186.63671875 C-152.24252249 182.10846138 -149.52958842 177.41300595 -148.08984375 170.57421875 C-147.87604294 165.59147212 -148.4594937 161.29507127 -149.58984375 156.44921875 C-153.27327391 139.24062663 -150.11325739 124.56615256 -141.08984375 109.57421875 C-135.32870895 101.59109558 -127.68820185 95.83268452 -119.91162109 89.95654297 C-116.98670712 87.73718315 -114.10071407 85.46897671 -111.21484375 83.19921875 C-110.64362793 82.75143066 -110.07241211 82.30364258 -109.48388672 81.84228516 C-104.95618128 78.28327468 -100.48763965 74.65466623 -96.02734375 71.01171875 C-90.24117221 66.28586211 -84.37497894 61.69753964 -78.43359375 57.16796875 C-74.59097494 54.21210812 -70.84233065 51.14314068 -67.08984375 48.07421875 C-61.28360502 43.32566298 -55.39878198 38.71568651 -49.43359375 34.16796875 C-45.590974 31.2121074 -41.84235169 28.14311647 -38.08984375 25.07421875 C-32.16011743 20.22526255 -26.16605418 15.48787872 -20.05078125 10.875 C-18.11271752 9.36903755 -16.21844715 7.80452694 -14.37890625 6.1796875 C-9.61054145 1.99086242 -6.48435665 -0.34128193 0 0 Z " fill="#010000" transform="translate(439.08984375,-0.57421875)"/>
<path d="M0 0 C3.86328627 1.5847358 6.28876923 4.05956887 9.203125 7.0078125 C9.6857782 7.49329559 10.1684314 7.97877869 10.66571045 8.47897339 C12.19858562 10.02299866 13.72434004 11.57384824 15.25 13.125 C16.29120361 14.17624009 17.33286541 15.22702657 18.375 16.27734375 C20.92199464 18.84633004 23.46265177 21.42148161 26 24 C25.64341309 24.46833252 25.28682617 24.93666504 24.91943359 25.41918945 C24.45875488 26.04011475 23.99807617 26.66104004 23.5234375 27.30078125 C22.83386963 28.21984253 22.83386963 28.21984253 22.13037109 29.1574707 C20.47438478 31.85676417 20.58864896 33.91486717 21 37 C21.26039063 37.61359375 21.52078125 38.2271875 21.7890625 38.859375 C22 41 22 41 20.234375 43.47265625 C19.41453125 44.32730469 18.5946875 45.18195313 17.75 46.0625 C16.94046875 46.91972656 16.1309375 47.77695312 15.296875 48.66015625 C13.54026291 50.44963014 11.78175521 52.23559955 10 54 C9.01 53.67 8.02 53.34 7 53 C3.73504401 52.24653247 3.73504401 52.24653247 0 53 C-3.21276652 55.30534391 -5.81352136 58.11167502 -8.5 61 C-9.58087891 62.11568359 -9.58087891 62.11568359 -10.68359375 63.25390625 C-14.08768474 66.7934222 -17.38155294 70.41089715 -20.59375 74.125 C-23.89315969 77.93346147 -27.40086201 81.47660187 -31 85 C-35.21237733 89.16400343 -39.27261592 93.35309518 -43.09765625 97.87890625 C-46.32570159 101.47814366 -49.8077371 104.82668211 -53.24462891 108.22509766 C-56.086724 111.0475639 -58.84990122 113.87583732 -61.4375 116.9375 C-64.74572658 120.84269979 -68.36513741 124.40280926 -72 128 C-77.41494868 133.34465194 -77.41494868 133.34465194 -82.5 139 C-86.35122216 143.55858949 -90.64663131 147.67102171 -94.88452148 151.86499023 C-98.45698233 155.41457818 -101.84604401 159.03157879 -105.09765625 162.87890625 C-108.32087332 166.47276019 -111.79732453 169.81655565 -115.22924805 173.2097168 C-118.80662388 176.76221014 -122.20810316 180.39530277 -125.45703125 184.25390625 C-127.0619837 186.07014358 -128.78125421 187.67035367 -130.5625 189.3125 C-136.39379552 195.0785685 -139.46270263 202.49546126 -142.3125 210.0625 C-145.99513675 219.12202171 -152.21241955 225.66053684 -160.859375 230.16015625 C-168.41585849 233.12483499 -178.29959435 233.52388741 -185.8125 230.375 C-187.23185783 229.62632774 -188.62905972 228.83403211 -190 228 C-190.69867188 227.5875 -191.39734375 227.175 -192.1171875 226.75 C-198.86523169 222.26828009 -202.32029171 216.04656996 -205.375 208.6875 C-207.25391462 197.60190373 -206.20403785 189.52657945 -200 180 C-197.4375 177 -197.4375 177 -195 175 C-194.30261719 174.37480469 -193.60523438 173.74960937 -192.88671875 173.10546875 C-189.26277164 170.46229217 -185.51080816 168.98913242 -181.375 167.3125 C-168.91220957 161.98093849 -160.35986799 153.53455383 -150.9921875 143.99609375 C-148.15344171 141.12285853 -145.16993262 138.48233188 -142.08984375 135.87109375 C-139.28089442 133.35616528 -136.64891642 130.68164435 -134 128 C-130.79656494 124.75703466 -127.60892813 121.57063881 -124.125 118.625 C-120.20167692 115.29263772 -116.61791089 111.6558494 -113 108 C-108.8335355 103.78989047 -104.64714594 99.72758786 -100.12109375 95.90234375 C-97.12860779 93.21847513 -94.32566741 90.35765911 -91.5 87.5 C-88.10993619 84.07155449 -84.74806043 80.67739301 -81.0625 77.5625 C-77.15730044 74.25427363 -73.59718832 70.63486507 -70 67 C-65.83353306 62.78989371 -61.64714598 58.7275879 -57.12109375 54.90234375 C-53.52262539 51.67498815 -50.1747647 48.19375027 -46.77709961 44.75756836 C-43.35944185 41.31611835 -39.85721791 38.07391349 -36.15625 34.9375 C-33.15385317 32.23969415 -30.33739183 29.36956181 -27.5 26.5 C-23.52213119 22.47703064 -19.50662502 18.62306817 -15.1875 14.96484375 C-9.90238958 10.21768207 -4.98746242 5.05588797 0 0 Z " fill="#F4CF8F" transform="translate(221,265)"/>
<path d="M0 0 C2.2248543 2.2248543 2.59698555 3.55214911 3.5625 6.5 C5.14712553 10.54454221 6.94398441 13.38737931 9.89257812 16.5690918 C10.69711426 17.4373056 11.50165039 18.30551941 12.33056641 19.20004272 C17.21466779 24.3229554 22.16684122 29.37427515 27.15625 34.39453125 C28.0041082 35.24850274 28.0041082 35.24850274 28.86909485 36.11972618 C31.85269175 39.12398447 34.83941106 42.12509869 37.82861328 45.1237793 C40.89315886 48.1994442 43.94582527 51.28663148 46.99610138 54.37643909 C49.36760533 56.7741807 51.74804151 59.16290493 54.13090515 61.54935265 C55.26008254 62.68336475 56.38591402 63.82071978 57.50813293 64.96161842 C65.14267253 72.71545331 72.28721066 78.97844403 83 82 C83 82.66 83 83.32 83 84 C81.09375 85.40234375 81.09375 85.40234375 78.5 86.9375 C77.6646875 87.44152344 76.829375 87.94554687 75.96875 88.46484375 C69.17027742 91.9803697 63.60876391 93.47516463 55.9375 93.3125 C54.7918457 93.31733398 54.7918457 93.31733398 53.62304688 93.32226562 C48.72742026 93.27619899 44.72420781 92.35807764 40 91 C27.28497335 89.59722125 16.33200223 90.9502462 6.1328125 99.10546875 C-0.37539887 104.88657226 -6.35028091 111.15032977 -11.9921875 117.7734375 C-15.25374089 121.39033523 -18.75053369 124.77047915 -22.21313477 128.19360352 C-26.34470081 132.29623956 -30.27729518 136.5192171 -34 141 C-37.66752005 139.4608199 -39.98580573 137.24514548 -42.765625 134.4296875 C-44.09980469 133.08583984 -44.09980469 133.08583984 -45.4609375 131.71484375 C-46.38132812 130.77769531 -47.30171875 129.84054688 -48.25 128.875 C-49.19484856 127.92011363 -50.14015633 126.96568141 -51.0859375 126.01171875 C-53.39518338 123.67890913 -55.69963203 121.34155914 -58 119 C-56.60537573 115.80865815 -54.99566223 113.80914955 -52.4375 111.4609375 C-51.72779053 110.80279053 -51.01808105 110.14464355 -50.28686523 109.46655273 C-49.15486694 108.43123413 -49.15486694 108.43123413 -48 107.375 C-46.44805753 105.93745053 -44.89727139 104.49865167 -43.34765625 103.05859375 C-42.22254639 102.01421143 -42.22254639 102.01421143 -41.07470703 100.94873047 C-38.46789722 98.50020659 -35.94666758 95.98593468 -33.4375 93.4375 C-30.67615414 90.63410319 -27.87619164 87.98186285 -24.875 85.4375 C-16.12834178 77.82172284 -9.02040008 69.79924921 -7.76611328 57.75390625 C-7.20332172 48.23815677 -7.20332172 48.23815677 -9.0078125 38.984375 C-10.26516979 35.20240268 -10.34272189 31.62904718 -10.3125 27.6875 C-10.30512817 26.55646851 -10.30512817 26.55646851 -10.29760742 25.40258789 C-10.09283375 15.67321316 -7.00318308 7.00318308 0 0 Z " fill="#D8D6D9" transform="translate(314,115)"/>
<path d="M0 0 C3.21524305 1.40844718 5.32183868 3.10344786 7.75 5.625 C8.36359375 6.25664062 8.9771875 6.88828125 9.609375 7.5390625 C10.06828125 8.02117187 10.5271875 8.50328125 11 9 C6.75195351 14.07151396 2.31852848 18.83986469 -2.375 23.5 C-3.04200928 24.16507568 -3.70901855 24.83015137 -4.39624023 25.51538086 C-8.09882531 29.18539586 -11.85995379 32.70696326 -15.84765625 36.06640625 C-19.67958233 39.50888068 -23.24501916 43.22666402 -26.86743164 46.88696289 C-30.39478378 50.43702635 -33.98881816 53.8008981 -37.8125 57.03125 C-40.99820751 59.89838676 -43.98584758 62.95431879 -47 66 C-51.14508331 70.18844192 -55.30916359 74.22670717 -59.8125 78.03125 C-62.99820751 80.89838676 -65.98584758 83.95431879 -69 87 C-73.14508331 91.18844192 -77.30916359 95.22670717 -81.8125 99.03125 C-85.65296637 102.48766973 -89.23154622 106.21302595 -92.86499023 109.88452148 C-96.41457818 113.45698233 -100.03157879 116.84604401 -103.87890625 120.09765625 C-106.87139241 122.78152505 -109.67433026 125.64234306 -112.5 128.5 C-119.21168779 135.28757966 -119.21168779 135.28757966 -122.875 138.375 C-127.69894658 142.45995902 -132.05181051 147.02785269 -136.49584961 151.51538086 C-140.28954743 155.33192941 -144.13298756 158.99972718 -148.25390625 162.46484375 C-150.241847 164.21263058 -152.0438295 166.08905574 -153.875 168 C-160.32968558 174.46717047 -166.838973 178.71011689 -175.4375 181.8125 C-185.46319908 185.53057333 -192.57422362 191.60665185 -197.5625 201.1875 C-199.44229182 205.3858823 -200.98083122 209.51565735 -202 214 C-206.08080458 209.91919542 -206.22188949 204.33498013 -206.5 198.8125 C-206.37111625 190.21694518 -202.96095308 183.46648165 -197.4375 177 C-196.2309375 176.01 -196.2309375 176.01 -195 175 C-194.30261719 174.37480469 -193.60523438 173.74960937 -192.88671875 173.10546875 C-189.26277164 170.46229217 -185.51080816 168.98913242 -181.375 167.3125 C-168.91220957 161.98093849 -160.35986799 153.53455383 -150.9921875 143.99609375 C-148.15344171 141.12285853 -145.16993262 138.48233188 -142.08984375 135.87109375 C-139.28089442 133.35616528 -136.64891642 130.68164435 -134 128 C-130.79656494 124.75703466 -127.60892813 121.57063881 -124.125 118.625 C-120.20167692 115.29263772 -116.61791089 111.6558494 -113 108 C-108.8335355 103.78989047 -104.64714594 99.72758786 -100.12109375 95.90234375 C-97.12860779 93.21847513 -94.32566741 90.35765911 -91.5 87.5 C-88.10993619 84.07155449 -84.74806043 80.67739301 -81.0625 77.5625 C-77.15730044 74.25427363 -73.59718832 70.63486507 -70 67 C-65.83353306 62.78989371 -61.64714598 58.7275879 -57.12109375 54.90234375 C-53.52262539 51.67498815 -50.1747647 48.19375027 -46.77709961 44.75756836 C-43.35944185 41.31611835 -39.85721791 38.07391349 -36.15625 34.9375 C-33.15385317 32.23969415 -30.33739183 29.36956181 -27.5 26.5 C-23.52213119 22.47703064 -19.50662502 18.62306817 -15.1875 14.96484375 C-9.90238958 10.21768207 -4.98746242 5.05588797 0 0 Z " fill="#E9BB81" transform="translate(221,265)"/>
<path d="M0 0 C2.40804568 2.40804568 3.00768759 4.42203775 4.125 7.625 C4.47820312 8.62789062 4.83140625 9.63078125 5.1953125 10.6640625 C5.46085937 11.43492188 5.72640625 12.20578125 6 13 C5.01 13.33 4.02 13.66 3 14 C-0.4817221 27.05645787 -0.16016998 40.99686483 3.31640625 53.98828125 C5.42477018 63.27713032 4.65233903 72.62827763 0 81 C-2.74611072 84.61023436 -5.78202696 87.80939067 -9 91 C-9.61359375 91.63808594 -10.2271875 92.27617187 -10.859375 92.93359375 C-13.64116609 95.79832815 -16.52329894 98.47402791 -19.5625 101.0625 C-23.57744602 104.51394482 -27.27842022 108.23960258 -31 112 C-42.67040619 123.78027079 -42.67040619 123.78027079 -49 128 C-51.97 125.03 -54.94 122.06 -58 119 C-56.22938688 115.45877376 -55.22267537 114.01753156 -52.4375 111.4609375 C-51.72779053 110.80279053 -51.01808105 110.14464355 -50.28686523 109.46655273 C-49.15486694 108.43123413 -49.15486694 108.43123413 -48 107.375 C-46.44805753 105.93745053 -44.89727139 104.49865167 -43.34765625 103.05859375 C-42.22254639 102.01421143 -42.22254639 102.01421143 -41.07470703 100.94873047 C-38.46789722 98.50020659 -35.94666758 95.98593468 -33.4375 93.4375 C-30.67615414 90.63410319 -27.87619164 87.98186285 -24.875 85.4375 C-16.12834178 77.82172284 -9.02040008 69.79924921 -7.76611328 57.75390625 C-7.20332172 48.23815677 -7.20332172 48.23815677 -9.0078125 38.984375 C-10.26516979 35.20240268 -10.34272189 31.62904718 -10.3125 27.6875 C-10.30512817 26.55646851 -10.30512817 26.55646851 -10.29760742 25.40258789 C-10.09283375 15.67321316 -7.00318308 7.00318308 0 0 Z " fill="#C5C2C6" transform="translate(314,115)"/>
<path d="M0 0 C3.66752005 1.5391801 5.98580573 3.75485452 8.765625 6.5703125 C10.09980469 7.91416016 10.09980469 7.91416016 11.4609375 9.28515625 C12.38132812 10.22230469 13.30171875 11.15945312 14.25 12.125 C15.19484856 13.07988637 16.14015633 14.03431859 17.0859375 14.98828125 C19.39518338 17.32109087 21.69963203 19.65844086 24 22 C22.49147856 25.13261013 20.83787952 27.60762379 18.5625 30.25 C17.96566406 30.95640625 17.36882812 31.6628125 16.75390625 32.390625 C15 34 15 34 12 34 C10.11249967 32.37467859 8.40352394 30.75135611 6.67578125 28.96875 C6.16951706 28.45824097 5.66325287 27.94773193 5.14164734 27.42175293 C3.52476595 25.78806593 1.91861874 24.14426256 0.3125 22.5 C-0.78121031 21.3912453 -1.87560326 20.28316353 -2.97070312 19.17578125 C-5.65512158 16.45826861 -8.3299581 13.73163639 -11 11 C-10.06280291 9.88167191 -9.12198826 8.76637489 -8.1796875 7.65234375 C-7.65616699 7.03093506 -7.13264648 6.40952637 -6.59326172 5.76928711 C-4.59954754 3.55530509 -2.39658203 1.76219267 0 0 Z " fill="#C3C0C4" transform="translate(244,244)"/>
<path d="M0 0 C3.27103891 1.23001876 5.34947357 3.13214563 7.75 5.625 C8.67039063 6.57246094 8.67039063 6.57246094 9.609375 7.5390625 C10.06828125 8.02117187 10.5271875 8.50328125 11 9 C10.29875 9.680625 9.5975 10.36125 8.875 11.0625 C5.72065663 14.20780513 2.86065696 17.5888386 0 21 C-4.13621084 17.6189962 -7.81316569 14.33409466 -11 10 C-9.54474941 8.51780033 -8.085701 7.03932861 -6.625 5.5625 C-5.81289062 4.73878906 -5.00078125 3.91507813 -4.1640625 3.06640625 C-2 1 -2 1 0 0 Z " fill="#B1ACB2" transform="translate(244,244)"/>
</svg>
