<?xml version="1.0" encoding="UTF-8"?>
<svg version="1.1" xmlns="http://www.w3.org/2000/svg" width="500" height="500">
<path d="M0 0 C2.12665416 0.03206011 4.24565591 0.00034324 6.37207031 -0.03808594 C7.73927438 -0.03411879 9.10647373 -0.02642663 10.47363281 -0.01464844 C11.70388184 -0.00788086 12.93413086 -0.00111328 14.20166016 0.00585938 C17.9815782 0.82994681 18.27769788 1.13741681 20.69487667 3.78313065 C25.68275939 8.18118237 31.04201675 7.6157686 37.40882874 7.54412842 C38.68464465 7.55348836 39.96046057 7.56284831 41.27493757 7.57249188 C44.8051537 7.59748985 48.334394 7.58518352 51.86461318 7.56657457 C55.67588632 7.55298441 59.48699307 7.5739603 63.29823303 7.5904541 C70.75974651 7.61712311 78.2208977 7.61137642 85.68242533 7.59397826 C91.74631078 7.5804246 97.81009475 7.57859166 103.87399101 7.58512115 C104.73722295 7.58604055 105.60045489 7.58695995 106.48984538 7.58790721 C108.24350428 7.58982557 109.99716316 7.59177085 111.750822 7.59374276 C128.19152206 7.61084859 144.63202132 7.59118499 161.07268845 7.55894056 C175.17982576 7.53212947 189.28666686 7.5367944 203.39379883 7.56445312 C219.77744039 7.59656019 236.16090605 7.60920568 252.54457468 7.59077954 C254.29145488 7.58886825 256.03833512 7.58698203 257.78521538 7.58512115 C258.64470859 7.5841955 259.50420181 7.58326985 260.38974028 7.58231615 C266.44691776 7.57713531 272.50398367 7.58588038 278.56114388 7.59999847 C285.94198959 7.61682377 293.32245245 7.61227876 300.70325429 7.58031401 C304.46923111 7.56454193 308.23456955 7.55837468 312.00054169 7.57820892 C316.08209903 7.59938026 320.16204383 7.57410876 324.24354553 7.54412842 C326.0311315 7.56420491 326.0311315 7.56420491 327.85483032 7.58468699 C333.61131535 7.64245546 333.61131535 7.64245546 338.74035251 5.42304468 C340.1623745 3.95043869 341.4716268 2.37089174 342.76269531 0.78222656 C346.30200195 0.00585938 346.30200195 0.00585938 350.17285156 -0.01464844 C350.86277695 -0.02038879 351.55270233 -0.02612915 352.26353455 -0.03204346 C353.71323964 -0.03610388 355.1630569 -0.0251889 356.61254883 0 C358.82460137 0.03221791 361.02938063 0.00023968 363.24121094 -0.03808594 C364.6559405 -0.03412162 366.07066555 -0.02643533 367.48535156 -0.01464844 C369.39973022 -0.00449707 369.39973022 -0.00449707 371.3527832 0.00585938 C374.76269531 0.78222656 374.76269531 0.78222656 377.67822266 3.42797852 C379.9631979 7.10486711 380.3944295 8.96840745 380.39160156 13.24707031 C380.39353516 14.45943359 380.39546875 15.67179687 380.39746094 16.92089844 C380.37361328 18.17451172 380.34976562 19.428125 380.32519531 20.71972656 C380.33615234 21.96947266 380.34710938 23.21921875 380.35839844 24.50683594 C380.28307492 33.96244863 380.28307492 33.96244863 377.76110077 37.93543053 C375.28326319 42.15620499 375.2009255 45.79098397 375.25476074 50.60073853 C375.24852078 51.46482122 375.24228082 52.32890391 375.23585176 53.21917093 C375.21995231 56.10196152 375.23251396 58.983903 375.24511719 61.86669922 C375.2396948 63.93841544 375.23257149 66.01012781 375.22387695 68.08183289 C375.20565696 73.69943988 375.2127052 79.31675272 375.2253933 84.9343648 C375.23552502 90.81370361 375.22612738 96.69301736 375.21984863 102.57235718 C375.2125739 112.44314087 375.22215664 122.3138048 375.24121094 132.18457031 C375.26299131 143.59942257 375.25591903 155.01398919 375.23390532 166.42883456 C375.21576081 176.22942223 375.21318801 186.02992386 375.22365999 195.83052289 C375.22989856 201.68412738 375.23072022 207.53759752 375.21751404 213.39119339 C375.20596964 218.89227762 375.21395573 224.39299292 375.23709106 229.89403725 C375.24238514 231.9140836 375.24085248 233.93416095 375.23204041 235.95419502 C375.22112935 238.70911142 375.2347946 241.46284135 375.25476074 244.21768188 C375.24583786 245.01933293 375.23691497 245.82098397 375.22772169 246.64692748 C375.29941886 251.7376645 376.34484065 254.07870437 379.76269531 257.78222656 C380.23266602 260.98022461 380.23266602 260.98022461 380.18847656 264.54394531 C380.18009766 265.82720703 380.17171875 267.11046875 380.16308594 268.43261719 C380.14866455 269.09495361 380.13424316 269.75729004 380.11938477 270.43969727 C380.07510124 272.47404826 380.05791241 274.50721761 380.04589844 276.54199219 C379.93114957 286.44531804 379.93114957 286.44531804 378.76269531 288.78222656 C378.10269531 288.78222656 377.44269531 288.78222656 376.76269531 288.78222656 C376.76269531 289.44222656 376.76269531 290.10222656 376.76269531 290.78222656 C375.11269531 291.44222656 373.46269531 292.10222656 371.76269531 292.78222656 C371.78589844 293.39066406 371.80910156 293.99910156 371.83300781 294.62597656 C372.08435121 306.83408445 370.07494955 318.71522705 367.76269531 330.65722656 C367.59672852 331.5317749 367.43076172 332.40632324 367.25976562 333.30737305 C367.09573242 334.12149658 366.93169922 334.93562012 366.76269531 335.77441406 C366.61832031 336.49999512 366.47394531 337.22557617 366.32519531 337.97314453 C365.76269531 339.78222656 365.76269531 339.78222656 363.76269531 341.78222656 C359.97026821 342.26320154 356.14466252 342.15261089 352.32519531 342.15722656 C351.26236328 342.18171875 350.19953125 342.20621094 349.10449219 342.23144531 C348.08548828 342.2353125 347.06648438 342.23917969 346.01660156 342.24316406 C345.08146729 342.25138184 344.14633301 342.25959961 343.18286133 342.26806641 C340.76269531 341.78222656 340.76269531 341.78222656 338.99682617 340.06591797 C336.40094871 335.26238923 336.68233634 330.67965999 336.84863281 325.31347656 C336.86987213 324.59671753 336.89111145 323.8799585 336.91299438 323.14147949 C336.95912736 321.62515876 337.0080445 320.10892049 337.05957031 318.59277344 C337.13650143 316.31753565 337.20427701 314.04217318 337.27050781 311.76660156 C337.31683238 310.28220928 337.36369166 308.79783358 337.41113281 307.31347656 C337.43098236 306.65255005 337.45083191 305.99162354 337.47128296 305.31066895 C337.69965226 298.77102955 338.25917498 292.3279909 338.76269531 285.78222656 C234.81269531 285.78222656 130.86269531 285.78222656 23.76269531 285.78222656 C23.76269531 302.94222656 23.76269531 320.10222656 23.76269531 337.78222656 C20.76269531 341.78222656 20.76269531 341.78222656 18.3425293 342.26806641 C17.40739502 342.25984863 16.47226074 342.25163086 15.50878906 342.24316406 C14.48978516 342.23929687 13.47078125 342.23542969 12.42089844 342.23144531 C11.35806641 342.20695312 10.29523438 342.18246094 9.20019531 342.15722656 C8.13349609 342.1559375 7.06679687 342.15464844 5.96777344 342.15332031 C-1.95654516 342.06298609 -1.95654516 342.06298609 -4.23730469 339.78222656 C-4.99871852 336.92395042 -5.65351571 334.11486646 -6.23730469 331.21972656 C-6.41100586 330.37216797 -6.58470703 329.52460938 -6.76367188 328.65136719 C-9.1165704 316.79417127 -10.70829735 304.89720452 -10.23730469 292.78222656 C-11.38199219 292.44191406 -11.38199219 292.44191406 -12.54980469 292.09472656 C-15.91349234 290.45199538 -16.62390893 289.13016043 -18.23730469 285.78222656 C-18.85142671 281.13345273 -18.7009388 276.46736084 -18.67480469 271.78222656 C-18.70477539 269.87570312 -18.70477539 269.87570312 -18.73535156 267.93066406 C-18.73470703 266.70605469 -18.7340625 265.48144531 -18.73339844 264.21972656 C-18.73525146 263.1046875 -18.73710449 261.98964844 -18.73901367 260.84082031 C-18.23730469 257.78222656 -18.23730469 257.78222656 -16.23769379 255.62592793 C-13.59121038 251.86375562 -13.67998448 248.65754607 -13.72937012 244.22441101 C-13.72313015 243.36415386 -13.71689019 242.50389672 -13.71046114 241.61757118 C-13.69450915 238.7355725 -13.70714415 235.85441703 -13.71972656 232.97241211 C-13.71430631 230.90585842 -13.7071842 228.8393086 -13.69848633 226.77276611 C-13.68023524 221.15897153 -13.6873289 215.54547069 -13.70000267 209.9316709 C-13.71012509 204.05639332 -13.70073871 198.18114099 -13.69445801 192.30586243 C-13.68717769 182.43571456 -13.69677765 172.56568635 -13.71582031 162.69555664 C-13.73757163 151.28989419 -13.73055176 139.88451794 -13.70851469 128.47886246 C-13.69035013 118.68506222 -13.68780811 108.89134804 -13.69826937 99.09753639 C-13.70450078 93.24883671 -13.70534987 87.40027143 -13.69212341 81.55158043 C-13.68055093 76.04969298 -13.68861658 70.54817348 -13.71170044 65.04632568 C-13.71698078 63.02915367 -13.71548533 61.0119506 -13.70664978 58.99479103 C-13.69568365 56.23644314 -13.70947095 53.47926673 -13.72937012 50.72099304 C-13.72044723 49.92671628 -13.71152434 49.13243952 -13.70233107 48.31409377 C-13.77214456 43.30887155 -14.81872357 39.8807707 -17.3280673 35.53940898 C-19.68675265 30.98103897 -18.8456547 25.15218114 -18.79980469 20.15722656 C-18.82365234 18.95582031 -18.8475 17.75441406 -18.87207031 16.51660156 C-18.85581535 6.74195222 -18.85581535 6.74195222 -16.66308594 2.99316406 C-12.41120716 -1.01136293 -5.47863116 -0.09841852 0 0 Z " fill="#BBDCE0" transform="translate(69.2373046875,86.2177734375)"/>
<path d="M0 0 C2.12665416 0.03206011 4.24565591 0.00034324 6.37207031 -0.03808594 C7.73927438 -0.03411879 9.10647373 -0.02642663 10.47363281 -0.01464844 C11.70388184 -0.00788086 12.93413086 -0.00111328 14.20166016 0.00585938 C17.9815782 0.82994681 18.27769788 1.13741681 20.69487667 3.78313065 C25.68275939 8.18118237 31.04201675 7.6157686 37.40882874 7.54412842 C38.68464465 7.55348836 39.96046057 7.56284831 41.27493757 7.57249188 C44.8051537 7.59748985 48.334394 7.58518352 51.86461318 7.56657457 C55.67588632 7.55298441 59.48699307 7.5739603 63.29823303 7.5904541 C70.75974651 7.61712311 78.2208977 7.61137642 85.68242533 7.59397826 C91.74631078 7.5804246 97.81009475 7.57859166 103.87399101 7.58512115 C104.73722295 7.58604055 105.60045489 7.58695995 106.48984538 7.58790721 C108.24350428 7.58982557 109.99716316 7.59177085 111.750822 7.59374276 C128.19152206 7.61084859 144.63202132 7.59118499 161.07268845 7.55894056 C175.17982576 7.53212947 189.28666686 7.5367944 203.39379883 7.56445312 C219.77744039 7.59656019 236.16090605 7.60920568 252.54457468 7.59077954 C254.29145488 7.58886825 256.03833512 7.58698203 257.78521538 7.58512115 C258.64470859 7.5841955 259.50420181 7.58326985 260.38974028 7.58231615 C266.44691776 7.57713531 272.50398367 7.58588038 278.56114388 7.59999847 C285.94198959 7.61682377 293.32245245 7.61227876 300.70325429 7.58031401 C304.46923111 7.56454193 308.23456955 7.55837468 312.00054169 7.57820892 C316.08209903 7.59938026 320.16204383 7.57410876 324.24354553 7.54412842 C326.0311315 7.56420491 326.0311315 7.56420491 327.85483032 7.58468699 C333.61131535 7.64245546 333.61131535 7.64245546 338.74035251 5.42304468 C340.1623745 3.95043869 341.4716268 2.37089174 342.76269531 0.78222656 C346.30200195 0.00585938 346.30200195 0.00585938 350.17285156 -0.01464844 C350.86277695 -0.02038879 351.55270233 -0.02612915 352.26353455 -0.03204346 C353.71323964 -0.03610388 355.1630569 -0.0251889 356.61254883 0 C358.82460137 0.03221791 361.02938063 0.00023968 363.24121094 -0.03808594 C364.6559405 -0.03412162 366.07066555 -0.02643533 367.48535156 -0.01464844 C369.39973022 -0.00449707 369.39973022 -0.00449707 371.3527832 0.00585938 C374.76269531 0.78222656 374.76269531 0.78222656 377.67822266 3.42797852 C379.9631979 7.10486711 380.3944295 8.96840745 380.39160156 13.24707031 C380.39353516 14.45943359 380.39546875 15.67179687 380.39746094 16.92089844 C380.37361328 18.17451172 380.34976562 19.428125 380.32519531 20.71972656 C380.33615234 21.96947266 380.34710938 23.21921875 380.35839844 24.50683594 C380.28307492 33.96244863 380.28307492 33.96244863 377.76110077 37.93543053 C375.28326319 42.15620499 375.2009255 45.79098397 375.25476074 50.60073853 C375.24852078 51.46482122 375.24228082 52.32890391 375.23585176 53.21917093 C375.21995231 56.10196152 375.23251396 58.983903 375.24511719 61.86669922 C375.2396948 63.93841544 375.23257149 66.01012781 375.22387695 68.08183289 C375.20565696 73.69943988 375.2127052 79.31675272 375.2253933 84.9343648 C375.23552502 90.81370361 375.22612738 96.69301736 375.21984863 102.57235718 C375.2125739 112.44314087 375.22215664 122.3138048 375.24121094 132.18457031 C375.26299131 143.59942257 375.25591903 155.01398919 375.23390532 166.42883456 C375.21576081 176.22942223 375.21318801 186.02992386 375.22365999 195.83052289 C375.22989856 201.68412738 375.23072022 207.53759752 375.21751404 213.39119339 C375.20596964 218.89227762 375.21395573 224.39299292 375.23709106 229.89403725 C375.24238514 231.9140836 375.24085248 233.93416095 375.23204041 235.95419502 C375.22112935 238.70911142 375.2347946 241.46284135 375.25476074 244.21768188 C375.24583786 245.01933293 375.23691497 245.82098397 375.22772169 246.64692748 C375.29941886 251.7376645 376.34484065 254.07870437 379.76269531 257.78222656 C380.23266602 260.98022461 380.23266602 260.98022461 380.18847656 264.54394531 C380.18009766 265.82720703 380.17171875 267.11046875 380.16308594 268.43261719 C380.14866455 269.09495361 380.13424316 269.75729004 380.11938477 270.43969727 C380.07510124 272.47404826 380.05791241 274.50721761 380.04589844 276.54199219 C379.93114957 286.44531804 379.93114957 286.44531804 378.76269531 288.78222656 C378.10269531 288.78222656 377.44269531 288.78222656 376.76269531 288.78222656 C376.76269531 289.44222656 376.76269531 290.10222656 376.76269531 290.78222656 C375.11269531 291.44222656 373.46269531 292.10222656 371.76269531 292.78222656 C371.78589844 293.39066406 371.80910156 293.99910156 371.83300781 294.62597656 C372.08435121 306.83408445 370.07494955 318.71522705 367.76269531 330.65722656 C367.59672852 331.5317749 367.43076172 332.40632324 367.25976562 333.30737305 C367.09573242 334.12149658 366.93169922 334.93562012 366.76269531 335.77441406 C366.61832031 336.49999512 366.47394531 337.22557617 366.32519531 337.97314453 C365.76269531 339.78222656 365.76269531 339.78222656 363.76269531 341.78222656 C359.97026821 342.26320154 356.14466252 342.15261089 352.32519531 342.15722656 C351.26236328 342.18171875 350.19953125 342.20621094 349.10449219 342.23144531 C348.08548828 342.2353125 347.06648438 342.23917969 346.01660156 342.24316406 C345.08146729 342.25138184 344.14633301 342.25959961 343.18286133 342.26806641 C340.76269531 341.78222656 340.76269531 341.78222656 338.99682617 340.06591797 C336.40094871 335.26238923 336.68233634 330.67965999 336.84863281 325.31347656 C336.86987213 324.59671753 336.89111145 323.8799585 336.91299438 323.14147949 C336.95912736 321.62515876 337.0080445 320.10892049 337.05957031 318.59277344 C337.13650143 316.31753565 337.20427701 314.04217318 337.27050781 311.76660156 C337.31683238 310.28220928 337.36369166 308.79783358 337.41113281 307.31347656 C337.43098236 306.65255005 337.45083191 305.99162354 337.47128296 305.31066895 C337.69965226 298.77102955 338.25917498 292.3279909 338.76269531 285.78222656 C234.81269531 285.78222656 130.86269531 285.78222656 23.76269531 285.78222656 C23.76269531 302.94222656 23.76269531 320.10222656 23.76269531 337.78222656 C20.76269531 341.78222656 20.76269531 341.78222656 18.3425293 342.26806641 C17.40739502 342.25984863 16.47226074 342.25163086 15.50878906 342.24316406 C14.48978516 342.23929687 13.47078125 342.23542969 12.42089844 342.23144531 C11.35806641 342.20695312 10.29523438 342.18246094 9.20019531 342.15722656 C8.13349609 342.1559375 7.06679687 342.15464844 5.96777344 342.15332031 C-1.95654516 342.06298609 -1.95654516 342.06298609 -4.23730469 339.78222656 C-4.99871852 336.92395042 -5.65351571 334.11486646 -6.23730469 331.21972656 C-6.41100586 330.37216797 -6.58470703 329.52460938 -6.76367188 328.65136719 C-9.1165704 316.79417127 -10.70829735 304.89720452 -10.23730469 292.78222656 C-11.38199219 292.44191406 -11.38199219 292.44191406 -12.54980469 292.09472656 C-15.91349234 290.45199538 -16.62390893 289.13016043 -18.23730469 285.78222656 C-18.85142671 281.13345273 -18.7009388 276.46736084 -18.67480469 271.78222656 C-18.70477539 269.87570312 -18.70477539 269.87570312 -18.73535156 267.93066406 C-18.73470703 266.70605469 -18.7340625 265.48144531 -18.73339844 264.21972656 C-18.73525146 263.1046875 -18.73710449 261.98964844 -18.73901367 260.84082031 C-18.23730469 257.78222656 -18.23730469 257.78222656 -16.23769379 255.62592793 C-13.59121038 251.86375562 -13.67998448 248.65754607 -13.72937012 244.22441101 C-13.72313015 243.36415386 -13.71689019 242.50389672 -13.71046114 241.61757118 C-13.69450915 238.7355725 -13.70714415 235.85441703 -13.71972656 232.97241211 C-13.71430631 230.90585842 -13.7071842 228.8393086 -13.69848633 226.77276611 C-13.68023524 221.15897153 -13.6873289 215.54547069 -13.70000267 209.9316709 C-13.71012509 204.05639332 -13.70073871 198.18114099 -13.69445801 192.30586243 C-13.68717769 182.43571456 -13.69677765 172.56568635 -13.71582031 162.69555664 C-13.73757163 151.28989419 -13.73055176 139.88451794 -13.70851469 128.47886246 C-13.69035013 118.68506222 -13.68780811 108.89134804 -13.69826937 99.09753639 C-13.70450078 93.24883671 -13.70534987 87.40027143 -13.69212341 81.55158043 C-13.68055093 76.04969298 -13.68861658 70.54817348 -13.71170044 65.04632568 C-13.71698078 63.02915367 -13.71548533 61.0119506 -13.70664978 58.99479103 C-13.69568365 56.23644314 -13.70947095 53.47926673 -13.72937012 50.72099304 C-13.72044723 49.92671628 -13.71152434 49.13243952 -13.70233107 48.31409377 C-13.77214456 43.30887155 -14.81872357 39.8807707 -17.3280673 35.53940898 C-19.68675265 30.98103897 -18.8456547 25.15218114 -18.79980469 20.15722656 C-18.82365234 18.95582031 -18.8475 17.75441406 -18.87207031 16.51660156 C-18.85581535 6.74195222 -18.85581535 6.74195222 -16.66308594 2.99316406 C-12.41120716 -1.01136293 -5.47863116 -0.09841852 0 0 Z M-6.23730469 14.78222656 C-6.23730469 101.24222656 -6.23730469 187.70222656 -6.23730469 276.78222656 C117.18269531 276.78222656 240.60269531 276.78222656 367.76269531 276.78222656 C367.76269531 190.32222656 367.76269531 103.86222656 367.76269531 14.78222656 C244.34269531 14.78222656 120.92269531 14.78222656 -6.23730469 14.78222656 Z " fill="#434C4D" transform="translate(69.2373046875,86.2177734375)"/>
<path d="M0 0 C0.70125 0.556875 1.4025 1.11375 2.125 1.6875 C2.125 2.6775 2.125 3.6675 2.125 4.6875 C2.785 4.6875 3.445 4.6875 4.125 4.6875 C6.33308081 9.88298425 6.05902724 13.27014203 5.125 18.6875 C4.465 18.6875 3.805 18.6875 3.125 18.6875 C3.125 19.3475 3.125 20.0075 3.125 20.6875 C2.465 20.6875 1.805 20.6875 1.125 20.6875 C1.125 21.3475 1.125 22.0075 1.125 22.6875 C-0.75 24.8125 -0.75 24.8125 -2.875 26.6875 C-3.535 26.6875 -4.195 26.6875 -4.875 26.6875 C-4.875 27.3475 -4.875 28.0075 -4.875 28.6875 C-5.535 28.6875 -6.195 28.6875 -6.875 28.6875 C-6.875 29.3475 -6.875 30.0075 -6.875 30.6875 C-7.535 30.6875 -8.195 30.6875 -8.875 30.6875 C-9.1225 31.244375 -9.37 31.80125 -9.625 32.375 C-12.42912974 37.56264001 -16.24143567 41.16196192 -20.875 44.6875 C-21.535 44.6875 -22.195 44.6875 -22.875 44.6875 C-23.11605469 45.25597656 -23.35710937 45.82445312 -23.60546875 46.41015625 C-25.12468088 49.13538908 -26.94918981 50.95440339 -29.1875 53.125 C-29.99574219 53.91519531 -30.80398438 54.70539063 -31.63671875 55.51953125 C-32.37535156 56.23496094 -33.11398437 56.95039063 -33.875 57.6875 C-34.74125 58.55375 -35.6075 59.42 -36.5 60.3125 C-38.45833333 62.27083333 -40.41666667 64.22916667 -42.375 66.1875 C-42.97183594 66.785625 -43.56867188 67.38375 -44.18359375 68 C-45.59216391 69.40531711 -47.01329427 70.798031 -48.4375 72.1875 C-50.34055011 74.13934626 -52.07331461 76.096873 -53.8125 78.1875 C-55.73818139 80.47455605 -57.66694902 82.44370854 -60 84.3125 C-62.76080655 86.59316628 -64.69147381 88.87004686 -66.875 91.6875 C-71.38049451 96.52266484 -71.38049451 96.52266484 -74.875 97.6875 C-74.875 98.3475 -74.875 99.0075 -74.875 99.6875 C-76.25 101.3125 -76.25 101.3125 -77.875 102.6875 C-78.535 102.6875 -79.195 102.6875 -79.875 102.6875 C-80.37 104.1725 -80.37 104.1725 -80.875 105.6875 C-83.3125 108.375 -83.3125 108.375 -85.875 110.6875 C-86.535 110.6875 -87.195 110.6875 -87.875 110.6875 C-88.37 112.1725 -88.37 112.1725 -88.875 113.6875 C-89.535 113.6875 -90.195 113.6875 -90.875 113.6875 C-91.143125 114.326875 -91.41125 114.96625 -91.6875 115.625 C-92.875 117.6875 -92.875 117.6875 -95.875 118.6875 C-96.205 119.3475 -96.535 120.0075 -96.875 120.6875 C-97.205 121.3475 -97.535 122.0075 -97.875 122.6875 C-99.36 123.1825 -99.36 123.1825 -100.875 123.6875 C-102.08382096 125.68766466 -102.08382096 125.68766466 -102.875 127.6875 C-103.535 127.6875 -104.195 127.6875 -104.875 127.6875 C-104.875 128.3475 -104.875 129.0075 -104.875 129.6875 C-105.535 129.6875 -106.195 129.6875 -106.875 129.6875 C-107.1225 130.265 -107.37 130.8425 -107.625 131.4375 C-109.05799988 134.01689979 -110.65924676 135.74871592 -112.875 137.6875 C-113.535 137.6875 -114.195 137.6875 -114.875 137.6875 C-115.22292603 138.52547119 -115.22292603 138.52547119 -115.57788086 139.38037109 C-117.2132241 142.28908436 -119.24603929 144.26519159 -121.62890625 146.6015625 C-122.56541016 147.52710938 -123.50191406 148.45265625 -124.46679688 149.40625 C-125.45668773 150.37535102 -126.44692614 151.34409713 -127.4375 152.3125 C-129.37950908 154.21815371 -131.31734188 156.12785631 -133.25390625 158.0390625 C-134.1157251 158.88291504 -134.97754395 159.72676758 -135.86547852 160.59619141 C-137.91704037 162.52387401 -137.91704037 162.52387401 -138.875 164.6875 C-139.535 164.6875 -140.195 164.6875 -140.875 164.6875 C-140.875 165.3475 -140.875 166.0075 -140.875 166.6875 C-142.52502828 168.04136936 -144.1924387 169.37428142 -145.875 170.6875 C-146.205 171.3475 -146.535 172.0075 -146.875 172.6875 C-147.535 172.6875 -148.195 172.6875 -148.875 172.6875 C-148.875 173.3475 -148.875 174.0075 -148.875 174.6875 C-154.35119048 179.6875 -154.35119048 179.6875 -156.875 179.6875 C-156.875 180.3475 -156.875 181.0075 -156.875 181.6875 C-160.58102135 182.92284045 -162.97253614 183.14278745 -166.875 182.6875 C-170.14769513 180.58547249 -173.1192035 178.199093 -174.875 174.6875 C-175.38046947 170.0056926 -175.64210003 166.01517314 -173.25 161.875 C-171.0679022 159.86517308 -168.82052498 157.98104002 -166.50390625 156.12890625 C-164.64667702 154.4854588 -163.10129874 152.70560716 -161.5 150.8125 C-158.43658058 147.2020414 -155.11605355 144.15401163 -151.4765625 141.1328125 C-149.75912185 139.75940983 -149.75912185 139.75940983 -148.875 137.6875 C-148.215 137.6875 -147.555 137.6875 -146.875 137.6875 C-145.885 135.7075 -145.885 135.7075 -144.875 133.6875 C-144.215 133.6875 -143.555 133.6875 -142.875 133.6875 C-142.875 133.0275 -142.875 132.3675 -142.875 131.6875 C-141.89649805 130.66645449 -140.89519573 129.6668879 -139.875 128.6875 C-139.545 128.0275 -139.215 127.3675 -138.875 126.6875 C-138.215 126.6875 -137.555 126.6875 -136.875 126.6875 C-136.875 126.0275 -136.875 125.3675 -136.875 124.6875 C-136.215 124.6875 -135.555 124.6875 -134.875 124.6875 C-134.875 124.0275 -134.875 123.3675 -134.875 122.6875 C-133.51953125 121.35546875 -133.51953125 121.35546875 -131.6875 119.875 C-127.05801481 116.02326832 -123.01250878 111.85424161 -119.0625 107.3125 C-115.86828463 103.68598481 -112.51310657 100.50482905 -108.83203125 97.3828125 C-104.73759417 93.83593487 -100.88443026 90.20164539 -97.875 85.6875 C-97.215 85.6875 -96.555 85.6875 -95.875 85.6875 C-95.62492187 85.09839844 -95.37484375 84.50929688 -95.1171875 83.90234375 C-93.71061753 81.39440295 -92.21945666 80.06325422 -90 78.25 C-86.87067792 75.6112203 -84.40377983 72.91387426 -81.875 69.6875 C-80.20833333 68.35416667 -78.54166667 67.02083333 -76.875 65.6875 C-76.215 64.8625 -75.555 64.0375 -74.875 63.1875 C-72.77758073 60.56572591 -70.50062945 58.76036535 -67.875 56.6875 C-67.215 55.6975 -66.555 54.7075 -65.875 53.6875 C-65.215 53.6875 -64.555 53.6875 -63.875 53.6875 C-63.875 53.0275 -63.875 52.3675 -63.875 51.6875 C-63.215 51.6875 -62.555 51.6875 -61.875 51.6875 C-61.875 51.0275 -61.875 50.3675 -61.875 49.6875 C-61.215 49.6875 -60.555 49.6875 -59.875 49.6875 C-59.50375 48.82898438 -59.50375 48.82898438 -59.125 47.953125 C-57.68183801 45.33739389 -55.99283778 43.53976544 -53.875 41.4375 C-52.823125 40.37789062 -52.823125 40.37789062 -51.75 39.296875 C-49.875 37.6875 -49.875 37.6875 -47.875 37.6875 C-47.875 37.0275 -47.875 36.3675 -47.875 35.6875 C-47.215 35.6875 -46.555 35.6875 -45.875 35.6875 C-45.875 35.0275 -45.875 34.3675 -45.875 33.6875 C-45.215 33.6875 -44.555 33.6875 -43.875 33.6875 C-43.215 32.3675 -42.555 31.0475 -41.875 29.6875 C-41.215 29.6875 -40.555 29.6875 -39.875 29.6875 C-39.50375 28.82898438 -39.50375 28.82898438 -39.125 27.953125 C-37.68183801 25.33739389 -35.99283778 23.53976544 -33.875 21.4375 C-33.17375 20.73109375 -32.4725 20.0246875 -31.75 19.296875 C-29.875 17.6875 -29.875 17.6875 -27.875 17.6875 C-27.63910156 17.12289062 -27.40320313 16.55828125 -27.16015625 15.9765625 C-25.58265058 13.16678037 -23.63448714 11.29130949 -21.3125 9.0625 C-18.18457946 6.17679319 -18.18457946 6.17679319 -15.875 2.6875 C-15.215 2.6875 -14.555 2.6875 -13.875 2.6875 C-13.875 2.0275 -13.875 1.3675 -13.875 0.6875 C-8.92882332 -1.64011255 -5.07343756 -2.31613454 0 0 Z " fill="#D0E8EB" transform="translate(378.875,137.3125)"/>
<path d="M0 0 C0.68100266 0.00848969 1.36200531 0.01697937 2.06364441 0.02572632 C4.2250736 0.05914448 6.38268065 0.13437764 8.54296875 0.2109375 C10.01361773 0.24105318 11.48432559 0.26842621 12.95507812 0.29296875 C16.54810343 0.35889013 20.13891269 0.46232027 23.73046875 0.5859375 C23.73046875 1.5759375 23.73046875 2.5659375 23.73046875 3.5859375 C24.72046875 3.9159375 25.71046875 4.2459375 26.73046875 4.5859375 C26.40046875 5.5140625 26.07046875 6.4421875 25.73046875 7.3984375 C24.58079871 10.50623041 24.58079871 10.50623041 24.73046875 13.5859375 C196.99046875 13.0909375 196.99046875 13.0909375 372.73046875 12.5859375 C372.73046875 13.2459375 372.73046875 13.9059375 372.73046875 14.5859375 C249.64046875 14.5859375 126.55046875 14.5859375 -0.26953125 14.5859375 C-0.26953125 97.4159375 -0.26953125 180.2459375 -0.26953125 265.5859375 C-0.59953125 265.5859375 -0.92953125 265.5859375 -1.26953125 265.5859375 C-1.59953125 261.9559375 -1.92953125 258.3259375 -2.26953125 254.5859375 C-4.24953125 254.9159375 -6.22953125 255.2459375 -8.26953125 255.5859375 C-7.77453125 254.5959375 -7.77453125 254.5959375 -7.26953125 253.5859375 C-7.16151147 250.8150621 -7.11462263 248.06864852 -7.11131287 245.29708862 C-7.1039059 243.9959557 -7.1039059 243.9959557 -7.0963493 242.66853726 C-7.08091993 239.74500992 -7.072599 236.82150463 -7.06420898 233.89794922 C-7.05463473 231.80900883 -7.04462492 229.7200704 -7.03421021 227.63113403 C-7.007106 221.94549585 -6.98612636 216.25984932 -6.96620822 210.57418203 C-6.94438261 204.6377468 -6.91697721 198.70133746 -6.89015198 192.7649231 C-6.84017867 181.51689263 -6.79525708 170.26884783 -6.75212961 159.02078927 C-6.70279682 146.21806731 -6.64786404 133.41537133 -6.59245002 120.61267447 C-6.47855879 94.27045303 -6.37173535 67.92820669 -6.26953125 41.5859375 C-6.92953125 41.5859375 -7.58953125 41.5859375 -8.26953125 41.5859375 C-12.73216933 34.43507013 -12.90829062 28.26872288 -12.83203125 19.9609375 C-12.85587891 18.75953125 -12.87972656 17.558125 -12.90429688 16.3203125 C-12.90236328 15.15757813 -12.90042969 13.99484375 -12.8984375 12.796875 C-12.8991626 11.74806152 -12.8998877 10.69924805 -12.90063477 9.61865234 C-11.34779085 2.15659156 -7.23594637 -0.17866534 0 0 Z " fill="#283334" transform="translate(63.26953125,86.4140625)"/>
<path d="M0 0 C1.65 0 3.3 0 5 0 C10.2316895 10.87859246 6.59123647 26.40212882 5 38 C4.80634931 39.46862605 4.61363739 40.9373762 4.421875 42.40625 C3.95865858 45.93898753 3.4830112 49.46990749 3 53 C1.68 53 0.36 53 -1 53 C-2.04880306 48.77590768 -2.04923478 44.90714628 -1.9140625 40.56640625 C-1.89282318 39.85201889 -1.87158386 39.13763153 -1.84970093 38.40159607 C-1.80356263 36.88947143 -1.75464499 35.37742936 -1.703125 33.86547852 C-1.6263137 31.6012255 -1.55846557 29.33684872 -1.4921875 27.07226562 C-1.21358575 18.02662398 -0.7261047 9.02225633 0 0 Z " fill="#2F3536" transform="translate(408,371)"/>
<path d="M0 0 C0.99 0 1.98 0 3 0 C3 17.82 3 35.64 3 54 C2.01 54 1.02 54 0 54 C-0.58140581 49.70053494 -1.1503942 45.39964227 -1.70898438 41.09716797 C-1.89976808 39.64036155 -2.09366849 38.18395916 -2.29101562 36.72802734 C-5.74270801 11.21015866 -5.74270801 11.21015866 -2 2 C-1.34 1.34 -0.68 0.68 0 0 Z " fill="#212729" transform="translate(89,371)"/>
<path d="M0 0 C2.4375 1.6875 2.4375 1.6875 4 4 C4.48812105 7.90496842 4.22683908 10.71834241 2 14 C-1.25860909 16.17240606 -1.82050803 16.23564158 -5.5 15.8125 C-6.2734375 15.73644531 -7.046875 15.66039062 -7.84375 15.58203125 C-10.42791628 14.88449361 -11.42051984 14.14888523 -13 12 C-13.77669903 5.00970874 -13.77669903 5.00970874 -11.125 1.5625 C-7.08746789 -1.40627361 -4.90824906 -1.10012479 0 0 Z " fill="#77999F" transform="translate(419,332)"/>
<path d="M0 0 C0.87785156 0.00515625 1.75570312 0.0103125 2.66015625 0.015625 C3.53542969 0.01046875 4.41070312 0.0053125 5.3125 0 C7.72265625 0.265625 7.72265625 0.265625 10.72265625 2.265625 C11.15625 4.76171875 11.15625 4.76171875 11.16015625 7.703125 C11.18916016 9.15525391 11.18916016 9.15525391 11.21875 10.63671875 C10.72265625 13.265625 10.72265625 13.265625 8.91015625 15.08203125 C5.63071494 16.85644324 3.38835693 16.78010931 -0.27734375 16.265625 C-3.27734375 14.328125 -3.27734375 14.328125 -5.27734375 11.265625 C-5.48794249 8.13364369 -5.17015201 5.27515748 -4.27734375 2.265625 C-2.27734375 0.265625 -2.27734375 0.265625 0 0 Z " fill="#76979E" transform="translate(83.27734375,114.734375)"/>
<path d="M0 0 C2.78251058 2.33371855 2.97502272 3.82828118 3.5 7.4375 C3 11 3 11 0.9375 14 C-2 16 -2 16 -5.5625 16 C-10.77268872 14.48430874 -10.77268872 14.48430874 -13 12 C-14 9.1875 -14 9.1875 -14 6 C-10.40352504 -0.80761332 -7.40203167 -1.71832878 0 0 Z " fill="#77999F" transform="translate(91,332)"/>
<path d="M0 0 C2.09765625 0.41796875 2.09765625 0.41796875 4.16015625 2.60546875 C5.15328673 5.58486019 5.63934965 7.32257791 5.09765625 10.41796875 C3.59765625 13.23046875 3.59765625 13.23046875 1.09765625 15.41796875 C-1.72521345 16.14103988 -4.07783091 16.12842903 -6.90234375 15.41796875 C-9.46484375 13.35546875 -9.46484375 13.35546875 -10.90234375 10.41796875 C-10.8427739 6.96291767 -10.75395873 4.53782943 -8.625 1.73828125 C-5.85999088 -0.38093209 -3.37522922 -0.11525173 0 0 Z " fill="#77989E" transform="translate(417.90234375,114.58203125)"/>
<path d="M0 0 C0.69134033 -0.0071553 1.38268066 -0.01431061 2.0949707 -0.02168274 C3.55060544 -0.02943618 5.00635711 -0.02449719 6.46191406 -0.00756836 C8.68257894 0.0116761 10.89699146 -0.0277535 13.1171875 -0.07226562 C14.53646204 -0.072556 15.95574228 -0.06941559 17.375 -0.0625 C18.65761719 -0.06209717 19.94023437 -0.06169434 21.26171875 -0.0612793 C24.6875 0.69921875 24.6875 0.69921875 27.60961914 3.33178711 C29.92241519 7.07992433 30.29801178 8.98370352 30.24609375 13.33984375 C30.23900391 14.57476562 30.23191406 15.8096875 30.22460938 17.08203125 C30.19173828 18.35820313 30.15886719 19.634375 30.125 20.94921875 C30.11919922 22.24085937 30.11339844 23.5325 30.10742188 24.86328125 C29.98240839 34.40431036 29.98240839 34.40431036 27.6875 36.69921875 C27.6875 26.46921875 27.6875 16.23921875 27.6875 5.69921875 C26.3675 5.03921875 25.0475 4.37921875 23.6875 3.69921875 C23.6875 3.03921875 23.6875 2.37921875 23.6875 1.69921875 C19.4875104 1.74342917 15.2889599 1.81331758 11.08984375 1.90673828 C9.66223063 1.93491486 8.23446247 1.95614602 6.80664062 1.97021484 C4.75049668 1.99169267 2.69620998 2.03835849 0.640625 2.08984375 C-0.59526367 2.11079102 -1.83115234 2.13173828 -3.10449219 2.15332031 C-6.81449104 2.78464127 -8.00240911 3.80403933 -10.3125 6.69921875 C-10.9725 6.36921875 -11.6325 6.03921875 -12.3125 5.69921875 C-8.40673122 1.00324125 -6.06572189 0.05677089 0 0 Z " fill="#A2A4A3" transform="translate(419.3125,86.30078125)"/>
<path d="M0 0 C0.68100266 0.00848969 1.36200531 0.01697937 2.06364441 0.02572632 C4.2250736 0.05914448 6.38268065 0.13437764 8.54296875 0.2109375 C10.01361773 0.24105318 11.48432559 0.26842621 12.95507812 0.29296875 C16.54810343 0.35889013 20.13891269 0.46232027 23.73046875 0.5859375 C23.73046875 0.9159375 23.73046875 1.2459375 23.73046875 1.5859375 C13.83046875 1.5859375 3.93046875 1.5859375 -6.26953125 1.5859375 C-6.26953125 2.5759375 -6.26953125 3.5659375 -6.26953125 4.5859375 C-7.25953125 5.0809375 -7.25953125 5.0809375 -8.26953125 5.5859375 C-9.34908337 8.82459385 -9.47394866 11.37749588 -9.5859375 14.78515625 C-9.62783203 15.99365234 -9.66972656 17.20214844 -9.71289062 18.44726562 C-9.77186523 20.3412207 -9.77186523 20.3412207 -9.83203125 22.2734375 C-9.87521484 23.54767578 -9.91839844 24.82191406 -9.96289062 26.13476562 C-10.06907985 29.28504602 -10.17112658 32.43540589 -10.26953125 35.5859375 C-9.60953125 35.9159375 -8.94953125 36.2459375 -8.26953125 36.5859375 C-9.25953125 36.5859375 -10.24953125 36.5859375 -11.26953125 36.5859375 C-13.02080301 31.33212222 -12.58141669 25.77301077 -12.64453125 20.2734375 C-12.68191406 19.04947266 -12.71929687 17.82550781 -12.7578125 16.56445312 C-12.76941406 15.37916016 -12.78101563 14.19386719 -12.79296875 12.97265625 C-12.82269775 11.35170044 -12.82269775 11.35170044 -12.85302734 9.69799805 C-11.44075807 2.16569829 -7.24986818 -0.17900909 0 0 Z " fill="#949693" transform="translate(63.26953125,86.4140625)"/>
<path d="M0 0 C0.33 0 0.66 0 1 0 C1 8.91 1 17.82 1 27 C1.66 27.33 2.32 27.66 3 28 C2.34 28 1.68 28 1 28 C0.67 29.32 0.34 30.64 0 32 C-1.39886325 29.2022735 -1.12974597 26.87611108 -1.1328125 23.75 C-1.13410156 22.5021875 -1.13539062 21.254375 -1.13671875 19.96875 C-1.13285156 18.6590625 -1.12898438 17.349375 -1.125 16 C-1.12886719 14.6903125 -1.13273437 13.380625 -1.13671875 12.03125 C-1.13542969 10.7834375 -1.13414063 9.535625 -1.1328125 8.25 C-1.13168457 7.10015625 -1.13055664 5.9503125 -1.12939453 4.765625 C-1 2 -1 2 0 0 Z " fill="#9DA09D" transform="translate(52,342)"/>
<path d="M0 0 C0.69371201 -0.00241196 1.38742401 -0.00482391 2.10215759 -0.00730896 C3.56205997 -0.00633343 5.02200068 0.00699051 6.48168945 0.03198242 C8.71237987 0.06636827 10.93912061 0.05261422 13.16992188 0.03320312 C14.59246472 0.04010046 16.01499738 0.04977185 17.4375 0.0625 C18.725354 0.07337646 20.01320801 0.08425293 21.34008789 0.09545898 C25.13038023 0.70589525 26.31346523 1.66264062 28.65234375 4.62890625 C28.32234375 5.28890625 27.99234375 5.94890625 27.65234375 6.62890625 C25.65234375 5.25390625 25.65234375 5.25390625 23.65234375 3.62890625 C23.65234375 2.96890625 23.65234375 2.30890625 23.65234375 1.62890625 C19.45235415 1.67311667 15.25380365 1.74300508 11.0546875 1.83642578 C9.62707438 1.86460236 8.19930622 1.88583352 6.77148438 1.89990234 C4.71534043 1.92138017 2.66105373 1.96804599 0.60546875 2.01953125 C-0.63041992 2.04047852 -1.86630859 2.06142578 -3.13964844 2.08300781 C-6.84964729 2.71432877 -8.03756536 3.73372683 -10.34765625 6.62890625 C-11.00765625 6.29890625 -11.66765625 5.96890625 -12.34765625 5.62890625 C-8.42744771 0.90205114 -6.09547712 -0.00342892 0 0 Z " fill="#9C9D9A" transform="translate(419.34765625,86.37109375)"/>
<path d="M0 0 C4.05656281 -0.1238616 8.11238978 -0.21445733 12.17041016 -0.2746582 C13.54983702 -0.2997593 14.92913142 -0.33384873 16.30810547 -0.37719727 C18.29335872 -0.43802875 20.27959359 -0.46357937 22.265625 -0.48828125 C24.05661621 -0.52755737 24.05661621 -0.52755737 25.88378906 -0.56762695 C29 0 29 0 31.42089844 2.53051758 C31.94200195 3.34544678 32.46310547 4.16037598 33 5 C31.02 5.99 31.02 5.99 29 7 C28.62383545 6.1850708 28.2476709 5.3701416 27.86010742 4.53051758 C26.24558214 1.74817395 26.24558214 1.74817395 23.36450195 1.43237305 C21.81702271 1.47164917 21.81702271 1.47164917 20.23828125 1.51171875 C19.12001953 1.52783203 18.00175781 1.54394531 16.84960938 1.56054688 C15.68236328 1.60244141 14.51511719 1.64433594 13.3125 1.6875 C12.13365234 1.71005859 10.95480469 1.73261719 9.74023438 1.75585938 C6.82555452 1.81486099 3.91340839 1.89713659 1 2 C0.67 1.34 0.34 0.68 0 0 Z " fill="#2B302F" transform="translate(414,88)"/>
<path d="M0 0 C0.33 0.99 0.66 1.98 1 3 C0.67 3.66 0.34 4.32 0 5 C0.99 5.33 1.98 5.66 3 6 C1.35 6.33 -0.3 6.66 -2 7 C-2 6.34 -2 5.68 -2 5 C-2.66 4.67 -3.32 4.34 -4 4 C-2.68 2.68 -1.36 1.36 0 0 Z " fill="#2B3030" transform="translate(412,89)"/>
<path d="M0 0 C0.66 0 1.32 0 2 0 C1.25 5.75 1.25 5.75 -1 8 C-1 7.01 -1 6.02 -1 5 C-1.66 4.67 -2.32 4.34 -3 4 C-1.625 2 -1.625 2 0 0 Z " fill="#B4D5DA" transform="translate(78,330)"/>
</svg>
