<?xml version="1.0" encoding="UTF-8"?>
<svg version="1.1" xmlns="http://www.w3.org/2000/svg" width="500" height="500">
<path d="M0 0 C0.72180993 -0.00551417 1.44361987 -0.01102833 2.18730283 -0.0167096 C4.62501612 -0.03039 7.06172466 -0.01536269 9.49942017 -0.00063419 C11.2570408 -0.00452402 13.01465829 -0.01016189 14.7722683 -0.01740509 C19.61687986 -0.03222359 24.46116852 -0.02194075 29.30576992 -0.00766838 C34.52465386 0.00340136 39.743491 -0.00848788 44.96237183 -0.01751041 C55.19198948 -0.03147224 65.42148403 -0.02386502 75.65109587 -0.00883483 C87.55383511 0.00799066 99.45654338 0.00481939 111.35929084 0.00107109 C132.59108415 -0.00481288 153.82281824 0.00938513 175.05459595 0.03401852 C195.67571229 0.05794085 216.29674947 0.06502346 236.9178772 0.05452633 C259.3512449 0.04312721 281.78457595 0.0411746 304.21794319 0.05562443 C306.60825729 0.05715033 308.99857139 0.05867069 311.3888855 0.06018543 C312.56508937 0.06094325 313.74129325 0.06170106 314.95313966 0.06248184 C323.25785831 0.06723246 331.56256065 0.06536773 339.86727905 0.06112003 C349.98241779 0.05620266 360.09748156 0.06213614 370.21260309 0.08201433 C375.37746125 0.09191285 380.54220506 0.09696396 385.7070694 0.08912182 C390.42947325 0.08209799 395.15164571 0.08879179 399.87401891 0.10672545 C401.58796417 0.11079148 403.3019303 0.10973432 405.01586795 0.10320658 C407.33501782 0.09512569 409.65337477 0.10528269 411.97247314 0.12025452 C413.9094554 0.12179821 413.9094554 0.12179821 415.88556862 0.12337309 C418.98623657 0.50057125 418.98623657 0.50057125 420.90117615 1.75369298 C422.25757341 3.93740631 422.36115019 5.26467987 422.36096668 7.83094025 C422.36817323 8.72046247 422.37537977 9.60998469 422.38280469 10.52646214 C422.37543041 11.50466024 422.36805612 12.48285834 422.36045837 13.49069881 C422.36443278 14.52907326 422.36840719 15.5674477 422.37250203 16.63728803 C422.38216379 20.13360107 422.37028331 23.62951339 422.35855103 27.12581539 C422.36097769 29.62544564 422.36469579 32.12507491 422.36961365 34.6247015 C422.37806267 40.71909353 422.37249312 46.81332723 422.36035071 52.90770108 C422.34674511 60.0000026 422.34836726 67.0922758 422.35048404 74.18458705 C422.35367536 86.83559374 422.34199758 99.48654415 422.32241821 112.13753414 C422.30340941 124.42303334 422.29633153 136.7084666 422.3019104 148.99397945 C422.30796316 162.362675 422.30780068 175.73134152 422.29642457 189.10003465 C422.29521724 190.52449063 422.29401125 191.94894661 422.29280663 193.3734026 C422.29190132 194.42477903 422.29190132 194.42477903 422.29097772 195.49739539 C422.28709267 200.44528109 422.28749445 205.39315602 422.28939247 210.34104252 C422.29173159 216.99514736 422.28321288 223.64917911 422.26733208 230.30326939 C422.26307359 232.75190281 422.2622491 235.20054485 422.26502228 237.64918041 C422.26822219 240.97869087 422.25921782 244.30794341 422.24693298 247.63742733 C422.25071231 248.61785616 422.25449163 249.59828498 422.25838548 250.60842377 C422.25255329 251.49533825 422.24672109 252.38225272 422.24071217 253.2960434 C422.23984539 254.06524945 422.23897861 254.8344555 422.23808557 255.62697083 C421.98623657 257.50057125 421.98623657 257.50057125 419.98623657 259.50057125 C417.55606079 259.72762203 417.55606079 259.72762203 414.54092407 259.69588375 C413.46455688 259.68943844 412.3881897 259.68299313 411.27920532 259.6763525 C410.15127563 259.65959469 409.02334595 259.64283688 407.86123657 259.62557125 C406.72557251 259.61654781 405.58990845 259.60752438 404.41983032 259.5982275 C401.60842359 259.57460223 398.79743359 259.54166138 395.98623657 259.50057125 C395.9906778 260.71944027 395.99511902 261.93830929 395.99969482 263.19411373 C396.04020888 274.67144974 396.07020559 286.14877128 396.08986092 297.62616253 C396.10030554 303.52703738 396.1144772 309.42785458 396.13711548 315.32869625 C396.15881954 321.02154515 396.17080009 326.71433854 396.17599106 332.40722561 C396.17969119 334.58097616 396.18691645 336.75472362 396.19769669 338.92845058 C396.2121791 341.96915957 396.21421586 345.00963811 396.21328735 348.05037594 C396.22047791 348.95236721 396.22766846 349.85435848 396.2350769 350.78368282 C396.23232758 351.61376858 396.22957825 352.44385433 396.22674561 353.2990942 C396.22951098 354.37759199 396.22951098 354.37759199 396.23233223 355.47787762 C395.94663515 357.82606076 395.14590706 359.45500222 393.98623657 361.50057125 C389.6079974 361.54995274 385.22990511 361.58628165 380.85147095 361.61043453 C379.36153338 361.62050168 377.8716156 361.63415643 376.38174438 361.65145016 C374.24204629 361.67566778 372.10260904 361.68704689 369.96279907 361.69588375 C368.67454224 361.70635738 367.3862854 361.71683102 366.05899048 361.72762203 C362.98623657 361.50057125 362.98623657 361.50057125 360.98623657 359.50057125 C360.98623657 326.50057125 360.98623657 293.50057125 360.98623657 259.50057125 C258.68623657 259.50057125 156.38623657 259.50057125 50.98623657 259.50057125 C51.31623657 284.25057125 51.64623657 309.00057125 51.98623657 334.50057125 C51.98623657 358.50057125 51.98623657 358.50057125 49.98623657 361.50057125 C47.50282754 361.76784139 45.27151589 361.84923459 42.79092407 361.79354 C42.08348053 361.78929516 41.37603699 361.78505032 40.64715576 361.78067684 C38.38479753 361.76386672 36.12332609 361.72621253 33.86123657 361.68807125 C32.32869734 361.67302733 30.79614417 361.65933841 29.26358032 361.64705563 C25.50412339 361.61395587 21.74533039 361.5621595 17.98623657 361.50057125 C16.36029622 358.63253824 15.73729229 356.58883951 15.74572754 353.2990942 C15.74297821 352.46900845 15.74022888 351.63892269 15.73739624 350.78368282 C15.74818207 349.43069592 15.74818207 349.43069592 15.75918579 348.05037594 C15.75889374 347.09394192 15.75860168 346.1375079 15.75830078 345.15209103 C15.75969364 341.99211701 15.77525291 338.83237906 15.79092407 335.67244625 C15.79465436 333.48098028 15.79750126 331.28951263 15.79949951 329.0980444 C15.80713474 323.33092803 15.82678237 317.56391245 15.84890747 311.7968359 C15.86936822 305.91163655 15.87850172 300.02642092 15.88858032 294.14119625 C15.91002829 282.59427698 15.94416299 271.0474325 15.98623657 259.50057125 C15.26967896 259.5162817 14.55312134 259.53199215 13.81484985 259.54817867 C10.58039181 259.61038988 7.34605938 259.64951774 4.11123657 259.68807125 C2.41934204 259.72577633 2.41934204 259.72577633 0.69326782 259.76424313 C-0.38309937 259.77391109 -1.45946655 259.78357906 -2.56845093 259.79354 C-3.56344604 259.80925045 -4.55844116 259.8249609 -5.58358765 259.84114742 C-6.38554565 259.72875729 -7.18750366 259.61636715 -8.01376343 259.50057125 C-10.0868028 256.3910122 -10.26423294 255.72981124 -10.26823902 252.20702362 C-10.27407121 251.32570159 -10.27990341 250.44437955 -10.28591233 249.53635079 C-10.28213301 248.56729882 -10.27835369 247.59824685 -10.27445984 246.59982967 C-10.27828539 245.57103347 -10.28211093 244.54223726 -10.28605241 243.48226541 C-10.29641086 240.0183454 -10.29238484 236.55459026 -10.28842163 233.09065914 C-10.29276652 230.61397809 -10.29794892 228.13729838 -10.3039093 225.66062069 C-10.31593858 219.62174465 -10.31844782 213.58293397 -10.31610904 207.54405195 C-10.31432768 202.63663889 -10.3160716 197.72923934 -10.32033348 192.82182789 C-10.32092867 192.12399822 -10.32152386 191.42616855 -10.32213708 190.70719252 C-10.32334881 189.28965605 -10.32456294 187.87211957 -10.32577946 186.4545831 C-10.33666176 173.15389479 -10.33448924 159.85323182 -10.32839461 146.55254208 C-10.32322479 134.37893381 -10.33448137 122.20540554 -10.35349283 110.03181309 C-10.37285471 97.53827411 -10.38113014 85.04477301 -10.37736958 72.55121893 C-10.37545503 65.5345086 -10.37796975 58.51786637 -10.39208412 51.50116825 C-10.40521904 44.90449895 -10.40276036 38.30796371 -10.38967323 31.71128559 C-10.38729825 29.28606393 -10.39007487 26.86083111 -10.39829636 24.43562222 C-10.40868755 21.13299134 -10.40072443 17.83090712 -10.38798523 14.52829647 C-10.39535951 13.56147523 -10.4027338 12.59465398 -10.41033155 11.59853512 C-10.403125 10.71460534 -10.39591846 9.83067556 -10.38849354 8.91996002 C-10.38854855 8.15758894 -10.38860357 7.39521785 -10.38866025 6.60974461 C-9.27203768 0.32761464 -5.80529655 0.00048255 0 0 Z " fill="#C7C7C7" transform="translate(44.013763427734375,69.49942874908447)"/>
<path d="M0 0 C0.72180993 -0.00551417 1.44361987 -0.01102833 2.18730283 -0.0167096 C4.62501612 -0.03039 7.06172466 -0.01536269 9.49942017 -0.00063419 C11.2570408 -0.00452402 13.01465829 -0.01016189 14.7722683 -0.01740509 C19.61687986 -0.03222359 24.46116852 -0.02194075 29.30576992 -0.00766838 C34.52465386 0.00340136 39.743491 -0.00848788 44.96237183 -0.01751041 C55.19198948 -0.03147224 65.42148403 -0.02386502 75.65109587 -0.00883483 C87.55383511 0.00799066 99.45654338 0.00481939 111.35929084 0.00107109 C132.59108415 -0.00481288 153.82281824 0.00938513 175.05459595 0.03401852 C195.67571229 0.05794085 216.29674947 0.06502346 236.9178772 0.05452633 C259.3512449 0.04312721 281.78457595 0.0411746 304.21794319 0.05562443 C306.60825729 0.05715033 308.99857139 0.05867069 311.3888855 0.06018543 C312.56508937 0.06094325 313.74129325 0.06170106 314.95313966 0.06248184 C323.25785831 0.06723246 331.56256065 0.06536773 339.86727905 0.06112003 C349.98241779 0.05620266 360.09748156 0.06213614 370.21260309 0.08201433 C375.37746125 0.09191285 380.54220506 0.09696396 385.7070694 0.08912182 C390.42947325 0.08209799 395.15164571 0.08879179 399.87401891 0.10672545 C401.58796417 0.11079148 403.3019303 0.10973432 405.01586795 0.10320658 C407.33501782 0.09512569 409.65337477 0.10528269 411.97247314 0.12025452 C413.9094554 0.12179821 413.9094554 0.12179821 415.88556862 0.12337309 C418.98623657 0.50057125 418.98623657 0.50057125 420.90117615 1.75369298 C422.25757341 3.93740631 422.36115019 5.26467987 422.36096668 7.83094025 C422.36817323 8.72046247 422.37537977 9.60998469 422.38280469 10.52646214 C422.37543041 11.50466024 422.36805612 12.48285834 422.36045837 13.49069881 C422.36443278 14.52907326 422.36840719 15.5674477 422.37250203 16.63728803 C422.38216379 20.13360107 422.37028331 23.62951339 422.35855103 27.12581539 C422.36097769 29.62544564 422.36469579 32.12507491 422.36961365 34.6247015 C422.37806267 40.71909353 422.37249312 46.81332723 422.36035071 52.90770108 C422.34674511 60.0000026 422.34836726 67.0922758 422.35048404 74.18458705 C422.35367536 86.83559374 422.34199758 99.48654415 422.32241821 112.13753414 C422.30340941 124.42303334 422.29633153 136.7084666 422.3019104 148.99397945 C422.30796316 162.362675 422.30780068 175.73134152 422.29642457 189.10003465 C422.29521724 190.52449063 422.29401125 191.94894661 422.29280663 193.3734026 C422.29190132 194.42477903 422.29190132 194.42477903 422.29097772 195.49739539 C422.28709267 200.44528109 422.28749445 205.39315602 422.28939247 210.34104252 C422.29173159 216.99514736 422.28321288 223.64917911 422.26733208 230.30326939 C422.26307359 232.75190281 422.2622491 235.20054485 422.26502228 237.64918041 C422.26822219 240.97869087 422.25921782 244.30794341 422.24693298 247.63742733 C422.25071231 248.61785616 422.25449163 249.59828498 422.25838548 250.60842377 C422.25255329 251.49533825 422.24672109 252.38225272 422.24071217 253.2960434 C422.23984539 254.06524945 422.23897861 254.8344555 422.23808557 255.62697083 C421.98623657 257.50057125 421.98623657 257.50057125 419.98623657 259.50057125 C417.55606079 259.72762203 417.55606079 259.72762203 414.54092407 259.69588375 C413.46455688 259.68943844 412.3881897 259.68299313 411.27920532 259.6763525 C410.15127563 259.65959469 409.02334595 259.64283688 407.86123657 259.62557125 C406.72557251 259.61654781 405.58990845 259.60752438 404.41983032 259.5982275 C401.60842359 259.57460223 398.79743359 259.54166138 395.98623657 259.50057125 C395.9906778 260.71944027 395.99511902 261.93830929 395.99969482 263.19411373 C396.04020888 274.67144974 396.07020559 286.14877128 396.08986092 297.62616253 C396.10030554 303.52703738 396.1144772 309.42785458 396.13711548 315.32869625 C396.15881954 321.02154515 396.17080009 326.71433854 396.17599106 332.40722561 C396.17969119 334.58097616 396.18691645 336.75472362 396.19769669 338.92845058 C396.2121791 341.96915957 396.21421586 345.00963811 396.21328735 348.05037594 C396.22047791 348.95236721 396.22766846 349.85435848 396.2350769 350.78368282 C396.23232758 351.61376858 396.22957825 352.44385433 396.22674561 353.2990942 C396.22951098 354.37759199 396.22951098 354.37759199 396.23233223 355.47787762 C395.94663515 357.82606076 395.14590706 359.45500222 393.98623657 361.50057125 C389.6079974 361.54995274 385.22990511 361.58628165 380.85147095 361.61043453 C379.36153338 361.62050168 377.8716156 361.63415643 376.38174438 361.65145016 C374.24204629 361.67566778 372.10260904 361.68704689 369.96279907 361.69588375 C368.67454224 361.70635738 367.3862854 361.71683102 366.05899048 361.72762203 C362.98623657 361.50057125 362.98623657 361.50057125 360.98623657 359.50057125 C360.98623657 326.50057125 360.98623657 293.50057125 360.98623657 259.50057125 C258.68623657 259.50057125 156.38623657 259.50057125 50.98623657 259.50057125 C51.31623657 284.25057125 51.64623657 309.00057125 51.98623657 334.50057125 C51.98623657 358.50057125 51.98623657 358.50057125 49.98623657 361.50057125 C47.50282754 361.76784139 45.27151589 361.84923459 42.79092407 361.79354 C42.08348053 361.78929516 41.37603699 361.78505032 40.64715576 361.78067684 C38.38479753 361.76386672 36.12332609 361.72621253 33.86123657 361.68807125 C32.32869734 361.67302733 30.79614417 361.65933841 29.26358032 361.64705563 C25.50412339 361.61395587 21.74533039 361.5621595 17.98623657 361.50057125 C16.36029622 358.63253824 15.73729229 356.58883951 15.74572754 353.2990942 C15.74297821 352.46900845 15.74022888 351.63892269 15.73739624 350.78368282 C15.74818207 349.43069592 15.74818207 349.43069592 15.75918579 348.05037594 C15.75889374 347.09394192 15.75860168 346.1375079 15.75830078 345.15209103 C15.75969364 341.99211701 15.77525291 338.83237906 15.79092407 335.67244625 C15.79465436 333.48098028 15.79750126 331.28951263 15.79949951 329.0980444 C15.80713474 323.33092803 15.82678237 317.56391245 15.84890747 311.7968359 C15.86936822 305.91163655 15.87850172 300.02642092 15.88858032 294.14119625 C15.91002829 282.59427698 15.94416299 271.0474325 15.98623657 259.50057125 C15.26967896 259.5162817 14.55312134 259.53199215 13.81484985 259.54817867 C10.58039181 259.61038988 7.34605938 259.64951774 4.11123657 259.68807125 C2.41934204 259.72577633 2.41934204 259.72577633 0.69326782 259.76424313 C-0.38309937 259.77391109 -1.45946655 259.78357906 -2.56845093 259.79354 C-3.56344604 259.80925045 -4.55844116 259.8249609 -5.58358765 259.84114742 C-6.38554565 259.72875729 -7.18750366 259.61636715 -8.01376343 259.50057125 C-10.0868028 256.3910122 -10.26423294 255.72981124 -10.26823902 252.20702362 C-10.27407121 251.32570159 -10.27990341 250.44437955 -10.28591233 249.53635079 C-10.28213301 248.56729882 -10.27835369 247.59824685 -10.27445984 246.59982967 C-10.27828539 245.57103347 -10.28211093 244.54223726 -10.28605241 243.48226541 C-10.29641086 240.0183454 -10.29238484 236.55459026 -10.28842163 233.09065914 C-10.29276652 230.61397809 -10.29794892 228.13729838 -10.3039093 225.66062069 C-10.31593858 219.62174465 -10.31844782 213.58293397 -10.31610904 207.54405195 C-10.31432768 202.63663889 -10.3160716 197.72923934 -10.32033348 192.82182789 C-10.32092867 192.12399822 -10.32152386 191.42616855 -10.32213708 190.70719252 C-10.32334881 189.28965605 -10.32456294 187.87211957 -10.32577946 186.4545831 C-10.33666176 173.15389479 -10.33448924 159.85323182 -10.32839461 146.55254208 C-10.32322479 134.37893381 -10.33448137 122.20540554 -10.35349283 110.03181309 C-10.37285471 97.53827411 -10.38113014 85.04477301 -10.37736958 72.55121893 C-10.37545503 65.5345086 -10.37796975 58.51786637 -10.39208412 51.50116825 C-10.40521904 44.90449895 -10.40276036 38.30796371 -10.38967323 31.71128559 C-10.38729825 29.28606393 -10.39007487 26.86083111 -10.39829636 24.43562222 C-10.40868755 21.13299134 -10.40072443 17.83090712 -10.38798523 14.52829647 C-10.39535951 13.56147523 -10.4027338 12.59465398 -10.41033155 11.59853512 C-10.403125 10.71460534 -10.39591846 9.83067556 -10.38849354 8.91996002 C-10.38854855 8.15758894 -10.38860357 7.39521785 -10.38866025 6.60974461 C-9.27203768 0.32761464 -5.80529655 0.00048255 0 0 Z M-6.01376343 4.50057125 C-6.01376343 85.02057125 -6.01376343 165.54057125 -6.01376343 248.50057125 C133.90623657 248.50057125 273.82623657 248.50057125 417.98623657 248.50057125 C417.98623657 167.98057125 417.98623657 87.46057125 417.98623657 4.50057125 C278.06623657 4.50057125 138.14623657 4.50057125 -6.01376343 4.50057125 Z " fill="#3E3F40" transform="translate(44.013763427734375,69.49942874908447)"/>
<path d="M0 0 C139.92 0 279.84 0 424 0 C424 1.65 424 3.3 424 5 C424.99 5.66 425.98 6.32 427 7 C426 8 426 8 423.68334961 8.11352539 C422.68311768 8.10828857 421.68288574 8.10305176 420.65234375 8.09765625 C419.57275391 8.09443359 418.49316406 8.09121094 417.38085938 8.08789062 C416.24455078 8.07951172 415.10824219 8.07113281 413.9375 8.0625 C412.79732422 8.05798828 411.65714844 8.05347656 410.48242188 8.04882812 C407.65489649 8.03699747 404.8274736 8.0205141 402 8 C402.00444122 9.21886902 402.00888245 10.43773804 402.01345825 11.69354248 C402.05397231 23.17087849 402.08396902 34.64820003 402.10362434 46.12559128 C402.11406896 52.02646613 402.12824062 57.92728333 402.15087891 63.828125 C402.17258297 69.5209739 402.18456352 75.21376728 402.18975449 80.90665436 C402.19345461 83.08040491 402.20067988 85.25415237 402.21146011 87.42787933 C402.22594253 90.46858832 402.22797929 93.50906685 402.22705078 96.54980469 C402.23424133 97.45179596 402.24143188 98.35378723 402.24884033 99.28311157 C402.246091 100.11319733 402.24334167 100.94328308 402.24050903 101.79852295 C402.24327441 102.87702074 402.24327441 102.87702074 402.24609566 103.97730637 C401.96039857 106.32548951 401.15967049 107.95443097 400 110 C395.62176083 110.04938149 391.24366854 110.0857104 386.86523438 110.10986328 C385.3752968 110.11993043 383.88537903 110.13358518 382.39550781 110.15087891 C380.25580972 110.17509653 378.11637247 110.18647564 375.9765625 110.1953125 C374.68830566 110.20578613 373.40004883 110.21625977 372.07275391 110.22705078 C369 110 369 110 367 108 C367 75 367 42 367 8 C264.7 8 162.4 8 57 8 C57.33 32.75 57.66 57.5 58 83 C58 107 58 107 56 110 C53.51659097 110.26727014 51.28527932 110.34866334 48.8046875 110.29296875 C48.09724396 110.28872391 47.38980042 110.28447906 46.66091919 110.28010559 C44.39856095 110.26329547 42.13708952 110.22564128 39.875 110.1875 C38.34246077 110.17245607 36.8099076 110.15876716 35.27734375 110.14648438 C31.51788682 110.11338462 27.75909382 110.06158825 24 110 C23.505 109.01 23.505 109.01 23 108 C33.56 108 44.12 108 55 108 C55 73.68 55 39.36 55 4 C36.85 4 18.7 4 0 4 C0 2.68 0 1.36 0 0 Z " fill="#75797C" transform="translate(38,321)"/>
<path d="M0 0 C0.72210953 -0.00491497 1.44421906 -0.00982995 2.1882107 -0.01489386 C4.62694888 -0.02655668 7.06465906 -0.00950487 9.50335598 0.00723743 C11.26168793 0.00477879 13.02001816 0.00056615 14.77834219 -0.00525731 C19.62489836 -0.01618085 24.47111276 -0.00203607 29.31763566 0.01606309 C34.53853451 0.03123506 39.75940383 0.02341123 44.98031521 0.01837635 C55.21361844 0.01213907 65.44678695 0.02716801 75.68006427 0.04910197 C87.58604664 0.07374372 99.49200405 0.07670471 111.39800816 0.07850573 C132.6342797 0.08238559 153.87049036 0.10487712 175.10673428 0.13829517 C195.73466654 0.17072968 216.36256668 0.19197434 236.99052334 0.19981861 C238.89633505 0.20054685 238.89633505 0.20054685 240.840648 0.2012898 C245.94695109 0.20321832 251.05325418 0.20513045 256.15955729 0.2070059 C275.78825879 0.21453154 295.41695498 0.23016158 315.04564999 0.2475025 C320.98298532 0.25274417 326.92032054 0.25767699 332.85765672 0.26186442 C345.34621789 0.27077457 357.83476361 0.28252346 370.32331116 0.30343046 C375.49003598 0.3120471 380.65675003 0.31912244 385.82348156 0.32194614 C390.54637704 0.32460303 395.26924144 0.3318633 399.99212449 0.34293661 C401.70739989 0.34615606 403.42267943 0.34767403 405.13795782 0.34738632 C407.45625097 0.34726207 409.7744488 0.35319666 412.09272766 0.36076355 C413.38442889 0.36255212 414.67613011 0.36434069 416.0069738 0.36618346 C418.98344326 0.49498463 418.98344326 0.49498463 420.98344326 1.49498463 C420.65344326 2.81498463 420.32344326 4.13498463 419.98344326 5.49498463 C279.40344326 5.16498463 138.82344326 4.83498463 -6.01655674 4.49498463 C-6.01655674 84.35498463 -6.01655674 164.21498463 -6.01655674 246.49498463 C-6.34655674 246.49498463 -6.67655674 246.49498463 -7.01655674 246.49498463 C-7.34655674 249.79498463 -7.67655674 253.09498463 -8.01655674 256.49498463 C-8.67655674 256.49498463 -9.33655674 256.49498463 -10.01655674 256.49498463 C-10.0849628 224.45977276 -10.13806936 192.42458164 -10.16975273 160.38931383 C-10.17350495 156.60910762 -10.1773879 152.82890156 -10.18135166 149.04869556 C-10.18213859 148.29610988 -10.18292552 147.5435242 -10.1837363 146.7681329 C-10.19679789 134.57494377 -10.22045586 122.38179698 -10.24801513 110.18863299 C-10.27604841 97.68163907 -10.29272859 85.17466736 -10.29882222 72.66764331 C-10.30294299 64.94724317 -10.31596809 57.2269627 -10.34030614 49.5065994 C-10.3580065 43.59124782 -10.35992762 37.67595799 -10.35587978 31.76057911 C-10.35670758 29.33051535 -10.36270741 26.9004472 -10.37417316 24.47041035 C-10.38902659 21.16107023 -10.38553627 17.85224851 -10.37732029 14.54289722 C-10.38605881 13.57402962 -10.39479734 12.60516201 -10.40380067 11.60693479 C-10.39782752 10.72115491 -10.39185438 9.83537503 -10.38570023 8.92275333 C-10.38683939 8.15875603 -10.38797855 7.39475873 -10.38915223 6.60760999 C-9.28008957 0.31919809 -5.80670582 -0.00439059 0 0 Z " fill="#646566" transform="translate(44.01655673980713,69.50501537322998)"/>
<path d="M0 0 C8.91 0 17.82 0 27 0 C27 32.34 27 64.68 27 98 C18.09 98 9.18 98 0 98 C0 65.66 0 33.32 0 0 Z " fill="#75797C" transform="translate(64,329)"/>
<path d="M0 0 C139.92 0 279.84 0 424 0 C424 1.65 424 3.3 424 5 C424.99 5.66 425.98 6.32 427 7 C426.67 7.33 426.34 7.66 426 8 C418.08 8 410.16 8 402 8 C402 40.34 402 72.68 402 106 C401.67 106 401.34 106 401 106 C401 73.66 401 41.32 401 8 C392.09 8 383.18 8 374 8 C374.33 7.01 374.66 6.02 375 5 C251.25 4.67 127.5 4.34 0 4 C0 2.68 0 1.36 0 0 Z " fill="#898A8C" transform="translate(38,321)"/>
<path d="M0 0 C86.46 0 172.92 0 262 0 C261.34 1.32 260.68 2.64 260 4 C268.91 4 277.82 4 287 4 C287 36.67 287 69.34 287 103 C286.01 102.67 285.02 102.34 284 102 C284 76.59 284 51.18 284 25 C275.09 25 266.18 25 257 25 C257 50.74 257 76.48 257 103 C256.01 103 255.02 103 254 103 C254 70 254 37 254 3 C242.61826294 3.00785522 242.61826294 3.00785522 231.0065918 3.01586914 C206.74621116 3.031909 182.48583068 3.04303812 158.22544615 3.05106533 C154.45897255 3.05231608 150.69249897 3.0536104 146.92602539 3.05493164 C146.17616801 3.05519395 145.42631064 3.05545626 144.65373031 3.05572652 C132.50191803 3.06008136 120.35011046 3.06796789 108.19830098 3.0771528 C95.73538002 3.0864945 83.27246154 3.09205671 70.80953723 3.09408849 C63.11528359 3.09546264 55.42104328 3.09980743 47.72679374 3.10791647 C41.833223 3.11381247 35.93965915 3.11445765 30.04608536 3.11310768 C27.62367101 3.11338381 25.20125618 3.11538631 22.77884483 3.11920547 C19.48244238 3.1241496 16.18609789 3.12299557 12.88969421 3.12025452 C11.43785997 3.12462378 11.43785997 3.12462378 9.95669574 3.12908131 C8.63623758 3.12609474 8.63623758 3.12609474 7.28910351 3.12304783 C6.52776425 3.12342755 5.76642498 3.12380727 4.98201483 3.1241985 C3 3 3 3 0 2 C0 1.34 0 0.68 0 0 Z " fill="#464749" transform="translate(152,325)"/>
<path d="M0 0 C0.66 0 1.32 0 2 0 C2 83.82 2 167.64 2 254 C0.35 253.67 -1.3 253.34 -3 253 C-2.34 250.69 -1.68 248.38 -1 246 C-2.65 246 -4.3 246 -6 246 C-4.68 245.67 -3.36 245.34 -2 245 C-2 164.81 -2 84.62 -2 2 C-1.34 2 -0.68 2 0 2 C0 1.34 0 0.68 0 0 Z " fill="#4F4F4F" transform="translate(464,73)"/>
<path d="M0 0 C9.9 0 19.8 0 30 0 C30 32.67 30 65.34 30 99 C28.515 98.505 28.515 98.505 27 98 C27 72.59 27 47.18 27 21 C18.09 21 9.18 21 0 21 C0 14.07 0 7.14 0 0 Z " fill="#5E6364" transform="translate(409,329)"/>
<path d="M0 0 C19.47 0 38.94 0 59 0 C59 0.66 59 1.32 59 2 C142.82 2.33 226.64 2.66 313 3 C313 36.33 313 69.66 313 104 C312.67 104 312.34 104 312 104 C312 71 312 38 312 4 C209.7 4 107.4 4 2 4 C2.33 28.75 2.66 53.5 3 79 C3 103 3 103 1 106 C-1.48340903 106.26727014 -3.71472068 106.34866334 -6.1953125 106.29296875 C-6.90275604 106.28872391 -7.61019958 106.28447906 -8.33908081 106.28010559 C-10.60143905 106.26329547 -12.86291048 106.22564128 -15.125 106.1875 C-16.65753923 106.17245607 -18.1900924 106.15876716 -19.72265625 106.14648438 C-23.48211318 106.11338462 -27.24090618 106.06158825 -31 106 C-31.33 105.34 -31.66 104.68 -32 104 C-21.44 104 -10.88 104 0 104 C0 69.68 0 35.36 0 0 Z " fill="#7F8081" transform="translate(93,325)"/>
<path d="M0 0 C1.86718719 1.57102641 2.89774606 2.47541874 3.37259549 4.91148251 C3.37088675 6.00336832 3.37088675 6.00336832 3.36914349 7.11731243 C3.37511663 7.95930052 3.38108978 8.8012886 3.38724393 9.66879147 C3.3785054 10.59388054 3.36976688 11.51896961 3.36076355 12.47209167 C3.36332682 13.45470752 3.3658901 14.43732336 3.36853105 15.44971544 C3.37349032 18.75725022 3.35694049 22.06433312 3.34057617 25.37182617 C3.33973036 27.73677052 3.34020413 30.10171566 3.34190369 32.46665955 C3.34267715 38.23151528 3.32964325 43.99622189 3.31059071 49.76104351 C3.28916412 56.46802377 3.28465688 63.17498268 3.2812262 69.88199238 C3.27465796 81.84315342 3.25468674 93.80425313 3.22631836 105.76538086 C3.19878739 117.38549492 3.17754911 129.00559234 3.16479492 140.62573242 C3.16400675 141.34182319 3.16321858 142.05791396 3.16240653 142.79570445 C3.15849146 146.38806954 3.15470032 149.98043475 3.15097082 153.57280004 C3.11986334 183.38190967 3.06679467 213.19094767 3 243 C2.67 243 2.34 243 2 243 C1.67 246.3 1.34 249.6 1 253 C0.34 253 -0.32 253 -1 253 C-1.02278971 220.91371237 -1.04049783 188.82742704 -1.05106533 156.74113322 C-1.05231611 152.9570608 -1.05361042 149.17298841 -1.05493164 145.38891602 C-1.05519395 144.6355434 -1.05545626 143.88217079 -1.05572652 143.10596871 C-1.06008336 130.89137331 -1.06797098 118.67678259 -1.0771528 106.46218998 C-1.08648895 93.93825801 -1.09205553 81.4143285 -1.09408849 68.8903932 C-1.0954638 61.15621148 -1.09981481 53.42204301 -1.10791647 45.68786537 C-1.11380414 39.76733277 -1.11445906 33.84680705 -1.11310768 27.92627144 C-1.11338421 25.49011656 -1.11539193 23.05396121 -1.11920547 20.6178093 C-1.12413583 17.30757028 -1.12300073 13.99738923 -1.12025452 10.68714905 C-1.12316736 9.70954292 -1.1260802 8.73193679 -1.12908131 7.72470623 C-1.12709026 6.8448995 -1.12509921 5.96509277 -1.12304783 5.05862522 C-1.12342755 4.29348876 -1.12380727 3.52835229 -1.1241985 2.74002987 C-1 1 -1 1 0 0 Z " fill="#6F6F6F" transform="translate(35,73)"/>
<path d="M0 0 C139.26 0 278.52 0 422 0 C422.33 0.66 422.66 1.32 423 2 C423.99 2.66 424.98 3.32 426 4 C425.67 4.33 425.34 4.66 425 5 C417.08 5 409.16 5 401 5 C401 37.34 401 69.68 401 103 C400.67 103 400.34 103 400 103 C400 70.66 400 38.32 400 5 C391.09 5 382.18 5 373 5 C373.33 4.01 373.66 3.02 374 2 C250.58 1.67 127.16 1.34 0 1 C0 0.67 0 0.34 0 0 Z " fill="#9FA0A2" transform="translate(39,324)"/>
<path d="M0 0 C0.99 0.33 1.98 0.66 3 1 C3 33.34 3 65.68 3 99 C12.24 99 21.48 99 31 99 C31 66.66 31 34.32 31 1 C31.66 0.67 32.32 0.34 33 0 C33.0231209 13.15149024 33.04091379 26.30297569 33.05181217 39.45448208 C33.05704156 45.56056369 33.0641402 51.66663144 33.07543945 57.77270508 C33.08626637 63.66005147 33.09227642 69.54738449 33.09487724 75.43474007 C33.09673185 77.68632277 33.10035313 79.93790469 33.10573006 82.18948174 C33.11293789 85.33133427 33.11399105 88.47313083 33.11352539 91.61499023 C33.11712067 92.55581955 33.12071594 93.49664886 33.12442017 94.46598816 C33.11405216 100.88594784 33.11405216 100.88594784 32 102 C27.76128682 102.24221218 23.51684019 102.22851631 19.27197266 102.24023438 C17.14055196 102.24992926 15.01009992 102.28093407 12.87890625 102.3125 C11.52604741 102.319031 10.17318165 102.32428109 8.8203125 102.328125 C7.58555176 102.3374707 6.35079102 102.34681641 5.07861328 102.35644531 C2 102 2 102 0.3298645 100.90550232 C-1.67967529 98.02612421 -1.36657518 95.63802281 -1.35644531 92.15551758 C-1.35848969 91.46211273 -1.36053406 90.76870789 -1.36264038 90.05429077 C-1.36565743 87.75077255 -1.34710676 85.44796528 -1.328125 83.14453125 C-1.32506163 81.52479732 -1.32318991 79.90506075 -1.32244873 78.2853241 C-1.31783584 74.87297605 -1.30340017 71.46086265 -1.28125 68.04858398 C-1.25343414 63.74893294 -1.24216464 59.44946835 -1.23744965 55.1497364 C-1.21505185 36.74362206 -0.99339671 18.38361461 0 0 Z " fill="#272A2C" transform="translate(61,328)"/>
<path d="M0 0 C8.91 0 17.82 0 27 0 C27 6.93 27 13.86 27 21 C18.09 21 9.18 21 0 21 C0 14.07 0 7.14 0 0 Z " fill="#5E6364" transform="translate(64,329)"/>
<path d="M0 0 C0.33 0.99 0.66 1.98 1 3 C19.15 3 37.3 3 56 3 C55.67 36.66 55.34 70.32 55 105 C54.67 105 54.34 105 54 105 C54 72.66 54 40.32 54 7 C44.76 7 35.52 7 26 7 C25.34 6.67 24.68 6.34 24 6 C24 8.31 24 10.62 24 13 C23.67 13 23.34 13 23 13 C23 11.02 23 9.04 23 7 C15.08 7 7.16 7 -1 7 C-2 4 -2 4 -1.0625 1.8125 C-0.5365625 0.9153125 -0.5365625 0.9153125 0 0 Z " fill="#484A4C" transform="translate(37,322)"/>
<path d="M0 0 C0.99 0 1.98 0 3 0 C3 33 3 66 3 100 C2.01 100 1.02 100 0 100 C0 67 0 34 0 0 Z " fill="#323638" transform="translate(406,328)"/>
<path d="M0 0 C6.62020512 -0.0760474 13.24029765 -0.12859863 19.86083984 -0.16479492 C22.11316131 -0.17988395 24.36545339 -0.20035755 26.61767578 -0.22631836 C29.85456596 -0.26269593 33.09106775 -0.2797253 36.328125 -0.29296875 C37.83925873 -0.31619453 37.83925873 -0.31619453 39.38092041 -0.33988953 C40.32159363 -0.34011612 41.26226685 -0.34034271 42.23144531 -0.34057617 C43.05751282 -0.34723801 43.88358032 -0.35389984 44.73468018 -0.36076355 C47.50883291 0.08103419 48.90382619 1.17878692 51 3 C50.67 3.33 50.34 3.66 50 4 C42.08 4 34.16 4 26 4 C26 36.34 26 68.68 26 102 C25.67 102 25.34 102 25 102 C25 69.66 25 37.32 25 4 C16.09 4 7.18 4 -2 4 C-1.34 2.68 -0.68 1.36 0 0 Z " fill="#909293" transform="translate(414,325)"/>
<path d="M0 0 C0.99 0 1.98 0 3 0 C3 32.67 3 65.34 3 99 C2.01 98.67 1.02 98.34 0 98 C0 65.66 0 33.32 0 0 Z " fill="#26292B" transform="translate(436,329)"/>
<path d="M0 0 C0.33 0 0.66 0 1 0 C1.0231209 13.15149024 1.04091379 26.30297569 1.05181217 39.45448208 C1.05704156 45.56056369 1.0641402 51.66663144 1.07543945 57.77270508 C1.08626637 63.66005147 1.09227642 69.54738449 1.09487724 75.43474007 C1.09673185 77.68632277 1.10035313 79.93790469 1.10573006 82.18948174 C1.11293789 85.33133427 1.11399105 88.47313083 1.11352539 91.61499023 C1.11712067 92.55581955 1.12071594 93.49664886 1.12442017 94.46598816 C1.11405216 100.88594784 1.11405216 100.88594784 0 102 C-2.14558827 102.08775605 -4.29404421 102.10695219 -6.44140625 102.09765625 C-7.74658203 102.09443359 -9.05175781 102.09121094 -10.39648438 102.08789062 C-11.7851569 102.07953401 -13.17382877 102.07106905 -14.5625 102.0625 C-15.95507656 102.05748666 -17.34765481 102.05292347 -18.74023438 102.04882812 C-22.1601987 102.03699434 -25.58007844 102.0205088 -29 102 C-29 101.01 -29 100.02 -29 99 C-19.76 99 -10.52 99 -1 99 C-1.00523682 96.03652588 -1.01047363 93.07305176 -1.01586914 90.01977539 C-1.03240332 80.25284462 -1.04347053 70.48591324 -1.05181217 60.71897221 C-1.05704149 54.79449285 -1.06414001 48.87002778 -1.07543945 42.94555664 C-1.08626661 37.23327429 -1.09227647 31.52100572 -1.09487724 25.80871391 C-1.0967318 23.62411723 -1.100353 21.43952135 -1.10573006 19.2549305 C-1.11293821 16.20647651 -1.11399104 13.15808021 -1.11352539 10.10961914 C-1.11712067 9.19684204 -1.12071594 8.28406494 -1.12442017 7.34362793 C-1.11405216 1.11405216 -1.11405216 1.11405216 0 0 Z " fill="#2C2E30" transform="translate(93,328)"/>
<path d="M0 0 C0.66 0 1.32 0 2 0 C2.33 12.87 2.66 25.74 3 39 C11.25 39 19.5 39 28 39 C28 39.33 28 39.66 28 40 C23.73027701 40.25446319 19.45946347 40.47423855 15.1875 40.6875 C13.97255859 40.76033203 12.75761719 40.83316406 11.50585938 40.90820312 C9.76079102 40.99038086 9.76079102 40.99038086 7.98046875 41.07421875 C6.90692139 41.13182373 5.83337402 41.18942871 4.72729492 41.2487793 C2 41 2 41 0.14672852 40.01733398 C-1.71289793 36.74586426 -1.38527668 33.30852218 -1.328125 29.6484375 C-1.32531525 28.42648178 -1.32531525 28.42648178 -1.32244873 27.17984009 C-1.31573109 25.46002095 -1.30182222 23.74021702 -1.28125 22.02050781 C-1.25003676 19.37811199 -1.24027358 16.73631207 -1.234375 14.09375 C-1.22520743 12.42447184 -1.21483244 10.75519978 -1.203125 9.0859375 C-1.19887512 8.29118011 -1.19462524 7.49642273 -1.19024658 6.67758179 C-1.11716689 1.11716689 -1.11716689 1.11716689 0 0 Z " fill="#46484A" transform="translate(61,389)"/>
<path d="M0 0 C1.24458984 -0.00128906 2.48917969 -0.00257813 3.77148438 -0.00390625 C5.07279297 -0.00003906 6.37410156 0.00382812 7.71484375 0.0078125 C9.02001953 0.00394531 10.32519531 0.00007813 11.66992188 -0.00390625 C13.53487305 -0.00197266 13.53487305 -0.00197266 15.4375 0 C16.580979 0.00112793 17.72445801 0.00225586 18.90258789 0.00341797 C21.65234375 0.1328125 21.65234375 0.1328125 23.65234375 1.1328125 C23.32234375 2.1228125 22.99234375 3.1128125 22.65234375 4.1328125 C12.42234375 4.1328125 2.19234375 4.1328125 -8.34765625 4.1328125 C-8.67765625 3.1428125 -9.00765625 2.1528125 -9.34765625 1.1328125 C-6.01815625 0.02297917 -3.50606982 0.00345499 0 0 Z " fill="#5A5C5E" transform="translate(415.34765625,426.8671875)"/>
<path d="M0 0 C0.33 0.99 0.66 1.98 1 3 C5.95 3 10.9 3 16 3 C15.67 3.66 15.34 4.32 15 5 C17.97 5.33 20.94 5.66 24 6 C24 8.31 24 10.62 24 13 C23.67 13 23.34 13 23 13 C23 11.02 23 9.04 23 7 C15.08 7 7.16 7 -1 7 C-2 4 -2 4 -1.0625 1.8125 C-0.5365625 0.9153125 -0.5365625 0.9153125 0 0 Z " fill="#606162" transform="translate(37,322)"/>
<path d="M0 0 C0.33 0 0.66 0 1 0 C2.84345282 31.83247988 2.84345282 31.83247988 1 45 C0.34 45 -0.32 45 -1 45 C-1.02499343 40.35929747 -1.04299677 35.71863539 -1.05493164 31.07788086 C-1.05991488 29.50398067 -1.0667039 27.930085 -1.07543945 26.35620117 C-1.12323532 17.51396518 -1.0673356 8.7949897 0 0 Z " fill="#515254" transform="translate(61,341)"/>
<path d="M0 0 C1.91595968 -0.08133791 3.83291932 -0.13934367 5.75 -0.1875 C7.35101563 -0.23970703 7.35101563 -0.23970703 8.984375 -0.29296875 C12.30027855 0.02917214 13.59016673 0.77148914 16 3 C15 4 15 4 12.59155273 4.11352539 C11.54942627 4.10828857 10.5072998 4.10305176 9.43359375 4.09765625 C8.30888672 4.09443359 7.18417969 4.09121094 6.02539062 4.08789062 C4.84138672 4.07951172 3.65738281 4.07113281 2.4375 4.0625 C1.24962891 4.05798828 0.06175781 4.05347656 -1.16210938 4.04882812 C-4.10812226 4.03699675 -7.05403681 4.02051287 -10 4 C-10 3.67 -10 3.34 -10 3 C-9.36191406 2.95101563 -8.72382813 2.90203125 -8.06640625 2.8515625 C-7.24011719 2.77679688 -6.41382813 2.70203125 -5.5625 2.625 C-4.73878906 2.55539062 -3.91507812 2.48578125 -3.06640625 2.4140625 C-2.38449219 2.27742188 -1.70257813 2.14078125 -1 2 C-0.67 1.34 -0.34 0.68 0 0 Z " fill="#565759" transform="translate(449,325)"/>
<path d="M0 0 C-0.33 1.32 -0.66 2.64 -1 4 C-1.66 4 -2.32 4 -3 4 C-3 3.34 -3 2.68 -3 2 C-8.61 2 -14.22 2 -20 2 C-20 1.67 -20 1.34 -20 1 C-17.22922802 0.83225597 -14.45839073 0.66576064 -11.6875 0.5 C-10.90181641 0.45230469 -10.11613281 0.40460938 -9.30664062 0.35546875 C-8.54931641 0.31035156 -7.79199219 0.26523438 -7.01171875 0.21875 C-6.31522217 0.17685547 -5.61872559 0.13496094 -4.90112305 0.09179688 C-3.26903034 0.01299029 -1.63399421 0 0 0 Z " fill="#545454" transform="translate(465,71)"/>
<path d="M0 0 C0.66 0 1.32 0 2 0 C2 5.61 2 11.22 2 17 C1.67 17 1.34 17 1 17 C0.93941406 16.26394531 0.87882812 15.52789062 0.81640625 14.76953125 C0.73261719 13.79371094 0.64882813 12.81789063 0.5625 11.8125 C0.48128906 10.84957031 0.40007813 9.88664062 0.31640625 8.89453125 C0.04941042 6.0001302 0.04941042 6.0001302 -0.59765625 3.19921875 C-0.73042969 2.47347656 -0.86320312 1.74773437 -1 1 C-0.67 0.67 -0.34 0.34 0 0 Z " fill="#434648" transform="translate(61,389)"/>
</svg>
