<?xml version="1.0" encoding="UTF-8"?>
<svg version="1.1" xmlns="http://www.w3.org/2000/svg" width="512" height="512">
<path d="M0 0 C2.82782098 2.67426552 5.59185836 5.40511189 8.33597565 8.16447067 C9.3909398 9.21072028 10.44673001 10.25613749 11.50327301 11.30079269 C14.34721962 14.11815647 17.17842894 16.9479889 20.00656605 19.78121233 C22.37854201 22.15534095 24.75647457 24.52346008 27.13429618 26.89173162 C32.74853577 32.48384959 38.35213848 38.08647031 43.9492569 43.69572067 C49.70206246 49.46060441 55.47297905 55.2068884 61.25307488 60.94439852 C66.23578259 65.89175567 71.20667049 70.85077788 76.16848731 75.81908643 C79.12301327 78.77721919 82.08169964 81.73084272 85.05198669 84.67315674 C87.84652908 87.44235666 90.62589882 90.22597273 93.39480591 93.02079773 C94.40621213 94.03689438 95.42263034 95.04803388 96.44467926 96.05342484 C104.33899407 103.82839982 111.92184497 112.96260782 112.48734283 124.54484177 C111.81606544 138.64166704 104.9197204 146.81209987 95.3003006 156.34246445 C94.14405735 157.50260336 92.98868875 158.66361453 91.83411801 159.82541794 C88.66756674 163.006704 85.48869736 166.17542339 82.30762196 169.34217727 C78.87558764 172.76309428 75.4551057 176.19552902 72.03313446 179.62650681 C65.33036156 186.34321004 58.61689398 193.04912446 51.89963178 199.7513339 C44.07417349 207.5599238 36.25877096 215.37854606 28.44361509 223.19744467 C14.49525781 237.15168042 0.53689904 251.09586956 -13.42671967 265.034832 C-26.96879353 278.5529967 -40.50243242 292.07953607 -54.0273056 305.61491013 C-68.75953715 320.35855949 -83.49650873 335.09744093 -98.24166191 349.82816833 C-99.81509856 351.40007918 -101.38853248 352.97199275 -102.96196365 354.54390907 C-103.73609157 355.31727917 -104.51021948 356.09064927 -105.30780581 356.88745483 C-110.75547884 362.3303908 -116.19985628 367.77660988 -121.64303207 373.22404289 C-128.2810421 379.86698756 -134.92450477 386.50442261 -141.57487626 393.13499279 C-144.9661427 396.51640929 -148.3550169 399.90013143 -151.73741341 403.29042244 C-154.83757562 406.39767197 -157.94464758 409.4978375 -161.05723427 412.59263968 C-162.17832123 413.70970179 -163.2969303 414.82925782 -164.41270341 415.95162768 C-170.71043878 422.28338334 -177.07560291 427.92977916 -184.61812592 432.75968552 C-185.62101654 433.42097458 -186.62390717 434.08226364 -187.65718842 434.76359177 C-211.73730948 449.27713905 -240.79522748 453.09304931 -268.10640717 446.79093552 C-294.51526487 439.97671307 -318.20990623 422.89187902 -332.46968842 399.57999802 C-346.74207491 374.89297089 -351.30372371 345.84498119 -344.47628021 318.09659958 C-338.35849411 295.38018951 -325.63683458 278.45578513 -309.14923859 262.03010178 C-308.00020888 260.87804585 -306.85161248 259.72555762 -305.7034083 258.57267892 C-302.56982809 255.4288716 -299.43010539 252.29126422 -296.28926313 249.15471435 C-292.89438242 245.76231035 -289.50526437 242.3641572 -286.11536407 238.9667778 C-279.48360321 232.32229644 -272.84640407 225.6832736 -266.20710819 219.04632218 C-260.81150077 213.6525002 -255.4176675 208.25691018 -250.02507973 202.86006927 C-249.25663428 202.09102864 -248.48818884 201.32198801 -247.69645717 200.52964311 C-246.13526238 198.96723655 -244.57406878 197.40482881 -243.01287634 195.84241991 C-228.38845355 181.20713286 -213.75753112 166.57835701 -199.12462462 151.95155303 C-185.73737495 138.5694777 -172.35836874 125.17919525 -158.98320799 111.78503819 C-145.24202204 98.02448594 -131.49529685 84.26949013 -117.74254423 70.52049768 C-110.02434136 62.80420789 -102.3083603 55.08572725 -94.59818077 47.36141968 C-88.0383028 40.78964275 -81.47321836 34.22312233 -74.90132802 27.66335709 C-71.54884078 24.31676746 -68.19881527 20.96780774 -64.85526276 17.61228943 C-61.79425914 14.54045851 -58.72640892 11.47564269 -55.65296835 8.41625671 C-54.54280166 7.30874549 -53.435157 6.19869916 -52.33031928 5.08587177 C-36.44757811 -10.90372272 -18.53279151 -15.85839741 0 0 Z " fill="#545667" transform="translate(373.61812591552734,36.24031448364258)"/>
<path d="M0 0 C12.4535247 10.6502994 21.3166303 25.51261459 23.33984375 41.90234375 C23.55223643 45.32025373 23.63024865 48.72823412 23.65234375 52.15234375 C23.66080322 53.39371094 23.66080322 53.39371094 23.66943359 54.66015625 C23.46157392 72.30356698 15.59890313 88.88003654 3.69140625 101.70703125 C-11.65100265 116.03001099 -30.9178595 121.94199129 -51.64453125 121.31640625 C-69.08086184 120.25581843 -84.95415039 110.98362576 -96.8828125 98.59375 C-110.19941174 82.96791389 -115.34702001 63.53127773 -113.93505859 43.31689453 C-111.98953147 26.22873885 -102.43932139 10.46629793 -89.66015625 -0.72265625 C-62.52752456 -21.94707272 -26.95721202 -21.2570086 0 0 Z " fill="#050300" transform="translate(231.66015625,273.09765625)"/>
<path d="M0 0 C2.82782098 2.67426552 5.59185836 5.40511189 8.33597565 8.16447067 C9.3909398 9.21072028 10.44673001 10.25613749 11.50327301 11.30079269 C14.34721962 14.11815647 17.17842894 16.9479889 20.00656605 19.78121233 C22.37854201 22.15534095 24.75647457 24.52346008 27.13429618 26.89173162 C32.74853577 32.48384959 38.35213848 38.08647031 43.9492569 43.69572067 C49.70206246 49.46060441 55.47297905 55.2068884 61.25307488 60.94439852 C66.23578259 65.89175567 71.20667049 70.85077788 76.16848731 75.81908643 C79.12301327 78.77721919 82.08169964 81.73084272 85.05198669 84.67315674 C87.84652908 87.44235666 90.62589882 90.22597273 93.39480591 93.02079773 C94.40621213 94.03689438 95.42263034 95.04803388 96.44467926 96.05342484 C104.33899407 103.82839982 111.92184497 112.96260782 112.48734283 124.54484177 C111.81606544 138.64166704 104.9197204 146.81209987 95.3003006 156.34246445 C94.14405735 157.50260336 92.98868875 158.66361453 91.83411801 159.82541794 C88.66756674 163.006704 85.48869736 166.17542339 82.30762196 169.34217727 C78.87558764 172.76309428 75.4551057 176.19552902 72.03313446 179.62650681 C65.33036156 186.34321004 58.61689398 193.04912446 51.89963178 199.7513339 C44.07417349 207.5599238 36.25877096 215.37854606 28.44361509 223.19744467 C14.49525781 237.15168042 0.53689904 251.09586956 -13.42671967 265.034832 C-26.96879353 278.5529967 -40.50243242 292.07953607 -54.0273056 305.61491013 C-68.75953715 320.35855949 -83.49650873 335.09744093 -98.24166191 349.82816833 C-99.81509856 351.40007918 -101.38853248 352.97199275 -102.96196365 354.54390907 C-103.73609157 355.31727917 -104.51021948 356.09064927 -105.30780581 356.88745483 C-110.75547884 362.3303908 -116.19985628 367.77660988 -121.64303207 373.22404289 C-128.2810421 379.86698756 -134.92450477 386.50442261 -141.57487626 393.13499279 C-144.9661427 396.51640929 -148.3550169 399.90013143 -151.73741341 403.29042244 C-154.83757562 406.39767197 -157.94464758 409.4978375 -161.05723427 412.59263968 C-162.17832123 413.70970179 -163.2969303 414.82925782 -164.41270341 415.95162768 C-170.71043878 422.28338334 -177.07560291 427.92977916 -184.61812592 432.75968552 C-185.62101654 433.42097458 -186.62390717 434.08226364 -187.65718842 434.76359177 C-211.73730948 449.27713905 -240.79522748 453.09304931 -268.10640717 446.79093552 C-294.51526487 439.97671307 -318.20990623 422.89187902 -332.46968842 399.57999802 C-346.74207491 374.89297089 -351.30372371 345.84498119 -344.47628021 318.09659958 C-338.35849411 295.38018951 -325.63683458 278.45578513 -309.14923859 262.03010178 C-308.00020888 260.87804585 -306.85161248 259.72555762 -305.7034083 258.57267892 C-302.56982809 255.4288716 -299.43010539 252.29126422 -296.28926313 249.15471435 C-292.89438242 245.76231035 -289.50526437 242.3641572 -286.11536407 238.9667778 C-279.48360321 232.32229644 -272.84640407 225.6832736 -266.20710819 219.04632218 C-260.81150077 213.6525002 -255.4176675 208.25691018 -250.02507973 202.86006927 C-249.25663428 202.09102864 -248.48818884 201.32198801 -247.69645717 200.52964311 C-246.13526238 198.96723655 -244.57406878 197.40482881 -243.01287634 195.84241991 C-228.38845355 181.20713286 -213.75753112 166.57835701 -199.12462462 151.95155303 C-185.73737495 138.5694777 -172.35836874 125.17919525 -158.98320799 111.78503819 C-145.24202204 98.02448594 -131.49529685 84.26949013 -117.74254423 70.52049768 C-110.02434136 62.80420789 -102.3083603 55.08572725 -94.59818077 47.36141968 C-88.0383028 40.78964275 -81.47321836 34.22312233 -74.90132802 27.66335709 C-71.54884078 24.31676746 -68.19881527 20.96780774 -64.85526276 17.61228943 C-61.79425914 14.54045851 -58.72640892 11.47564269 -55.65296835 8.41625671 C-54.54280166 7.30874549 -53.435157 6.19869916 -52.33031928 5.08587177 C-36.44757811 -10.90372272 -18.53279151 -15.85839741 0 0 Z M-49.06682587 16.81397629 C-50.21266992 17.95492668 -51.3591619 19.09522666 -52.50624192 20.23493445 C-55.64526126 23.35759064 -58.77489878 26.48950244 -61.90301156 29.62307906 C-65.28288818 33.00563045 -68.67135807 36.37955526 -72.05867767 39.75465012 C-78.69029405 46.36522661 -85.31364642 52.9840233 -91.9338585 59.60601883 C-97.31838531 64.99185442 -102.70546532 70.37512317 -108.09435654 75.7565918 C-109.64800254 77.30813853 -111.20164771 78.8596861 -112.75529206 80.4112345 C-113.52866406 81.18356298 -114.30203607 81.95589145 -115.09884359 82.75162382 C-129.72165901 97.3555414 -144.33449106 111.96941723 -158.94444765 126.58619721 C-172.29266804 139.93998805 -185.65402564 153.28054558 -199.02158545 166.61497454 C-212.76105495 180.32065675 -226.49116355 194.03565391 -240.21144211 207.76054823 C-247.90883727 215.46018358 -255.60989427 223.15606836 -263.32088089 230.84209442 C-269.88833833 237.38847322 -276.44691871 243.94359176 -282.99441968 250.5099328 C-286.33116467 253.85579656 -289.67169075 257.19762363 -293.02337265 260.52853012 C-296.10004443 263.58634272 -299.16464614 266.65576313 -302.22058679 269.73429008 C-303.31981238 270.83766408 -304.42314722 271.93696532 -305.53128301 273.03139035 C-315.51041051 282.89554787 -324.10329285 293.96848174 -329.55562592 307.00968552 C-329.83229095 307.67024948 -330.10895599 308.33081345 -330.39400482 309.0113945 C-339.95190917 332.38935839 -338.86413616 358.673983 -329.33687592 381.87687302 C-324.25796334 393.62039552 -317.56174515 402.70765877 -308.61812592 411.75968552 C-308.03546967 412.41452927 -307.45281342 413.06937302 -306.85250092 413.74406052 C-293.62962504 428.30258042 -270.65199945 437.81747278 -251.37154388 438.88395309 C-221.6472075 439.84732462 -197.93062331 432.28786619 -175.81556809 411.77315474 C-170.74345056 407.01804809 -165.82196287 402.11203131 -160.90705109 397.19578171 C-159.7812131 396.07325392 -158.65516654 394.95093529 -157.52893263 393.82880473 C-154.46979431 390.77956034 -151.41369683 387.72728492 -148.35816538 384.67442679 C-145.04917952 381.36938107 -141.73738038 378.06715614 -138.42601776 374.76449203 C-130.45575829 366.81387573 -122.49023806 358.85851965 -114.5253354 350.90253747 C-110.76888709 347.15048519 -107.01195579 343.39891661 -103.25509071 339.64728165 C-90.76334201 327.17252012 -78.27283765 314.69651465 -65.78594875 302.21688843 C-62.55529401 298.9881433 -59.32463388 295.75940357 -56.09395599 292.53068161 C-54.88963051 291.32708174 -54.88963051 291.32708174 -53.66097523 290.09916672 C-40.62439634 277.07090695 -27.57930995 264.0512003 -14.53069263 251.03499892 C-1.11974478 237.65709546 12.2836866 224.27169877 25.67972177 210.87886214 C33.19595893 203.36479065 40.71545939 195.85404931 48.24337196 188.35167313 C54.64560232 181.97111241 61.04100903 175.58381121 67.42754174 169.18753657 C70.68566354 165.92486159 73.94695345 162.66552649 77.21702003 159.41481972 C80.21007975 156.43932805 83.19376525 153.45476009 86.17025094 150.46269152 C87.24854236 149.38201461 88.33022739 148.30471102 89.41561235 147.23115876 C90.89115557 145.77071099 92.35380502 144.29842853 93.81394291 142.82260132 C94.62953255 142.00798848 95.4451222 141.19337565 96.28542668 140.35407758 C99.73886367 136.08038606 101.81008953 131.40220112 101.81937408 125.82218552 C101.83871002 125.05003708 101.85804596 124.27788864 101.87796783 123.48234177 C100.18557979 114.19419636 93.56641598 108.37120383 87.14066315 102.00089645 C86.08819892 100.94300423 85.03658581 99.88426467 83.98575592 98.82474899 C81.14358966 95.96442721 78.28901241 93.11680756 75.43140888 90.2719183 C72.43425562 87.28493305 69.44692047 84.28815367 66.45798492 81.29294968 C61.43815747 76.26585688 56.40998254 71.2472294 51.37699127 66.23331833 C45.56866619 60.44675974 39.77489113 54.64593253 33.98846269 48.83748412 C29.00883483 43.83967058 24.02141192 38.84973653 19.02745986 33.86623597 C16.04968778 30.89468138 13.07463989 27.92053463 10.10661316 24.93924332 C7.31504632 22.13607249 4.51378074 19.34296119 1.70491791 16.55712509 C0.67921825 15.53668825 -0.34314154 14.51288086 -1.36177063 13.48538589 C-10.11360024 4.6388407 -10.11360024 4.6388407 -21.52437592 0.19327927 C-22.80828217 0.19521286 -22.80828217 0.19521286 -24.11812592 0.19718552 C-25.40203217 0.16431442 -25.40203217 0.16431442 -26.71187592 0.13077927 C-36.0144757 2.14384185 -42.61711655 10.32995447 -49.06682587 16.81397629 Z " fill="#000001" transform="translate(373.61812591552734,36.24031448364258)"/>
<path d="M0 0 C5.21477397 4.11461069 8.84004404 9.07011391 10.1015625 15.7109375 C10.75953975 25.27691448 10.38951596 32.80855798 4.3515625 40.4609375 C-0.45577229 45.69877988 -5.98897803 48.41724658 -13.0703125 48.94921875 C-22.23911077 49.13940125 -27.76695409 48.37293416 -34.6484375 42.2734375 C-35.3909375 41.4278125 -36.1334375 40.5821875 -36.8984375 39.7109375 C-37.6203125 38.9065625 -38.3421875 38.1021875 -39.0859375 37.2734375 C-43.72875823 30.70944958 -43.49539132 23.4429108 -42.8984375 15.7109375 C-41.57717893 8.96030547 -37.67786676 3.41052983 -32.09375 -0.578125 C-22.42817551 -6.34428317 -9.37100682 -6.36302932 0 0 Z " fill="#F38C16" transform="translate(202.8984375,303.2890625)"/>
<path d="M0 0 C5.85158439 3.04341878 10.26991637 7.9344431 14.828125 12.60400391 C16.38956864 14.20222778 17.9667001 15.78359557 19.546875 17.36328125 C29.78822986 27.70462826 29.78822986 27.70462826 29.8203125 34.5703125 C29.69228938 39.6987682 28.82686569 43.4195483 25.04296875 47.1328125 C20.85171891 50.73995173 18.33917637 51.90488844 12.8828125 52.1328125 C11.87992187 52.19339844 10.87703125 52.25398438 9.84375 52.31640625 C1.43327382 50.75052134 -4.93852452 42.58565741 -10.7421875 36.7578125 C-11.53109375 35.98501953 -12.32 35.21222656 -13.1328125 34.41601562 C-22.53756062 25.0192107 -22.53756062 25.0192107 -24.0234375 18.2890625 C-23.93867415 12.60991778 -22.8475749 9.32030595 -19.4921875 4.6953125 C-13.36719817 -0.97030263 -8.18293205 -3.05715806 0 0 Z " fill="#020201" transform="translate(418.4921875,132.3046875)"/>
<path d="M0 0 C1.37285156 -0.04253906 1.37285156 -0.04253906 2.7734375 -0.0859375 C8.68199435 0.86914429 12.84916875 5.34409376 16.953125 9.4375 C17.42820496 9.9106665 17.90328491 10.38383301 18.39276123 10.87133789 C19.38669352 11.86391956 20.37814651 12.8589897 21.3671875 13.85644531 C22.8780195 15.37804101 24.39930136 16.88860097 25.921875 18.3984375 C26.8912673 19.36915066 27.86003942 20.34048365 28.828125 21.3125 C29.70114258 22.18777344 30.57416016 23.06304687 31.47363281 23.96484375 C35.91459201 28.94000821 36.07232597 32.94309615 35.9296875 39.46484375 C35.42033736 44.32979065 33.55144955 46.74425828 29.89453125 49.83984375 C25.80941971 52.78340715 22.10618596 54.30591623 17.02709961 53.88232422 C8.47306606 52.07570955 1.62275048 43.8311176 -4.25 37.875 C-5.09046875 37.04613281 -5.9309375 36.21726563 -6.796875 35.36328125 C-12.52533177 29.60737182 -16.75318038 24.95918166 -17 16.5 C-16.87147667 10.75929112 -15.27486749 7.92742989 -11.296875 3.8984375 C-7.57068257 0.94474838 -4.76422602 0.06672585 0 0 Z " fill="#020201" transform="translate(344.375,63.625)"/>
<path d="M0 0 C2.44140625 1.26953125 4.8828125 2.5390625 7.32421875 3.80859375 C16.02192048 7.68129306 27.36487057 7.31919558 36.1875 4.125 C39.20730251 2.87254735 42.07106951 1.46446524 45 0 C49.95 4.95 54.9 9.9 60 15 C54.57715465 20.42284535 49.89989448 22.95670053 43 26 C42.24074219 26.34546875 41.48148438 26.6909375 40.69921875 27.046875 C27.74704977 31.92406829 11.24336441 29.99093153 -1.1484375 24.640625 C-6.99341621 21.89504178 -10.29098906 19.70901094 -15 15 C-10.05 10.05 -5.1 5.1 0 0 Z " fill="#FBCA00" transform="translate(164,355)"/>
<path d="M0 0 C4.39831531 3.68022301 8.53758412 7.454292 12.51953125 11.58203125 C13.96354985 13.10498419 13.96354985 13.10498419 16 14 C14.1883537 18.68008627 14.1883537 18.68008627 12.9765625 20.73828125 C8.45417803 28.9972458 8.62501506 39.40368277 10.8359375 48.40234375 C12.28010557 52.44710018 14.07900163 56.15800325 16 60 C11.05 64.95 6.1 69.9 1 75 C-4.42284535 69.57715465 -6.95670053 64.89989448 -10 58 C-10.34546875 57.24074219 -10.6909375 56.48148437 -11.046875 55.69921875 C-15.90590104 42.79529583 -14.06057923 26.16758223 -8.60546875 13.8515625 C-6.16524649 8.74871797 -3.65378331 4.34034735 0 0 Z " fill="#FBCA00" transform="translate(141,288)"/>
<path d="M0 0 C0.99 1.485 0.99 1.485 2 3 C0.60974609 4.37285156 0.60974609 4.37285156 -0.80859375 5.7734375 C-2.01836039 6.9738261 -3.22798865 8.17435417 -4.4375 9.375 C-5.35499023 10.27992188 -5.35499023 10.27992188 -6.29101562 11.203125 C-7.1659668 12.07324219 -7.1659668 12.07324219 -8.05859375 12.9609375 C-8.59798584 13.49509277 -9.13737793 14.02924805 -9.69311523 14.57958984 C-11.10846977 15.98652388 -11.10846977 15.98652388 -12 18 C-16.71514343 16.17478319 -16.71514343 16.17478319 -18.66796875 14.9765625 C-26.51090878 10.5619735 -36.27968044 10.69824207 -45 12 C-49.718866 13.33961865 -53.72076146 15.58348883 -58 18 C-62.95 13.05 -67.9 8.1 -73 3 C-53.75648281 -16.24351719 -21.38344178 -15.70061909 0 0 Z " fill="#FBCB00" transform="translate(222,278)"/>
<path d="M0 0 C9.73102285 8.94383167 13.39575232 20.88832862 14.24609375 33.7109375 C14.84870781 48.01601426 11.58804329 61.3035234 3 73 C1.515 73.99 1.515 73.99 0 75 C-7.425 67.575 -7.425 67.575 -15 60 C-14.01 58.246875 -13.02 56.49375 -12 54.6875 C-7.73227628 45.45424939 -7.11074257 34.80482537 -9.84375 24.9609375 C-10.77194848 22.85842732 -11.79993962 20.9558236 -13 19 C-13.67834587 17.33805262 -14.35199575 15.67401097 -15 14 C-14.50371094 13.57589844 -14.00742188 13.15179688 -13.49609375 12.71484375 C-8.79678658 8.65756716 -4.32846012 4.45019806 0 0 Z " fill="#FBCB00" transform="translate(231,288)"/>
<path d="M0 0 C4.38041868 3.79576321 7.51834244 8.1617913 8.25 13.9921875 C8.58408257 20.02655387 7.27292446 24.90878418 4 30 C-0.63124626 35.13607405 -5.35431667 37.99438142 -12.3125 38.375 C-18.35020719 38.19476993 -22.70545649 36.24572344 -27.01953125 32.0234375 C-32.2786658 26.13234992 -33.3167613 22.97466423 -33.203125 15.0390625 C-32.78792886 8.82708949 -30.59419137 5.30252904 -26.125 1.1875 C-17.6471829 -5.69976125 -9.38632703 -5.28850716 0 0 Z " fill="#030302" transform="translate(93,333)"/>
<path d="M0 0 C5.32150158 3.02700798 9.40806425 7.78491871 11.75 13.4375 C12.7707375 20.30967455 11.72504228 26.68357139 7.75 32.4375 C1.4243045 38.38815427 -3.29206142 39.85181555 -11.91015625 39.78515625 C-18.02253719 39.14889671 -21.50495993 36.27438429 -25.625 31.9375 C-29.65616843 25.73570242 -30.30004248 19.69568835 -29.25 12.4375 C-26.69714017 6.48669572 -22.9151965 2.45893813 -17.25 -0.5625 C-11.56978516 -2.45590495 -5.50898331 -2.48381907 0 0 Z " fill="#030301" transform="translate(315.25,186.5625)"/>
<path d="M0 0 C4.95796814 2.61298321 9.29228967 7.34239184 11.796875 12.3515625 C12.46195605 20.04905796 12.6091448 26.99810825 7.796875 33.3515625 C3.24932935 37.89910815 -2.1998295 40.46757701 -8.640625 40.7890625 C-14.3705244 40.55518905 -18.78103163 38.6179115 -22.96484375 34.703125 C-27.9956878 29.12412603 -29.70903512 24.43364631 -29.5078125 16.91015625 C-28.89586913 11.77140102 -27.06731274 8.04259446 -23.2265625 4.55859375 C-16.1326188 -0.8714977 -8.92761131 -2.62763028 0 0 Z " fill="#030302" transform="translate(356.203125,144.6484375)"/>
<path d="M0 0 C4.7260664 3.02041838 7.41740488 6.64629197 9.453125 11.828125 C10.77517946 19.23162995 10.18549175 24.07833547 6.078125 30.328125 C2.70278504 34.62315028 -0.43304008 37.27257982 -5.921875 38.328125 C-12.23456497 38.90390933 -17.36626766 38.68245396 -22.921875 35.328125 C-28.34990869 30.21026466 -31.87065162 25.58431905 -32.296875 18.015625 C-32.13276888 12.20433781 -30.24501467 7.81091171 -26.2734375 3.56640625 C-18.30465282 -3.61941924 -9.68828499 -4.81026737 0 0 Z " fill="#030302" transform="translate(172.921875,413.671875)"/>
<path d="M0 0 C4.54184572 3.29283815 7.95912299 6.79534454 10.5 11.8125 C11.43091424 18.36244612 11.41014749 25.27835263 7.97265625 31.09375 C3.07398296 36.81103447 -2.90468587 39.51289049 -10.25 40.125 C-15.83978723 40.02110061 -20.19626439 37.9633328 -24.265625 34.1640625 C-29.23699183 28.63764015 -31.0671147 23.90144871 -30.8671875 16.4375 C-29.96144207 9.96238376 -26.57454477 5.24047996 -21.5 1.25 C-14.87779565 -2.74328905 -7.16109148 -2.42965604 0 0 Z " fill="#040302" transform="translate(274.5,228.1875)"/>
<path d="M0 0 C2.76236022 1.68661493 4.55142081 3.24805523 6.62109375 5.71484375 C7.49701172 6.73578125 7.49701172 6.73578125 8.390625 7.77734375 C11.8189597 12.46179007 11.33997087 18.17333948 10.80859375 23.71484375 C8.77051851 30.9094949 3.74852453 35.43383119 -2.56640625 39.08984375 C-8.99317654 40.62002715 -14.52562006 40.32125933 -20.3359375 37.05078125 C-25.15173123 33.58340976 -28.33049036 29.3396936 -30.19140625 23.71484375 C-31.11075595 17.24068637 -30.74984275 11.83957838 -26.78125 6.5078125 C-19.49076554 -1.71413435 -10.6752703 -4.29885426 0 0 Z " fill="#030201" transform="translate(398.19140625,186.28515625)"/>
<path d="M0 0 C4.93408177 3.55654625 7.7913868 7.59314623 8.80859375 13.6328125 C9.06866414 20.06955473 8.28062675 25.47963571 4.30859375 30.6640625 C-0.72622258 35.89340582 -4.52659705 37.81495929 -11.87890625 38.0390625 C-18.15596194 37.99013222 -22.02880234 36.86616232 -26.69140625 32.6640625 C-31.77219235 27.31586661 -33.18328255 22.47848886 -33 15.22265625 C-32.28858172 9.32418826 -29.6072019 5.22413761 -25.25390625 1.2890625 C-17.16202079 -5.00652703 -8.87343735 -4.95583552 0 0 Z " fill="#030301" transform="translate(317.69140625,270.3359375)"/>
<path d="M0 0 C6.13448349 2.08134261 10.15018818 6.16879703 13.3125 11.75 C15.68747951 16.90709836 16.01947073 21.70029295 14.33984375 27.13671875 C11.60523531 33.35173794 7.21018668 37.46469333 1.125 40.375 C-5.63172259 41.72634452 -11.09811376 41.7073345 -17.2109375 38.2734375 C-21.21285911 35.42490815 -24.18568669 31.56761332 -26 27 C-26.62595356 20.95882032 -26.93787912 15.10084922 -24.4375 9.5 C-16.37581339 1.23160347 -11.77190406 -0.78957893 0 0 Z " fill="#030301" transform="translate(230,186)"/>
<path d="M0 0 C5.5214322 2.43244382 9.35972687 6.50338392 12.81640625 11.3828125 C14.64876382 16.8798852 14.99366895 23.34928495 12.875 28.80859375 C9.4238443 34.55330747 5.18730191 38.20402134 -1.18359375 40.3828125 C-8.13065485 41.29311706 -13.83260882 41.03960842 -19.56640625 36.8046875 C-24.37096934 32.58038565 -26.74294178 28.41544572 -27.44140625 22.0234375 C-27.70916662 16.13270926 -27.01763223 11.95459599 -23.18359375 7.3828125 C-16.36631191 0.53389595 -9.76544776 -2.76018022 0 0 Z " fill="#030201" transform="translate(272.18359375,144.6171875)"/>
<path d="M0 0 C4.62283511 2.65384979 8.30472435 6.6719487 10.6875 11.4375 C11.37637256 18.93636982 11.81795134 25.68841204 7.11328125 31.890625 C3.08420994 36.26189141 -0.98059622 38.9643597 -6.92578125 39.80859375 C-13.75669237 39.976648 -18.1084263 38.95558217 -23.3125 34.4375 C-27.94041969 29.92763948 -30.34489939 25.57915344 -30.6875 19.125 C-30.50738191 13.09104403 -28.54764492 8.76259039 -24.37109375 4.41796875 C-17.37992053 -1.90369986 -9.00557825 -4.06815697 0 0 Z " fill="#030201" transform="translate(316.3125,104.5625)"/>
<path d="M0 0 C5.23868878 3.10329945 8.92013221 7.10667639 11.92578125 12.40234375 C13.56927664 18.82691665 13.21996854 24.40986036 9.953125 30.234375 C6.8093885 34.58794596 2.58575697 38.04290356 -2.38671875 40.08984375 C-8.63053145 40.90748589 -14.94020857 40.42086392 -20.38671875 37.08984375 C-25.00197663 32.93611165 -27.93954082 28.50251739 -28.7578125 22.2578125 C-28.91592751 15.1612388 -28.15703957 10.48578042 -23.38671875 5.08984375 C-16.76626272 -1.04618866 -8.7607337 -3.34083626 0 0 Z " fill="#020201" transform="translate(355.38671875,226.91015625)"/>
<path d="M0 0 C3.59965173 2.69502039 6.6974792 5.89480529 9.85205078 9.09033203 C11.37115285 10.62112325 12.91949464 12.11715248 14.47265625 13.61328125 C15.44985724 14.58659723 16.42518457 15.56179872 17.3984375 16.5390625 C18.28192871 17.41771973 19.16541992 18.29637695 20.07568359 19.20166016 C22.49264624 22.71640588 22.45146356 24.81726795 22 29 C20.9375 30.9375 20.9375 30.9375 19 32 C15.5965874 32.6673358 13.24007125 32.77674793 10.22265625 30.88671875 C8.03385501 29.02184158 6.02567731 27.04222696 4 25 C2.89159412 23.91437424 1.78213916 22.82981898 0.671875 21.74609375 C-10.77858691 10.48663072 -10.77858691 10.48663072 -11.4375 6.0625 C-11 3 -11 3 -8.875 0.5625 C-5.23719844 -1.41456607 -3.94161644 -1.10989385 0 0 Z " fill="#F5C600" transform="translate(416,142)"/>
<path d="M0 0 C3.03509368 1.92945241 5.44979156 4.48089166 8 7 C9.27005871 8.19873791 10.54096718 9.39657583 11.8125 10.59375 C13.18909207 11.91500992 14.56407577 13.23794747 15.9375 14.5625 C16.61288818 15.19937744 17.28827637 15.83625488 17.98413086 16.49243164 C20.92748333 19.38708412 22.77423563 21.30957151 24.07421875 25.28515625 C24 28 24 28 21.875 30.875 C18.67844363 33.2376721 17.83161457 33.53998766 14 33 C11.74609375 31.453125 11.74609375 31.453125 9.4375 29.25 C8.5815625 28.43917969 7.725625 27.62835938 6.84375 26.79296875 C5.43609375 25.41044922 5.43609375 25.41044922 4 24 C3.46761719 23.48131348 2.93523437 22.96262695 2.38671875 22.42822266 C-8.89681062 11.41885398 -8.89681062 11.41885398 -9.25 6.5625 C-9 3 -9 3 -7.875 1.0625 C-4.88360708 -0.63262266 -3.41358101 -0.64407189 0 0 Z " fill="#F6C600" transform="translate(347,74)"/>
<path d="M0 0 C2.875 2.5 2.875 2.5 5 5 C5.33 5.33 5.66 5.66 6 6 C6.41345068 10.21719696 6.24797447 12.53061975 4.25 16.3125 C1.26087444 19.88284442 -0.33309354 20.74634032 -4.875 21.4375 C-9.2682371 20.82244681 -10.84565969 19.08098355 -14 16 C-15.61540873 12.76918255 -15.5896275 9.49240902 -15 6 C-11.37660818 -0.53329722 -7.05387839 -1.7026603 0 0 Z " fill="#F6C700" transform="translate(85,340)"/>
<path d="M0 0 C3.39890142 2.06889652 5.88937011 4.11279537 7 8 C6.9188061 12.4656646 6.47785505 14.43637609 3.5625 17.875 C-0.44194731 21.19576118 -2.78515999 21.44193559 -8 21 C-11.4121353 18.87689359 -13.74948744 16.86522064 -15 13 C-15.45972376 9.97895814 -15.60025379 7.96174492 -13.94921875 5.31640625 C-9.81356643 0.22918791 -6.47372507 -0.90706704 0 0 Z " fill="#F7C700" transform="translate(311,113)"/>
<path d="M0 0 C2.70567626 1.82339052 4.53728718 3.07457436 6 6 C6.57791538 13.0505676 6.57791538 13.0505676 4.25 16.875 C0.69879518 20.22891566 0.69879518 20.22891566 -2 21 C-7.27181513 20.80829763 -10.25818556 19.74181444 -14 16 C-15.20190901 12.39427296 -15.32670315 9.7897565 -15 6 C-10.96884399 -0.47864359 -7.37458466 -1.8113015 0 0 Z " fill="#F7C800" transform="translate(393,195)"/>
<path d="M0 0 C3.08798053 1.63138594 5.2664262 3.07505912 7.4375 5.8125 C8.30204969 9.17463767 7.82327073 11.64811202 7 15 C5.17660948 17.70567626 3.92542564 19.53728718 1 21 C-3.973766 21.4973766 -6.06308498 21.54511419 -10.4375 19 C-13.17751067 15.79218264 -14.00880732 14.11136431 -14.2421875 9.99609375 C-13.82987 6.59779949 -12.17991919 4.54323905 -10 2 C-6.24543433 -0.50304378 -4.45254066 -0.45280074 0 0 Z " fill="#F7C800" transform="translate(165,421)"/>
<path d="M0 0 C3.02508145 1.73602105 5.41790069 3.83580137 7 7 C7.04227317 11.37950088 6.78687799 14.95082935 4.125 18.5 C0.18797636 21.27907551 -3.29083092 21.40596285 -8 21 C-10.75329021 19.20437595 -12.52627461 17.94745078 -14 15 C-14.55512815 10.36786507 -14.6364242 7.01827873 -12.125 3 C-8.48407397 -0.42675391 -4.8582835 -0.82924319 0 0 Z " fill="#F8C800" transform="translate(351,236)"/>
<path d="M0 0 C2.6258382 1.78870171 3.34201385 3.11189509 5 6 C5.55724601 9.9703778 5.38142821 12.18265383 3.6875 15.8125 C1.74161911 18.3349382 0.1275845 19.81840399 -3.0859375 20.3359375 C-7.17310165 20.40568433 -9.42122719 20.34967524 -13 18.1875 C-15.57248533 15.37384417 -15.94866316 13.45347543 -16.375 9.6875 C-15.87765929 4.79698299 -14.42915508 3.42915508 -11 0 C-7.46077805 -1.76961098 -3.72473277 -1.03393444 0 0 Z " fill="#F9C900" transform="translate(271,155)"/>
<path d="M0 0 C3.12335325 1.25061096 3.79559363 2.17383799 6 5 C6.79015682 8.4927222 6.78586383 11.50663449 6 15 C3.80977082 17.82424288 2.16982793 19.41508603 -1 21 C-4.9079648 21.44408691 -6.74548146 21.13704844 -10.25 19.25 C-13.90847144 16.25670518 -14.81740217 14.71641956 -15.3125 10.0625 C-14.95575962 6.56644429 -14.09609412 4.79479215 -12 2 C-7.9426512 -0.7048992 -4.76132788 -0.75306716 0 0 Z " fill="#F8C800" transform="translate(269,237)"/>
<path d="M0 0 C3.01286852 1.76997892 5.41228811 3.82457623 7 7 C7.44408691 10.9079648 7.13704844 12.74548146 5.25 16.25 C2.0615021 20.14705298 0.53768833 20.83225218 -4.4375 21.375 C-8.58155564 20.93878362 -10.09130272 19.90869728 -13 17 C-14.87449615 13.2510077 -14.65855233 9.07279453 -14 5 C-10.95694407 -0.08673186 -5.47221416 -1.39253163 0 0 Z " fill="#F8C800" transform="translate(228,196)"/>
<path d="M0 0 C2.87029869 1.79393668 4.49131638 2.98263276 6 6 C6.42071592 9.05920574 6.48514117 11.9467746 6 15 C3.81840855 17.75569447 2.12822506 19.43588747 -1 21 C-5.07909806 21.38482057 -7.29089873 21.44121857 -10.8125 19.25 C-13.8262478 16.15014512 -14.85414043 14.37107993 -15.3125 10.0625 C-14.95575962 6.56644429 -14.09609412 4.79479215 -12 2 C-7.98141405 -0.6790573 -4.72358279 -0.69610694 0 0 Z " fill="#F8C800" transform="translate(352,154)"/>
<path d="M0 0 C3.08416293 2.05610862 4.68386831 3.45571068 5.44140625 7.15625 C5.65351271 11.26153629 5.33679 13.461136 3.125 17 C-0.38583817 20.30431828 -3.06429794 20.38948117 -7.73828125 20.359375 C-11.32520929 19.78943134 -12.86838894 17.79773951 -15 15 C-16.55024464 11.89951072 -16.28992015 9.42105782 -16 6 C-11.92465952 -0.54965434 -7.46208009 -2.23123583 0 0 Z " fill="#F8C900" transform="translate(311,278)"/>
<path d="M0 0 C2.80907699 1.76119659 3.33896525 2.89940179 5 6 C5.43146468 10.53430157 4.86652631 13.88190153 2.0625 17.5 C-1.78925287 20.30127481 -5.32511705 20.67167859 -10 20 C-12.8100346 18.20636089 -14.50940468 16.98119065 -16 14 C-16.42071592 10.94079426 -16.48514117 8.0532254 -16 5 C-11.22651888 -1.02966036 -7.24613626 -1.9830218 0 0 Z " fill="#F9C900" transform="translate(312,196)"/>
</svg>
